<svg width="26.600000000000005" height="27" xmlns="http://www.w3.org/2000/svg" xml:space="preserve" enable-background="new 0 0 290.6 382.3" version="1.1">
 <g>
  <title>Layer 1</title>
  <g id="svg_312">
   <path id="svg_313" d="m1.62831,9.31986c0,0 3.3,-8.1 11.9,-8.1c9.2,0 11.4,8.1 11.4,8.1s1.8,6.7 -0.8,10.3s-5.6,6.6 -10,6.6s-9.4,-2.8 -11.5,-6c-2,-3.3 -2.2,-9.2 -1,-10.9z" fill="#00B9D0"/>
   <g id="svg_314">
    <path id="svg_315" d="m18.42831,7.91986c0.7,0.7 1.4,1.6 1.8,2.5c0.5,1 0.7,2 0.7,3.2c0,4.2 -3.4,7.6 -7.6,7.6c-4.2,0 -7.6,-3.4 -7.6,-7.6c0,-1.1 0.3,-2.2 0.7,-3.2c0.4,-0.9 1.1,-1.8 1.8,-2.5c0,0 1.7,-1.9 5.1,-1.9s5.1,1.9 5.1,1.9z"/>
    <path id="svg_316" d="m13.32831,21.51986c-4.4,0 -8,-3.6 -8,-8c0,-1.2 0.3,-2.3 0.7,-3.3c0.5,-1 1.1,-1.8 1.9,-2.5c0.1,-0.1 0.4,-0.1 0.5,0s0.1,0.4 0,0.5c-0.7,0.7 -1.3,1.4 -1.7,2.3c-0.4,1 -0.7,2 -0.7,3c0,4 3.3,7.2 7.2,7.2s7.2,-3.3 7.2,-7.2c0,-1.1 -0.2,-2.1 -0.7,-3c-0.4,-0.8 -1,-1.7 -1.7,-2.3c-0.1,-0.1 -0.1,-0.3 0,-0.5c0.1,-0.1 0.3,-0.1 0.5,0c0.8,0.7 1.4,1.7 1.9,2.5c0.5,1.1 0.7,2.2 0.7,3.3c0.1,4.4 -3.5,8 -7.8,8z"/>
    <path id="svg_317" d="m13.32831,5.71986c4.4,0 8,3.6 8,8c0,1.2 -0.3,2.3 -0.7,3.3c-0.5,1 -1.1,1.8 -1.9,2.5c-0.1,0.1 -0.4,0.1 -0.5,0s-0.1,-0.4 0,-0.5c0.7,-0.7 1.3,-1.4 1.7,-2.3c0.4,-1 0.7,-2 0.7,-3c0,-4 -3.3,-7.2 -7.2,-7.2s-7.2,3.3 -7.2,7.2c0,1.1 0.2,2.1 0.7,3c0.4,0.8 1,1.7 1.7,2.3c0.1,0.1 0.1,0.3 0,0.5c-0.1,0.1 -0.3,0.1 -0.5,0c-0.8,-0.7 -1.4,-1.7 -1.9,-2.5c-0.5,-1.1 -0.7,-2.2 -0.7,-3.3c-0.1,-4.4 3.4,-8 7.8,-8z"/>
   </g>
   <circle id="svg_318" r="1.9" cy="11.01986" cx="16.72831" fill="#FFFFFF" class="eye-light"/>
   <g id="svg_319">
    <path id="svg_320" d="m13.22831,26.41986c-7,0 -12.8,-5.7 -12.8,-12.8c0,-1.4 0.4,-3.6 0.9,-4.7c0.1,-0.2 0.3,-0.3 0.5,-0.2s0.3,0.3 0.2,0.5c-0.5,1.1 -0.8,3.1 -0.8,4.5c0,6.6 5.4,12.1 12.1,12.1s12.1,-5.4 12.1,-12.1c0,-1.4 -0.3,-2.8 -0.7,-4.1c-0.1,-0.2 0,-0.4 0.2,-0.4c0.2,-0.1 0.4,0 0.4,0.2c0.5,1.4 0.8,2.9 0.8,4.4c-0.1,6.9 -5.8,12.6 -12.9,12.6z"/>
    <path id="svg_321" d="m25.32831,9.41986c-1.7,-5 -6.5,-8.5 -12,-8.5c-7,0 -12.8,5.7 -12.8,12.8c0,1.5 0.3,2.9 0.7,4.3c1.7,5 6.5,8.5 12,8.5c7,0 12.8,-5.7 12.8,-12.8c0,-1.6 -0.3,-3 -0.7,-4.3zm-12.1,16.3c-5.2,0 -9.6,-3.3 -11.3,-7.9l0,0l0,-0.1c-0.4,-1.3 -0.7,-2.6 -0.7,-4s0.2,-2.7 0.7,-3.9l0,-0.1c1.7,-4.7 6.1,-8.1 11.4,-8.1c5.2,0 9.6,3.3 11.3,7.9l0,0l0,0.1c0.4,1.3 0.7,2.6 0.7,4s-0.2,2.7 -0.7,3.9l0,0.1c-1.6,4.7 -6.1,8.1 -11.4,8.1z"/>
    <path id="svg_322" d="m13.22831,26.41986c-0.2,0 -0.3,-0.2 -0.3,-0.3l0,-4.7c0,-0.2 0.2,-0.3 0.3,-0.3c0.2,0 0.3,0.2 0.3,0.3l0,4.7c0.1,0.2 -0.1,0.3 -0.3,0.3z"/>
    <path id="svg_323" d="m15.42831,26.21986c-0.2,0 -0.3,-0.1 -0.3,-0.3l-0.8,-4.6c0,-0.2 0.1,-0.4 0.3,-0.4s0.4,0.1 0.4,0.3l0.8,4.6c0,0.2 -0.1,0.4 -0.4,0.4l0,0z"/>
    <path id="svg_324" d="m17.52831,25.71986c-0.1,0 -0.3,-0.1 -0.3,-0.2l-1.6,-4.4c-0.1,-0.2 0,-0.4 0.2,-0.4c0.2,-0.1 0.4,0 0.4,0.2l1.6,4.4c0.1,0.1 -0.1,0.3 -0.3,0.4c0.1,-0.1 0,0 0,0z"/>
    <path id="svg_325" d="m19.42831,24.71986c-0.1,0 -0.3,0 -0.3,-0.2l-2.3,-4c-0.1,-0.2 0,-0.4 0.1,-0.5c0.2,-0.1 0.4,0 0.5,0.1l2.3,4c0.1,0.2 0,0.4 -0.1,0.5c-0.1,0.1 -0.1,0.1 -0.2,0.1z"/>
    <path id="svg_326" d="m21.22831,23.51986c-0.1,0 -0.2,0 -0.3,-0.1l-3,-3.6c-0.1,-0.1 -0.1,-0.4 0,-0.5s0.4,-0.1 0.5,0l3,3.6c0.1,0.1 0.1,0.4 0,0.5c0,0.1 -0.1,0.1 -0.2,0.1z"/>
    <path id="svg_327" d="m22.72831,22.01986c-0.1,0 -0.2,0 -0.2,-0.1l-3.6,-3c-0.1,-0.1 -0.2,-0.3 0,-0.5c0.1,-0.1 0.3,-0.2 0.5,0l3.6,3c0.1,0.1 0.2,0.3 0,0.5c-0.1,0 -0.2,0.1 -0.3,0.1z"/>
    <path id="svg_328" d="m24.02831,20.21986c0,0 -0.1,0 -0.2,0l-4,-2.3c-0.2,-0.1 -0.2,-0.3 -0.1,-0.5c0.1,-0.2 0.3,-0.2 0.5,-0.1l4,2.3c0.2,0.1 0.2,0.3 0.1,0.5c-0.1,0 -0.2,0.1 -0.3,0.1z"/>
    <path id="svg_329" d="m24.92831,18.21986l-0.1,0l-4.4,-1.6c-0.2,-0.1 -0.3,-0.3 -0.2,-0.4c0.1,-0.2 0.3,-0.3 0.4,-0.2l4.4,1.6c0.2,0.1 0.3,0.3 0.2,0.4c0,0.1 -0.1,0.2 -0.3,0.2z"/>
    <path id="svg_330" d="m25.52831,16.21986l0,0l-4.6,-0.8c-0.2,0 -0.3,-0.2 -0.3,-0.4s0.2,-0.3 0.4,-0.3l4.6,0.8c0.2,0 0.3,0.2 0.3,0.4c-0.1,0.1 -0.3,0.3 -0.4,0.3z"/>
    <path id="svg_331" d="m5.52831,14.01986l-4.7,0c-0.2,0 -0.3,-0.2 -0.3,-0.3c0,-0.2 0.2,-0.3 0.3,-0.3l4.7,0c0.2,0 0.3,0.2 0.3,0.3s-0.1,0.3 -0.3,0.3z"/>
    <path id="svg_332" d="m25.62831,14.01986l-4.6,0c-0.2,0 -0.3,-0.2 -0.3,-0.3c0,-0.2 0.2,-0.3 0.3,-0.3l4.7,0c0.2,0 0.3,0.2 0.3,0.3s-0.2,0.3 -0.4,0.3z"/>
    <path id="svg_333" d="m1.02831,16.21986c-0.2,0 -0.3,-0.1 -0.3,-0.3s0.1,-0.4 0.3,-0.4l4.6,-0.8c0.2,0 0.4,0.1 0.4,0.3s-0.1,0.4 -0.3,0.4l-4.7,0.8c0.1,0 0,0 0,0z"/>
    <path id="svg_334" d="m1.62831,18.21986c-0.1,0 -0.3,-0.1 -0.3,-0.2c-0.1,-0.2 0,-0.4 0.2,-0.4l4.4,-1.6c0.2,-0.1 0.4,0 0.4,0.2c0.1,0.2 0,0.4 -0.2,0.4l-4.5,1.6l0,0z"/>
    <path id="svg_335" d="m2.52831,20.21986c-0.1,0 -0.3,0 -0.3,-0.2c-0.1,-0.2 0,-0.4 0.1,-0.5l4.1,-2.4c0.2,-0.1 0.4,0 0.5,0.1c0.1,0.2 0,0.4 -0.1,0.5l-4.1,2.4c-0.1,0.1 -0.2,0.1 -0.2,0.1z"/>
    <path id="svg_336" d="m3.72831,22.01986c-0.1,0 -0.2,0 -0.3,-0.1s-0.1,-0.4 0,-0.5l3.6,-3c0.1,-0.1 0.4,-0.1 0.5,0s0.1,0.4 0,0.5l-3.6,3c0,0.1 -0.1,0.1 -0.2,0.1z"/>
    <path id="svg_337" d="m5.22831,23.51986c-0.1,0 -0.2,0 -0.2,-0.1c-0.1,-0.1 -0.2,-0.3 0,-0.5l3,-3.6c0.1,-0.1 0.3,-0.2 0.5,0c0.1,0.1 0.2,0.3 0,0.5l-3,3.6c0,0.1 -0.2,0.1 -0.3,0.1z"/>
    <path id="svg_338" d="m7.02831,24.71986c0,0 -0.1,0 -0.2,0c-0.2,-0.1 -0.2,-0.3 -0.1,-0.5l2.4,-4.1c0.1,-0.2 0.3,-0.2 0.5,-0.1c0.2,0.1 0.2,0.3 0.1,0.5l-2.4,4.1c-0.1,0.1 -0.2,0.1 -0.3,0.1z"/>
    <path id="svg_339" d="m9.02831,25.71986l-0.1,0c-0.2,-0.1 -0.3,-0.3 -0.2,-0.4l1.6,-4.4c0.1,-0.2 0.3,-0.3 0.4,-0.2c0.2,0.1 0.3,0.3 0.2,0.4l-1.6,4.4c0,0.1 -0.2,0.2 -0.3,0.2z"/>
    <path id="svg_340" d="m11.12831,26.21986l0,0c-0.2,0 -0.3,-0.2 -0.3,-0.4l0.8,-4.6c0,-0.2 0.2,-0.3 0.4,-0.3s0.3,0.2 0.3,0.4l-0.8,4.6c-0.1,0.2 -0.2,0.3 -0.4,0.3z"/>
    <path id="svg_341" d="m13.22831,0.81986c-0.2,0 -0.3,0.2 -0.3,0.3l0,4.7c0,0.2 0.2,0.3 0.3,0.3c0.2,0 0.3,-0.2 0.3,-0.3l0,-4.7c0.1,-0.1 -0.1,-0.3 -0.3,-0.3z"/>
    <path id="svg_342" d="m15.42831,1.01986c-0.2,0 -0.3,0.1 -0.3,0.3l-0.8,4.6c0,0.2 0.1,0.4 0.3,0.4s0.4,-0.1 0.4,-0.3l0.8,-4.6c0,-0.1 -0.1,-0.4 -0.4,-0.4l0,0z"/>
    <path id="svg_343" d="m17.52831,1.61986c-0.1,0 -0.3,0.1 -0.3,0.2l-1.6,4.4c-0.1,0.2 0,0.4 0.2,0.4c0.2,0.1 0.4,0 0.4,-0.2l1.6,-4.4c0.1,-0.1 -0.1,-0.4 -0.3,-0.4c0.1,0 0,0 0,0z"/>
    <path id="svg_344" d="m19.42831,2.51986c-0.1,0 -0.3,0 -0.3,0.2l-2.3,4c-0.1,0.2 0,0.4 0.1,0.5c0.2,0.1 0.4,0 0.5,-0.1l2.3,-4c0.1,-0.2 0,-0.4 -0.1,-0.5c-0.1,-0.1 -0.1,-0.1 -0.2,-0.1z"/>
    <path id="svg_345" d="m21.22831,3.81986c-0.1,0 -0.2,0 -0.3,0.1l-3,3.6c-0.1,0.1 -0.1,0.4 0,0.5s0.4,0.1 0.5,0l3,-3.6c0.1,-0.1 0.1,-0.4 0,-0.5c0,-0.1 -0.1,-0.1 -0.2,-0.1z"/>
    <path id="svg_346" d="m24.02831,7.11986c0,0 -0.1,0 -0.2,0l-4,2.3c-0.2,0.1 -0.2,0.3 -0.1,0.5c0.1,0.2 0.3,0.2 0.5,0.1l4,-2.3c0.2,-0.1 0.2,-0.3 0.1,-0.5c-0.1,-0.1 -0.2,-0.1 -0.3,-0.1z"/>
    <path id="svg_347" d="m22.52831,5.41986c0,0 -0.1,0 -0.2,0.1l-3.5,3.1c-0.1,0.1 -0.2,0.3 0,0.5c0.1,0.1 0.3,0.2 0.5,0l3.5,-3.1c0.1,-0.1 0.2,-0.3 0,-0.5c0,-0.1 -0.2,-0.1 -0.3,-0.1z"/>
    <path id="svg_348" d="m24.92831,9.01986l-0.1,0l-4.4,1.6c-0.2,0.1 -0.3,0.3 -0.2,0.4c0.1,0.2 0.3,0.3 0.4,0.2l4.4,-1.6c0.2,-0.1 0.3,-0.3 0.2,-0.4c0,-0.1 -0.1,-0.2 -0.3,-0.2z"/>
    <path id="svg_349" d="m25.52831,11.11986l0,0l-4.6,0.8c-0.2,0 -0.3,0.2 -0.3,0.4s0.2,0.3 0.4,0.3l4.6,-0.8c0.2,0 0.3,-0.2 0.3,-0.4c-0.1,-0.2 -0.3,-0.3 -0.4,-0.3z"/>
    <path id="svg_350" d="m1.02831,11.11986c-0.2,0 -0.3,0.1 -0.3,0.3s0.1,0.4 0.3,0.4l4.6,0.8c0.2,0 0.4,-0.1 0.4,-0.3s-0.1,-0.4 -0.3,-0.4l-4.7,-0.8c0.1,0 0,0 0,0z"/>
    <path id="svg_351" d="m1.62831,9.01986c-0.1,0 -0.3,0.1 -0.3,0.2c-0.1,0.2 0,0.4 0.2,0.4l4.4,1.6c0.2,0.1 0.4,0 0.4,-0.2c0.1,-0.2 0,-0.4 -0.2,-0.4l-4.5,-1.6l0,0z"/>
    <path id="svg_352" d="m2.52831,7.11986c-0.1,0 -0.3,0 -0.3,0.2c-0.1,0.2 0,0.4 0.1,0.5l4.1,2.4c0.2,0.1 0.4,0 0.5,-0.1c0.1,-0.2 0,-0.4 -0.1,-0.5l-4.1,-2.4c-0.1,-0.1 -0.2,-0.1 -0.2,-0.1z"/>
    <path id="svg_353" d="m3.72831,5.31986c-0.1,0 -0.2,0 -0.3,0.1s-0.1,0.4 0,0.5l3.6,3c0.1,0.1 0.4,0.1 0.5,0s0.1,-0.4 0,-0.5l-3.6,-3c0,-0.1 -0.1,-0.1 -0.2,-0.1z"/>
    <path id="svg_354" d="m5.22831,3.81986c-0.1,0 -0.2,0 -0.2,0.1c-0.1,0.1 -0.2,0.3 0,0.5l3,3.6c0.1,0.1 0.3,0.2 0.5,0c0.1,-0.1 0.2,-0.3 0,-0.5l-3,-3.6c0,-0.1 -0.2,-0.1 -0.3,-0.1z"/>
    <path id="svg_355" d="m7.02831,2.51986c0,0 -0.1,0 -0.2,0c-0.2,0.1 -0.2,0.3 -0.1,0.5l2.4,4.1c0.1,0.2 0.3,0.2 0.5,0.1c0.2,-0.1 0.2,-0.3 0.1,-0.5l-2.4,-4.1c-0.1,0 -0.2,-0.1 -0.3,-0.1z"/>
    <path id="svg_356" d="m9.02831,1.61986l-0.1,0c-0.2,0.1 -0.3,0.3 -0.2,0.4l1.6,4.4c0.1,0.2 0.3,0.3 0.4,0.2c0.2,-0.1 0.3,-0.3 0.2,-0.4l-1.6,-4.4c0,-0.1 -0.2,-0.2 -0.3,-0.2z"/>
    <path id="svg_357" d="m11.12831,1.01986l0,0c-0.2,0 -0.3,0.2 -0.3,0.4l0.8,4.6c0,0.2 0.2,0.3 0.4,0.3s0.3,-0.2 0.3,-0.4l-0.8,-4.6c-0.1,-0.2 -0.2,-0.3 -0.4,-0.3z"/>
   </g>
  </g>
  <g id="svg_637">
   <path id="svg_638" d="m-215.7,349.1c0.5,1.1 0.5,2.1 -0.2,3c0.6,0 1.1,0.1 1.7,0.4c0.6,0.3 1,0.8 1.4,1.7c0.4,0.8 0.4,1.6 0,2.4c-0.3,0.8 -1.1,1.4 -2.2,1.9l-3.4,1.7c-0.2,0.1 -0.3,0.1 -0.5,0s-0.3,-0.2 -0.4,-0.4l-4.7,-9.7c0,-0.1 -0.1,-0.2 0,-0.3c0,0 0.1,-0.1 0.2,-0.2l3.3,-1.6c2.4,-1.1 4,-0.8 4.8,1.1zm-4.3,1.7l1,2l0.1,0c0.9,-0.5 1.2,-1 0.9,-1.7c-0.2,-0.3 -0.4,-0.6 -0.6,-0.6c-0.3,-0.1 -0.6,0 -1,0.2l-0.4,0.1zm1.8,3.8l0.9,2l0.3,-0.1c0.4,-0.2 0.7,-0.4 0.8,-0.7c0.1,-0.3 0.1,-0.6 -0.1,-0.9c-0.2,-0.3 -0.4,-0.6 -0.6,-0.6c-0.3,0 -0.6,0 -1,0.2l-0.3,0.1z" fill="#FFFFFF"/>
   <path id="svg_639" d="m-208.6,343.6c-0.1,-0.2 0.5,-0.5 1.6,-0.9s1.7,-0.5 1.8,-0.3l2.5,7.3c0.4,1.1 0.3,2.1 -0.2,3s-1.4,1.7 -2.8,2.1s-2.5,0.5 -3.6,0c-1.1,-0.4 -1.8,-1.2 -2.2,-2.5l-2.4,-7.1c-0.1,-0.2 0.5,-0.5 1.6,-0.9s1.7,-0.5 1.8,-0.3l2.4,7.2c0.1,0.2 0.3,0.3 0.5,0.4c0.3,0 0.5,0 0.8,0c0.3,-0.1 0.5,-0.2 0.6,-0.4c0.2,-0.2 0.2,-0.4 0.1,-0.6l-2.5,-7z" fill="#FFFFFF"/>
   <path id="svg_640" d="m-199.9,352.1l-2.1,-9.9c0,-0.3 0,-0.5 0,-0.7c0.1,-0.2 0.3,-0.3 0.5,-0.3l2.6,-0.6c1.7,-0.3 3,-0.2 4.1,0.5s1.8,2 2.2,3.9c0.8,4.1 -0.4,6.4 -3.7,7.1l-2.7,0.6c-0.5,0.1 -0.8,-0.1 -0.9,-0.6zm1.4,-8.3l1.1,4.9c0,0.2 0.1,0.4 0.1,0.4s0.1,0 0.3,0c0.6,-0.1 1,-0.4 1.2,-1c0.2,-0.5 0.2,-1.3 0,-2.3c-0.2,-1.1 -0.5,-1.7 -0.9,-1.9c-0.4,-0.3 -0.9,-0.3 -1.6,-0.2l-0.2,0.1z" fill="#FFFFFF"/>
   <path id="svg_641" d="m-189.6,350l-0.9,-10.1c0,-0.3 0,-0.5 0.1,-0.7s0.3,-0.3 0.5,-0.3l2.7,-0.3c1.7,-0.2 3,0.2 4,1s1.5,2.2 1.7,4.1c0.4,4.1 -1.1,6.3 -4.5,6.6l-2.8,0.3c-0.4,0.1 -0.7,-0.1 -0.8,-0.6zm2.4,-8.1l0.5,5c0,0.3 0,0.4 0.1,0.4c0,0 0.1,0.1 0.3,0.1c0.6,0 1,-0.3 1.3,-0.8s0.3,-1.3 0.3,-2.3c-0.1,-1.1 -0.3,-1.7 -0.7,-2c-0.3,-0.3 -0.8,-0.4 -1.6,-0.3l-0.2,-0.1l0,0z" fill="#FFFFFF"/>
   <path id="svg_642" d="m-170.2,349.7c0,0.2 -0.6,0.3 -1.7,0.3c-1.1,0 -1.7,-0.1 -1.7,-0.3l0,-3.9l-2.2,0l0,3.9c0,0.2 -0.6,0.3 -1.7,0.3c-1.1,0 -1.7,-0.1 -1.7,-0.3l0,-11.2c0,-0.3 0.6,-0.3 1.7,-0.3c1.1,0 1.7,0.1 1.7,0.4l0,3.9l2.3,0l0,-3.9c0,-0.2 0.3,-0.3 0.8,-0.3c0.3,0 0.6,0 0.8,0l0.8,0c0.6,0.1 0.8,0.2 0.8,0.3l0.1,11.1z" fill="#FFFFFF"/>
   <path id="svg_643" d="m-160.4,350.5c-0.9,0 -1.4,-0.2 -1.5,-0.6l-0.4,-2.2l-2.6,-0.1l-0.6,2.1c-0.1,0.3 -0.6,0.5 -1.6,0.4c-0.5,0 -0.9,-0.1 -1.1,-0.2c-0.3,-0.1 -0.4,-0.1 -0.4,-0.2l3.4,-11.3c0,-0.1 0.8,-0.1 2.2,0c1.5,0.1 2.2,0.2 2.2,0.3l2.2,11.6c0,0.1 -0.3,0.1 -0.8,0.1c-0.3,0.1 -0.7,0.1 -1,0.1zm-3.9,-5l1.7,0.1l-0.6,-3.5l-0.1,0l-1,3.4z" fill="#FFFFFF"/>
   <path id="svg_644" d="m-155.2,350.8c-1,0 -1.5,-0.2 -1.4,-0.4l0.5,-10.9c0,-0.4 0.2,-0.6 0.5,-0.6l2.8,0.1c1.6,0.1 2.7,0.5 3.4,1.2s1,1.7 0.9,3c0,1.1 -0.4,2 -1.1,2.9c-0.3,0.4 -0.8,0.8 -1.5,1c-0.7,0.3 -1.4,0.3 -2.3,0.3l-0.1,3c0,0.1 -0.2,0.2 -0.6,0.3c-0.4,0.1 -0.8,0.1 -1.1,0.1zm2.1,-8.8l-0.1,2.7l0.2,0c0.4,0 0.7,-0.1 1,-0.3s0.4,-0.6 0.4,-1c0,-0.5 0,-0.8 -0.2,-1s-0.5,-0.3 -0.9,-0.3l-0.4,-0.1l0,0z" fill="#FFFFFF"/>
   <path id="svg_645" d="m-145.3,348.2l0,-6l-1.1,0c-0.2,0 -0.3,-0.3 -0.4,-0.7c0,-0.3 0,-0.5 0,-0.7c0,-0.3 0,-0.5 0,-0.7c0.1,-0.5 0.2,-0.7 0.4,-0.7l5.4,0c0.2,0 0.3,0.3 0.4,0.7c0,0.3 0,0.5 0,0.7s0,0.5 -0.1,0.7c-0.1,0.5 -0.2,0.7 -0.4,0.7l-1.1,0l0,6l1.1,0c0.2,0 0.3,0.3 0.4,0.7c0,0.3 0.1,0.5 0,0.7c0,0.3 0,0.5 -0.1,0.7c-0.1,0.5 -0.2,0.7 -0.4,0.7l-5.5,0c-0.2,0 -0.3,-0.3 -0.4,-0.7c0,-0.3 0,-0.5 0,-0.7c0,-0.3 0,-0.5 0.1,-0.7c0.1,-0.5 0.2,-0.7 0.4,-0.7l1.3,0z" fill="#FFFFFF"/>
   <path id="svg_646" d="m-138.2,342.4c-0.2,0 -0.3,-0.3 -0.4,-0.8c0,-0.2 -0.1,-0.4 -0.1,-0.7s0,-0.5 0,-0.8c0,-0.5 0.2,-0.8 0.4,-0.8l6,-0.4c0.7,0 1.1,0.6 1.4,1.8c0,0.3 0.1,0.5 0.1,0.6l-3.3,6.2l3,-0.2l0,0c0.3,0 0.4,0.3 0.6,0.8c0,0.3 0.1,0.5 0.1,0.8s0,0.6 0,0.9c-0.1,0.6 -0.3,0.8 -0.5,0.9l-6.3,0.5c-0.1,0 -0.3,-0.3 -0.6,-1s-0.5,-1.1 -0.5,-1.2s0,-0.3 0,-0.3l3.3,-6.3l-3.2,0z" fill="#FFFFFF"/>
   <path id="svg_647" d="m-128.6,341.5c-0.2,0 -0.3,-0.2 -0.5,-0.7c-0.1,-0.2 -0.1,-0.4 -0.2,-0.7c0,-0.3 -0.1,-0.5 -0.1,-0.8c0,-0.5 0.1,-0.8 0.3,-0.8l5.9,-1.1c0.6,-0.1 1.2,0.4 1.6,1.6c0.1,0.3 0.2,0.5 0.2,0.6l-2.6,6.6l2.9,-0.6l0,0c0.3,0 0.5,0.2 0.6,0.7c0.1,0.3 0.2,0.5 0.2,0.8s0.1,0.6 0.1,0.9c0,0.6 -0.1,0.9 -0.4,0.9l-6.2,1.1c-0.1,0 -0.3,-0.3 -0.7,-0.9c-0.4,-0.6 -0.6,-1 -0.6,-1.2s0,-0.3 0,-0.3l2.6,-6.7l-3.1,0.6z" fill="#FFFFFF"/>
   <path id="svg_648" d="m-109.5,345.7c-0.9,0.3 -1.4,0.3 -1.6,0l-1.2,-1.9l-2.5,0.8l0.2,2.1c0,0.3 -0.4,0.7 -1.3,1c-0.5,0.2 -0.8,0.3 -1.1,0.3s-0.4,0 -0.4,0l-0.9,-11.7c0,-0.1 0.7,-0.3 2.1,-0.8c1.4,-0.5 2.1,-0.6 2.2,-0.6l6.3,9.9c0,0.1 -0.2,0.2 -0.6,0.4c-0.6,0.2 -1,0.4 -1.2,0.5zm-5.5,-3.2l1.6,-0.6l-1.8,-3.1l-0.1,0l0.3,3.7z" fill="#FFFFFF"/>
  </g>
 </g>

</svg>