<?xml version="1.0" encoding="UTF-8" standalone="no"?>
<svg
   xmlns:dc="http://purl.org/dc/elements/1.1/"
   xmlns:cc="http://creativecommons.org/ns#"
   xmlns:rdf="http://www.w3.org/1999/02/22-rdf-syntax-ns#"
   xmlns:svg="http://www.w3.org/2000/svg"
   xmlns="http://www.w3.org/2000/svg"
   id="svg323"
   xml:space="preserve"
   enable-background="new 0 0 290.6 382.3"
   version="1.1"
   height="382.3"
   width="290.6"><metadata
     id="metadata329"><rdf:RDF><cc:Work
         rdf:about=""><dc:format>image/svg+xml</dc:format><dc:type
           rdf:resource="http://purl.org/dc/dcmitype/StillImage" /></cc:Work></rdf:RDF></metadata><defs
     id="defs327" /><g
     id="g321"><title
       id="title2">Layer 1</title><path
       id="svg_297"
       d="m93.9,215.3c0,0 -1.6,-1.9 -3,-5.2c-0.6,-1.4 -0.9,-5.2 -0.9,-5.2s-2.6,-3 -3.8,-6.9c-1.2,-3.8 -1.2,-7.2 -1.2,-7.2s-3.1,-2.3 -5.7,-5.9c-2.6,-3.6 -4.8,-12.1 -4.8,-12.1s-9.5,-1.9 -11.9,-11.5c-2.4,-9.5 4.1,-16.7 6.9,-17.8s10,-3.5 14.7,-8.9s13.5,-8.6 21.2,-7.3s10.8,-0.7 18.8,-3.4c8,-2.7 16,-1.4 20.9,-1.8c4.9,-0.3 10,2.3 16.3,2.5s9.7,3.2 15.2,3.1s12.7,-0.5 19.5,1.5c10.1,2.9 13,10 13,10s7.6,1.3 11.4,8.8c3.8,7.5 5.9,15.3 2.5,22.4c-2.9,6 -10.8,5.9 -11.9,6.8c-1.1,0.8 -2.6,8.1 -3.4,11.6c-1,4 -3,7.3 -3,7.3s8.2,-1.3 10.4,3s4.1,16.1 5.3,19.7c1.2,3.7 2.5,15.4 -3.5,21.8c-5.9,6.4 -15.9,9.3 -23.3,10.5s-13,1.5 -13,1.5s-2.3,7 -3.9,16.7c-2,12.2 -7.3,14.9 -10.3,19s-4.8,9.6 -7.9,16.8c-3.1,7.2 -6.6,16.4 -13.4,16.4c-6.8,0 -10.7,-9.7 -14.9,-16.2c-4.2,-6.4 -7.3,-17.5 -9.9,-20.1s-6.2,-10.8 -6.2,-10.8s-14.2,4.8 -25.5,4.7s-12.3,-7.8 -11.5,-12.1s7,-7.8 3.5,-14.3c-3.6,-6.5 -8.3,-13.5 -6.4,-20.9c1.5,-6.9 6.1,-11.8 19.7,-16.5z"
       fill="#FFFFFF" /><path
       id="svg_298"
       d="m141.7,326.7c-6.6,0 -10.9,-6.9 -14.8,-12.9c-0.5,-0.8 -1,-1.6 -1.5,-2.3c-2.2,-3.4 -4.1,-7.9 -5.8,-12c-1.6,-3.8 -3.1,-7.4 -4.3,-8.6c-2.3,-2.4 -5.3,-8.8 -6.2,-10.8c-2.9,0.9 -15.4,4.7 -25.7,4.7c-0.1,0 -0.1,0 -0.2,0c-4.8,0 -8.4,-1.4 -10.5,-4c-2.8,-3.3 -2.3,-7.6 -2,-9.3c0.3,-1.6 1.2,-3 2.2,-4.6c1.9,-2.9 3.7,-5.7 1.4,-9.7c-0.4,-0.8 -0.9,-1.6 -1.3,-2.4c-3.5,-6.2 -7.1,-12.7 -5.4,-19.7c2,-7.8 7.6,-12.6 20,-17c-0.6,-0.9 -1.7,-2.5 -2.6,-4.7c-0.5,-1.3 -0.9,-4.5 -0.9,-5.4c-0.6,-0.7 -2.8,-3.6 -3.9,-7.1c-1,-3.2 -1.2,-6.1 -1.2,-7.2c-1.2,-0.6 -4.6,-2.4 -6.8,-5.5c-2.3,-3.2 -3,-8.1 -3.1,-9.6c-1.8,-0.6 -7.9,-3.3 -10.1,-13.3c-1.8,-8.1 1.1,-15.1 8.8,-21c1,-0.7 2.4,-1.1 4.1,-1.5c3,-0.7 6.6,-1.6 9.6,-5.1c3.6,-4.1 11,-10.8 20.4,-9.3c1.7,0.3 3,0.5 4.3,0.8c4.6,0.9 6.9,1.4 13.2,-0.8c6.3,-2.1 13.8,-3.5 22.2,-4c2.7,-0.2 5,0.5 7.4,1.3c2.3,0.7 4.8,1.5 7.9,1.6c3.3,0.1 5.8,0.8 8.3,1.4c2.5,0.6 4.8,1.2 7.6,1.2c0.7,0 1.5,0 2.3,-0.1c5.7,-0.2 13.5,-0.4 19.7,1.4c9.2,2.7 12.3,6.9 13,8.1c1.6,0.4 8.3,2.2 11.9,9.4c3.6,7.2 2.8,14.4 -2.2,22.7c-3.4,5.5 -6.8,5 -8.6,4.8c-0.4,-0.1 -0.9,-0.1 -1,-0.1c-0.4,0.5 -0.6,4.4 -0.7,7.3c-0.1,3 -0.3,6.2 -0.7,7.9c-0.7,2.7 -1.8,5.1 -2.5,6.5c2.6,-0.2 8.1,-0.1 10,3.6c1.5,2.9 2.8,9.1 3.9,14c0.6,2.8 1.1,5.1 1.5,6.4c1.2,3.8 2.6,16.3 -3.7,23.1c-6.7,7.2 -18.1,10 -24.4,11c-6.6,1.1 -11.8,1.5 -13.1,1.6c-0.7,1 -3.5,5.2 -4.9,13.5c-1.6,9.8 -6.1,14.8 -9.4,18.4c-1,1.1 -1.8,2 -2.5,3c-1.5,2.2 -2.2,5.2 -2.9,8.7c-0.6,3 -1.3,6.5 -2.8,10c-3.1,7.7 -6.5,15.6 -14,15.6zm-32.2,-48.1c0.3,0 0.5,0.2 0.6,0.4c0,0.1 3.7,8.4 6.2,10.9c1.4,1.4 2.9,5 4.6,9s3.6,8.5 5.7,11.8c0.5,0.8 1,1.6 1.5,2.4c3.8,6 7.8,12.3 13.6,12.3c6.5,0 9.7,-7.5 12.8,-14.8c1.4,-3.4 2.1,-6.8 2.8,-9.7c0.8,-3.6 1.4,-6.8 3.1,-9.2c0.7,-1 1.6,-2 2.6,-3.1c3.3,-3.7 7.5,-8.3 9,-17.7c1.7,-10 5.2,-14.3 5.3,-14.4s0.3,-0.2 0.5,-0.2c0.1,0 5.8,-0.3 13.3,-1.6c6.1,-1 17.2,-3.7 23.6,-10.6c5.9,-6.4 4.6,-18.1 3.4,-21.7c-0.4,-1.4 -1,-3.8 -1.6,-6.6c-1.1,-4.9 -2.4,-10.9 -3.8,-13.7c-2,-3.9 -9.9,-2.7 -10,-2.7c-0.3,0 -0.5,-0.1 -0.7,-0.3s-0.2,-0.5 0,-0.8c0,0 2,-3.3 3,-7.3c0.4,-1.6 0.5,-4.6 0.6,-7.6c0.2,-5.5 0.4,-7.7 1.3,-8.3c0.5,-0.4 1.2,-0.3 2,-0.2c1.7,0.2 4.4,0.6 7.2,-4.1c4.8,-7.9 5.5,-14.7 2.2,-21.4c-3.7,-7.4 -11.1,-8.7 -11.2,-8.7c-0.2,0 -0.4,-0.2 -0.5,-0.4c0,0 -2.3,-4.8 -12.3,-7.6c-6,-1.7 -13.7,-1.5 -19.3,-1.4c-0.8,0 -1.6,0 -2.3,0.1c-3,0 -5.4,-0.6 -8,-1.2c-2.4,-0.6 -4.9,-1.3 -8,-1.4c-3.3,-0.1 -5.9,-0.9 -8.3,-1.7c-2.4,-0.8 -4.4,-1.4 -6.9,-1.2c-8.3,0.6 -15.7,1.9 -21.9,4c-6.7,2.3 -9.3,1.7 -14,0.8c-1.2,-0.2 -2.6,-0.5 -4.2,-0.8c-8.8,-1.4 -15.8,4.9 -19.2,8.9c-3.3,3.8 -7.4,4.8 -10.4,5.5c-1.5,0.4 -2.8,0.7 -3.5,1.2c-2.7,2 -10.9,8.2 -8.3,19.5c2.4,10.6 9.3,12.3 9.6,12.3c0.3,0.1 0.5,0.3 0.5,0.6c0,0.1 0.4,5.9 2.9,9.4s6.6,5.2 6.7,5.3c0.3,0.1 0.4,0.4 0.4,0.6c0,0 0,3.4 1.2,7.2s3.7,6.8 3.7,6.8c0.1,0.1 0.2,0.2 0.2,0.4c0.1,1.1 0.4,4.1 0.9,5.2c1.3,3.3 2.9,5.1 2.9,5.1c0.2,0.2 0.2,0.4 0.1,0.6s-0.2,0.4 -0.4,0.5c-14.5,5 -18.5,10.1 -20,16.3c-1.6,6.5 1.8,12.7 5.2,18.7c0.5,0.8 0.9,1.6 1.3,2.4c2.6,4.8 0.5,8.2 -1.5,11.2c-0.9,1.4 -1.8,2.7 -2,4.1c-0.2,1.2 -0.7,5.2 1.7,8.1c1.9,2.3 5.1,3.4 9.5,3.5c0.1,0 0.1,0 0.2,0c11.4,0 25.7,-4.8 25.9,-4.8c0.4,0.1 0.4,0.1 0.5,0.1z"
       fill="#FFFFFF" /><path
       id="svg_300"
       d="m77.8,146c-0.1,-0.1 -6.7,1.9 -7.4,5.5c-0.7,3.6 -1.3,9 0.9,11.8c2.2,2.8 3.9,3.8 6,4.3c2,0.5 3.8,2.1 3.8,2.1s0.8,-5.7 3.5,-7.2c2.6,-1.5 8.4,-1.6 14.4,-2.7c6.1,-1.1 7.8,-2.7 9.3,-3.4c1.5,-0.8 5.4,-3.1 9.2,-3.1c3.8,0 4.4,0.2 10.3,-1.8c5.9,-1.9 8.1,-4.1 13.3,-3.1s9.4,2.4 13,3s11,0.4 11,0.4s3.7,4.2 8.5,4.8s7.9,-0.2 11.2,-0.1c3.3,0 7.1,0 10,1.3s7.5,4 9.7,5.7c2.3,1.7 2.6,3 2.4,5.8c-0.1,2.8 6.3,0.3 6.3,0.3s4.4,-1.7 4.9,-5.4s-0.9,-7.2 -2.7,-11.3s-3.9,-6 -5.7,-6.6s-4,-0.5 -4,-0.5s-0.3,-2.5 -2.8,-5.2s-5.5,-3.6 -9.5,-4.5s-9.3,-2.2 -11.5,-2.5s-4.8,0.2 -5.2,0.6c-0.4,0.3 -1.1,0.9 -1.1,0.9s-1.4,-0.2 -2.2,-0.2s-5,-1.2 -8.5,-2.6c-3.5,-1.4 -5.4,-2.8 -8,-2.6s-5.4,0.8 -5.4,0.8s-0.8,-1.5 -4.7,-1.5c-3.8,0 -8,1.1 -9.6,1s-7.4,-0.7 -10.1,-0.2c-2.7,0.5 -7.5,3.6 -7.5,3.6s-2.8,1.2 -5,1.4s-5,0.6 -5,0.6s-5.4,-2.4 -10.9,-1.3c-5.5,1.1 -8.9,3.5 -8.9,3.5s-3.9,3.5 -5.2,5c-1.3,1.6 -2.3,2.5 -3.3,2.8c-0.7,0.4 -3.5,0.6 -3.5,0.6z"
       fill="#E89135" /><path
       id="svg_301"
       d="m143.8,312.4c-2.6,0 -6.8,-8 -10.9,-16.5c-0.8,-1.7 -1.5,-3 -1.8,-3.4c-1.2,-1.9 -2.9,-6 -3.5,-7.9c-0.4,-1.1 -1.3,-2.6 -2.5,-4.3c-0.7,-1.1 -1.6,-2.3 -2.6,-3.9c-2.4,-3.7 -4,-10.6 -4.7,-14.6c-0.1,-0.6 -0.2,-1.2 -0.3,-1.6c-0.2,-1.1 -0.9,-3.2 -2,-5.6c-1.6,-3.4 -3.5,-7.7 -4.1,-10.9c-0.2,-1 -0.6,-1.7 -0.7,-2.4c-0.4,-3.2 -0.6,-4.8 -5.5,-10.6c-3.9,-4.7 -5,-11.3 -6.1,-16.5c-0.6,-2.8 -1.2,-5.6 -2,-7c-1.9,-3.3 -2.2,-5.5 -2.2,-6.1c-0.6,-0.4 -3,-1.8 -4.1,-5.4c-1.1,-3.5 -0.4,-8.3 -0.2,-9.4c-0.9,-0.4 -3.9,-1.5 -6,-5.7c-3.3,-6.7 -4.2,-10.4 -2.9,-14c2.5,-6.5 8.3,-5.6 8.3,-5.5l0,0c0,0 3,0.3 9.8,-1.3c6.7,-1.5 9.3,-3.9 9.3,-3.9l0,0c0.2,-0.1 4,-2.7 11.6,-3c4.1,-0.2 7.7,-1.5 10.7,-2.7c2.5,-0.9 4.7,-1.8 6.7,-1.8c4.3,-0.1 5.4,0.2 11.7,2l1.6,0.5c7.5,2.1 13.6,0.9 13.7,0.8c0.1,0 0.3,0 0.3,0.1c0,0 2.9,3.8 9,4.7c3.2,0.5 5.3,0.3 7.5,0c2.1,-0.2 4.2,-0.5 7.3,0c6.5,0.8 9.1,2.6 13.9,5.8c5,3.3 4.2,7.1 3.3,9.7c-0.4,1.1 -0.9,1.7 -1.6,2.6c-0.8,1.2 -1.5,2.9 -1.6,4c-0.8,12.6 -14.2,35.3 -16.1,38.3c-1,1.6 -2,5.4 -2.2,8.4c-0.3,3.9 -2,13.3 -8.4,18.7c-2.2,1.9 -5,10.8 -6.1,18.3c-1.4,10.2 -6.3,17.1 -9.9,21.9c-1.1,1.5 -2,2.5 -2.8,3.8c-1,1.7 -2.8,5.5 -4,8.8c-2.7,7.8 -5.5,15.6 -9.9,15.6z"
       fill="#FFC250" /><path
       id="svg_302"
       d="m81.3,168.7c0,0 5.8,-1.5 9.5,2.8c3.6,4.3 2.8,8.2 2,9.8c-0.8,1.7 -3.6,4.3 -3.6,4.3s-8.4,-5.9 -7.9,-16.9z"
       fill="#FF6C65" /><path
       id="svg_303"
       d="m195.7,200.5c0,0 -3.7,-6.4 -11.7,-3.2c-8,3.3 -4.8,11.5 -4.8,11.5l1.8,3.8c0,0 7.1,0.5 7.2,0.5c0.1,0 2.1,-1.8 2.1,-1.8l5.4,-10.8z"
       fill="#FF6C65" /><path
       id="svg_304"
       d="m118.3,214c0,0 -5.3,-6.5 -12.1,-3.4c-6.9,3.1 -6.3,7 -6.3,7l0.9,1.7l17.5,-5.3z"
       fill="#FF6C65" /><path
       id="svg_305"
       d="m139.6,264.4c0,0 4.4,-2.6 9.8,1.4c5.3,4 3.6,8.3 2.7,11.2c-1,2.9 -5.2,6.3 -10,5.3s-7.8,-4.9 -8.1,-9c-0.5,-4.1 1.8,-7.3 5.6,-8.9z"
       fill="#FF6C65" /><path
       id="svg_306"
       d="m142.7,294.3c0,0 0.4,-0.8 0.6,-1.4c0.1,-0.6 0.5,-1.3 1.5,-1.2c1,0.1 1,0.8 0.9,1.4s0,1.7 0.6,1.9c0.6,0.2 2.3,0.6 2,2.6s-2.2,2.2 -3.9,2s-3.7,-0.7 -3.9,-2.4c-0.3,-1.5 0.7,-2.1 2.2,-2.9z"
       fill="#00B691" /><path
       id="svg_307"
       d="m161.5,245.4c0,0 -2.6,5.3 -9.3,4.5s-8.1,-6.1 -8.1,-6.1l17.6,1.6l-0.2,0z"
       fill="#FF6C65" /><path
       id="svg_308"
       d="m133.1,250.3c0,0 2,-1 2.5,-1.9s0.7,-3.9 -2.9,-4.1c-3.6,-0.2 -6.5,0.8 -5.9,3.3s2.9,0.9 3,2.8c0.2,1.9 -0.2,2.6 1.3,3c1.5,0.4 1.4,-2.1 1.4,-2.1l0.6,-1z"
       fill="#00B691" /><path
       id="svg_309"
       d="m102.5,175c0.1,0.1 0.8,0.8 1,0.8c0.1,0.1 0.9,-0.1 1.3,-0.4c0.5,-0.3 0.5,-1.1 0.5,-1.1s-1.1,-1.2 -1.1,-1.5s-0.6,-1.5 -0.2,-2.5s-0.7,-3.5 -2.8,-2.9c-2,0.6 -5,2.8 -5,4.7s0.8,3 2,3.5c1.3,0.3 2.6,-2.6 4.3,-0.6z"
       fill="#00B691" /><path
       id="svg_310"
       d="m181.6,170.6c0,0 -0.4,0.6 -0.1,1.3c0.3,0.6 0.4,1.1 1.6,1.1s1.1,-1 2.3,-0.1c1.1,0.8 1.2,2.2 3.6,1.2c2.4,-0.9 1.6,-3.6 1.3,-5c-0.3,-1.5 -1.7,-4 -3.8,-3.3s-2.4,1.3 -2.1,2.2c0.2,0.8 0,1.7 -0.9,2.3c-1.1,0.5 -1.6,0 -1.9,0.3z"
       fill="#00B691" /><path
       id="svg_311"
       d="m117.4,186.3c0,0 7.9,-9.3 27.2,-9.3s25.4,9.8 25.4,9.8s-10.7,11.6 -25.4,11.6c-14.7,0 -24.6,-7.5 -27.2,-12.1z"
       fill="#FFFFFF" /><path
       id="svg_359"
       d="m143.3,198.8c-16.9,0 -26.1,-11.9 -26.2,-12s-0.1,-0.3 0,-0.4c0.1,-0.1 9.1,-11 26.4,-11c17.9,0 26.6,10.8 26.7,11c0.1,0.1 0.1,0.3 0,0.4c-0.1,0 -8.6,12 -26.9,12zm-25.5,-12.2c1.3,1.6 10.2,11.6 25.5,11.6c16.6,0 25,-10 26.2,-11.6c-1.3,-1.4 -9.8,-10.5 -26,-10.5c-15.7,-0.1 -24.3,9 -25.7,10.5z" /><g
       id="svg_360"><path
         id="svg_361"
         d="m169.7,186.5c0,0 -8.5,-10.8 -26.4,-10.8c-17.3,0 -26.1,10.9 -26.1,10.9s12.6,-8.9 26.2,-8.9c13.6,-0.1 26.3,8.8 26.3,8.8z"
         fill="#FFC250" /><path
         id="svg_362"
         d="m117.1,186.9c-0.1,0 -0.2,0 -0.3,-0.1c-0.1,-0.1 -0.1,-0.3 0,-0.5c0.1,-0.1 9.1,-11 26.4,-11c17.9,0 26.6,10.8 26.7,11c0.1,0.1 0.1,0.3 0,0.4c-0.1,0.1 -0.3,0.1 -0.4,0c-0.1,-0.1 -12.8,-8.8 -26.1,-8.8c-13.4,0 -25.9,8.8 -26,8.9c-0.1,0.1 -0.2,0.1 -0.3,0.1zm26.2,-9.6c10.1,0 19.8,4.9 24.1,7.4c-3.4,-3.1 -11.4,-8.7 -24.2,-8.7c-12.2,0 -20.2,5.5 -23.7,8.7c4.4,-2.6 13.9,-7.4 23.8,-7.4z" /></g><path
       id="svg_363"
       d="m112.2,186.5l5,0c0,0 9.9,11.9 26.8,11.9s26.2,-12 26.2,-12l5.5,0.1c0,0 -6.4,24.2 -32.1,24.2s-31.4,-24.2 -31.4,-24.2z"
       fill="#FFC250" /><path
       id="svg_364"
       d="m109.1,194.2c2,-2.5 15.1,-18.6 34.2,-18.6c7.3,0 13.3,2.3 14.4,2.8c9.6,3.9 15.1,10.5 17.4,13.7c0.6,-2 4,-15.9 -4.4,-26.6c-8.1,-10.3 -21.3,-10.4 -28.4,-10.4c-7.1,0 -19.4,0 -27.7,9.5c-10.5,11.8 -5.9,28.2 -5.5,29.6z"
       fill="#FFC250" /><path
       id="svg_365"
       d="m90.6,272.1c-3.8,0 -6.2,-0.9 -7,-2.8c-1.5,-3.3 2.5,-8.3 5.2,-10.2c20.2,-14.3 32.8,-14.6 32.9,-14.6c0.2,0 0.3,0.2 0.3,0.3c0,0.2 -0.2,0.3 -0.3,0.3c-0.1,0 -12.5,0.3 -32.5,14.5c-2.5,1.7 -6.3,6.4 -5,9.3c0.9,2.1 4.9,3.9 18.5,0.6c5.4,-1.3 10.7,-2.7 15.7,-4.1c0.2,0 0.4,0 0.4,0.3c0,0.2 0,0.4 -0.3,0.4c-5,1.4 -10.3,2.8 -15.7,4.1c-4.9,1.3 -9,1.9 -12.2,1.9z" /><path
       id="svg_366"
       d="m117.2,186.9l0,0c-0.3,-0.1 -0.4,-0.3 -0.3,-0.4c0,-0.2 6.3,-17.2 26.7,-17.2s26.6,17 26.6,17.2s0,0.4 -0.2,0.4s-0.4,0 -0.4,-0.2s-6.1,-16.7 -26,-16.7s-26,16.5 -26.1,16.7c-0.1,0.1 -0.2,0.2 -0.3,0.2z" /><path
       id="svg_367"
       d="m117.2,179l0,0c-0.3,-0.1 -0.4,-0.3 -0.3,-0.5c0,-0.2 6.3,-15 26.7,-15s26.6,14.9 26.6,15c0.1,0.2 0,0.4 -0.2,0.5s-0.4,0 -0.5,-0.2c0,-0.1 -6.1,-14.6 -26,-14.6s-26,14.4 -26.1,14.6s-0.1,0.2 -0.2,0.2z" /><path
       id="svg_368"
       d="m116.9,175.2l0,0c-0.3,-0.1 -0.4,-0.3 -0.3,-0.5c0.1,-0.1 6.7,-13.7 27,-13.7c20.4,0 26.5,13.6 26.5,13.7c0.1,0.2 0,0.4 -0.2,0.5s-0.4,0 -0.5,-0.2c0,-0.1 -6,-13.3 -25.9,-13.3s-26.4,13.2 -26.5,13.3c0.2,0.1 0.1,0.2 -0.1,0.2z" /><path
       id="svg_369"
       d="m143.5,202.4c-8.3,0 -15.2,-2.2 -20.5,-6.6c-0.2,-0.1 -0.2,-0.3 0,-0.5c0.1,-0.2 0.3,-0.2 0.5,0c5.2,4.2 12,6.4 20.1,6.4s14.8,-2.2 20.1,-6.4c0.1,-0.1 0.4,-0.1 0.5,0s0.1,0.4 0,0.5c-5.5,4.4 -12.4,6.6 -20.7,6.6z" /><path
       id="svg_370"
       d="m143.5,204.5c-6,0 -11.3,-1.2 -15.8,-3.5c-0.2,-0.1 -0.3,-0.3 -0.2,-0.5s0.3,-0.3 0.5,-0.2c4.4,2.3 9.6,3.4 15.5,3.4s11.2,-1.2 15.6,-3.5c0.2,-0.1 0.4,0 0.5,0.1c0.1,0.2 0,0.4 -0.1,0.5c-4.6,2.5 -9.9,3.7 -16,3.7z" /><path
       id="svg_371"
       d="m143.5,206.7c-3.6,0 -6.9,-0.4 -9.9,-1.2c-0.2,0 -0.3,-0.3 -0.3,-0.4c0,-0.2 0.3,-0.3 0.4,-0.3c3,0.8 6.3,1.2 9.8,1.2c3.4,0 6.7,-0.4 9.6,-1.2c0.2,0 0.4,0 0.4,0.3c0,0.2 0,0.4 -0.3,0.4c-2.9,0.8 -6.3,1.2 -9.7,1.2z" /><path
       id="svg_372"
       d="m169.8,186.9c-0.1,0 -0.2,0 -0.3,-0.1s-8.5,-10.8 -25.9,-10.8s-26.2,10.7 -26.2,10.7c-0.1,0.2 -0.3,0.2 -0.5,0c-0.2,-0.1 -0.2,-0.3 0,-0.5c0.1,-0.1 9.1,-11 26.8,-11s26.3,11 26.4,11.1c0.1,0.2 0.1,0.4 -0.1,0.5c0,0.1 -0.1,0.1 -0.2,0.1z" /><path
       id="svg_373"
       d="m143.5,198.6c-17.8,0 -26.5,-11.8 -26.6,-11.9c-0.1,-0.2 -0.1,-0.4 0.1,-0.5s0.4,-0.1 0.5,0.1c0.1,0.1 8.7,11.6 26.1,11.6s26,-11.5 26.1,-11.6c0.1,-0.2 0.3,-0.2 0.5,-0.1c0.2,0.1 0.2,0.3 0.1,0.5c-0.3,0.2 -9,11.9 -26.8,11.9z" /><path
       id="svg_374"
       d="m143.8,313c-2.6,0 -7.2,-9 -11.4,-17.5c-0.8,-1.7 -1.5,-3 -1.7,-3.3c-1.2,-1.9 -3,-6.3 -3.6,-8.1c-0.4,-1.1 -1.2,-2.3 -2.4,-4c-0.7,-1.1 -1.7,-2.3 -2.7,-3.9c-2.4,-3.7 -3.6,-11 -4.3,-14.9c-0.1,-0.6 -0.2,-1.2 -0.3,-1.6c-0.2,-1.1 -1.2,-3.1 -2.3,-5.5c-1.6,-3.4 -3.5,-7.6 -4.1,-10.7c-0.2,-1 -0.3,-1.9 -0.4,-2.6c-0.4,-3.2 -0.6,-4.8 -5.5,-10.6c-3.9,-4.7 -5.3,-11.2 -6.5,-16.4c-0.6,-2.8 -1.1,-5.2 -1.9,-6.6c-1.9,-3.3 -2.3,-5.6 -2.3,-6.3c-0.6,-0.4 -2.8,-2.2 -3.9,-5.8c-1.1,-3.5 -0.6,-7.7 -0.4,-8.8c-0.9,-0.4 -3.9,-1.8 -6,-6.1c-3.3,-6.7 -4.1,-10.7 -2.7,-14.2c2.5,-6.5 8.3,-5.6 8.3,-5.5l0,0c0,0 3,0.3 9.8,-1.3c6.7,-1.5 9.4,-3.9 9.4,-3.9l0,0c0.2,-0.1 4,-2.7 11.6,-3c4.2,-0.2 7.7,-1.5 10.7,-2.7c2.5,-0.9 4.7,-1.8 6.7,-1.8c4.3,-0.1 5.4,0.2 11.7,2l1.6,0.5c7.6,2.1 13.7,0.9 13.7,0.8c0.1,0 0.3,0 0.3,0.1c0,0 2.9,3.8 9,4.7c3.2,0.5 5.3,0.3 7.5,0c2.1,-0.2 4.2,-0.5 7.3,0c6.5,0.8 9.1,2.6 13.9,5.8c5.1,3.3 4.5,7.2 3.6,9.8c-0.4,1.1 -1.1,2.1 -1.7,3.1c-0.8,1.2 -1.6,2.3 -1.7,3.4c-0.8,12.6 -13.9,35.3 -15.8,38.3c-1,1.6 -2.3,5.4 -2.5,8.4c-0.3,3.9 -1.7,13.6 -8.1,19.1c-2.2,1.9 -5.1,11.7 -6.1,19.2c-1.4,10.2 -6.5,16.7 -10.2,21.5c-1.1,1.5 -2.2,2.8 -2.9,4c-1,1.7 -2.2,4.7 -3.4,8c-2.7,7.8 -5.9,16.4 -10.3,16.4zm-54.9,-151.8c-1.6,0 -5,0.6 -6.8,5.2c-1.3,3.3 -0.6,7.2 2.6,13.7c2.3,4.7 5.8,5.8 5.9,5.8c0.2,0 0.3,0.2 0.3,0.4c0,0 -0.9,4.9 0.3,8.7c1.2,3.8 3.7,5.5 3.7,5.5c0.1,0 0.2,0.2 0.2,0.3c0,0 0.1,2.4 2.2,6.1c0.8,1.4 1.4,3.9 2,6.8c1.1,5.1 2.5,11.5 6.3,16.1c5,6 5.2,7.6 5.6,11c0.1,0.8 0.2,1.6 0.4,2.6c0.6,3.1 2.5,7.2 4.1,10.6c1.1,2.4 2.1,4.5 2.3,5.7c0.1,0.4 0.2,0.9 0.3,1.6c0.6,3.6 1.9,11.1 4.2,14.6c1,1.6 1.9,2.9 2.7,3.9c1.2,1.8 2.1,2.9 2.5,4.2c0.6,1.8 2.3,6.2 3.5,8c0.3,0.4 0.9,1.7 1.8,3.4c2.5,5.1 8.4,17.1 10.7,17.1c4,0 7.2,-8.8 9.8,-15.8c1.3,-3.5 2.4,-6.5 3.5,-8.2c0.8,-1.3 1.8,-2.5 3,-4.1c3.6,-4.7 8.6,-11.2 10.1,-21.2c1.1,-7.7 4,-17.6 6.4,-19.6c6.2,-5.3 7.6,-14.8 7.9,-18.6c0.3,-3.2 1.6,-7.1 2.7,-8.7c1.9,-3 14.9,-25.6 15.7,-38c0.1,-1.3 0.9,-2.5 1.8,-3.8c0.6,-0.9 1.3,-1.9 1.7,-2.9c0.9,-2.6 1.3,-5.9 -3.3,-9c-4.9,-3.2 -7.3,-4.8 -13.7,-5.7c-3,-0.4 -5.1,-0.2 -7.2,0c-2.2,0.2 -4.4,0.5 -7.7,0c-5.7,-0.9 -8.7,-4 -9.3,-4.8c-1.1,0.2 -6.9,1.1 -13.8,-0.9l-1.6,-0.5c-6.2,-1.7 -7.3,-2.1 -11.5,-1.9c-1.9,0 -4.1,0.8 -6.5,1.8c-3.1,1.2 -6.7,2.5 -11,2.7c-7.1,0.3 -11,2.7 -11.2,2.8c-0.3,0.3 -3,2.5 -9.6,4c-6.9,1.6 -9.9,1.3 -10,1.3c-0.3,-0.1 -0.6,-0.2 -1,-0.2z" /><path
       id="svg_375"
       d="m89.7,161.3c-1,0 -3.2,-0.2 -6.5,-1.3c-0.2,0 -0.3,-0.3 -0.2,-0.4c0,-0.2 0.3,-0.3 0.4,-0.2c4.3,1.5 6.7,1.2 6.7,1.2c0.2,0 0.4,0.1 0.4,0.3s-0.1,0.4 -0.3,0.4c0,0 -0.1,0 -0.5,0z" /><path
       id="svg_376"
       d="m93.4,161.1c-0.3,0 -3,0 -7.3,-1.5c-0.2,0 -0.3,-0.3 -0.2,-0.4c0,-0.2 0.3,-0.3 0.4,-0.2c4.3,1.5 7,1.5 7.1,1.5l0,0c0.2,0 0.3,0.2 0.3,0.3c0.1,0.2 0,0.3 -0.3,0.3c0.1,0 0.1,0 0,0z" /><path
       id="svg_377"
       d="m95.9,160.7c-0.8,0 -3.6,-0.1 -7.2,-1.7c-0.2,-0.1 -0.3,-0.3 -0.2,-0.5c0.1,-0.2 0.3,-0.3 0.5,-0.2c4,1.7 7,1.6 7.1,1.6c0.2,0 0.3,0.1 0.4,0.3c0,0.2 -0.1,0.3 -0.3,0.4c-0.1,0.1 -0.1,0.1 -0.3,0.1z" /><path
       id="svg_378"
       d="m98.4,160.3c-0.6,0 -3.6,-0.1 -7.4,-1.7c-0.2,-0.1 -0.3,-0.3 -0.2,-0.5c0.1,-0.2 0.3,-0.3 0.5,-0.2c4,1.7 7.2,1.7 7.2,1.7c0.2,0 0.3,0.1 0.3,0.3s-0.1,0.3 -0.4,0.4c0.1,0 0.1,0 0,0z" /><path
       id="svg_379"
       d="m100.3,159.9l0,0c-0.1,0 -2.7,0 -6.8,-1.8c-0.2,-0.1 -0.3,-0.3 -0.2,-0.5c0.1,-0.2 0.3,-0.3 0.5,-0.2c4,1.7 6.5,1.8 6.5,1.8c0.2,0 0.3,0.2 0.3,0.3c0,0.2 -0.1,0.4 -0.3,0.4z" /><path
       id="svg_380"
       d="m102.3,159.3l0,0c-0.1,0 -2.6,-0.2 -6.7,-2c-0.2,-0.1 -0.3,-0.3 -0.2,-0.5c0.1,-0.2 0.3,-0.3 0.5,-0.2c4,1.7 6.5,1.9 6.5,1.9c0.2,0 0.3,0.2 0.3,0.4c0,0.3 -0.2,0.4 -0.4,0.4z" /><path
       id="svg_381"
       d="m103.5,158.5c-1.3,0 -3.3,-0.3 -5.5,-1.7c-0.2,-0.1 -0.2,-0.3 -0.1,-0.5s0.3,-0.2 0.5,-0.1c3.7,2.3 6.6,1.4 6.6,1.4c0.2,0 0.4,0 0.4,0.2s0,0.4 -0.2,0.4c-0.1,0.2 -0.7,0.3 -1.7,0.3z" /><path
       id="svg_382"
       d="m165.1,152c-0.1,0 -0.2,0 -0.3,-0.1c0,0 -1,-1.1 -1.8,-3c-0.1,-0.2 0,-0.4 0.2,-0.5s0.4,0 0.5,0.2c0.7,1.7 1.7,2.8 1.7,2.8c0.1,0.1 0.1,0.4 0,0.5c-0.1,0 -0.2,0.1 -0.3,0.1z" /><path
       id="svg_383"
       d="m163.6,152.2c-0.1,0 -0.2,0 -0.3,-0.1c0,0 -1,-1.1 -1.8,-3c-0.1,-0.2 0,-0.4 0.2,-0.5s0.4,0 0.5,0.2c0.7,1.7 1.7,2.8 1.7,2.8c0.1,0.1 0.1,0.4 0,0.5c-0.1,0.1 -0.2,0.1 -0.3,0.1z" /><path
       id="svg_384"
       d="m161.9,152.3c-0.1,0 -0.2,0 -0.3,-0.1c0,0 -0.8,-1 -1.6,-2.8c-0.1,-0.2 0,-0.4 0.2,-0.5s0.4,0 0.5,0.2c0.7,1.7 1.5,2.6 1.5,2.6c0.1,0.1 0.1,0.4 0,0.5c-0.1,0 -0.2,0.1 -0.3,0.1z" /><path
       id="svg_385"
       d="m160.3,152.3c-0.1,0 -0.2,0 -0.3,-0.1c0,0 -0.8,-0.8 -1.5,-2.7c-0.1,-0.2 0,-0.4 0.2,-0.5s0.4,0 0.5,0.2c0.7,1.7 1.4,2.5 1.4,2.5c0.1,0.1 0.1,0.4 0,0.5c-0.2,0.1 -0.2,0.1 -0.3,0.1z" /><path
       id="svg_386"
       d="m158.5,152.3c-0.1,0 -0.2,0 -0.3,-0.2c-0.3,-0.5 -0.8,-1.3 -1.3,-2.4c-0.1,-0.2 0,-0.4 0.2,-0.5s0.4,0 0.5,0.2c0.4,1 0.9,1.8 1.2,2.2c0.1,0.2 0.1,0.4 -0.1,0.5c0,0.2 -0.1,0.2 -0.2,0.2z" /><path
       id="svg_387"
       d="m156.8,152.2c-0.1,0 -0.2,0 -0.3,-0.2c-0.4,-0.6 -0.8,-1.3 -1.1,-2c-0.1,-0.2 0,-0.4 0.2,-0.5s0.4,0 0.5,0.2c0.3,0.7 0.6,1.3 1,1.9c0.1,0.2 0,0.4 -0.1,0.5c-0.1,0 -0.2,0.1 -0.2,0.1z" /><path
       id="svg_388"
       d="m154.8,151.9c-0.1,0 -0.2,0 -0.3,-0.2c0,0 -0.5,-0.8 -0.7,-1.6c0,-0.2 0,-0.4 0.3,-0.4c0.2,0 0.4,0 0.4,0.3c0.2,0.7 0.6,1.4 0.6,1.4c0.1,0.2 0,0.4 -0.1,0.5c0,0 -0.1,0 -0.2,0z" /><path
       id="svg_389"
       d="m152.7,151.2c0,0 -0.3,-0.5 -0.4,-0.8c-0.1,-0.2 0,-0.4 0.2,-0.5s0.4,0 0.5,0.2c0.1,0.3 0.3,0.8 0.3,0.8l-0.6,0.3z" /><path
       id="svg_390"
       d="m198.8,159.2c-0.5,0 -0.9,0 -1.4,-0.1c-0.2,0 -0.3,-0.2 -0.3,-0.4s0.2,-0.3 0.4,-0.3c6.9,0.6 8,-3.5 8,-3.6c0,-0.2 0.3,-0.3 0.4,-0.3c0.2,0 0.3,0.3 0.3,0.4c-0.1,0.2 -1.3,4.3 -7.4,4.3z" /><path
       id="svg_391"
       d="m199.6,160.3c-0.2,0 -0.3,-0.2 -0.3,-0.3c0,-0.2 0.1,-0.3 0.3,-0.3c6.8,-0.1 7.3,-4.2 7.3,-4.4s0.2,-0.3 0.4,-0.3s0.3,0.2 0.3,0.4c0,0 -0.5,4.8 -8,4.9l0,0z" /><path
       id="svg_392"
       d="m201,161.3c-0.2,0 -0.3,-0.2 -0.3,-0.3c0,-0.2 0.1,-0.3 0.3,-0.3c6.8,-0.1 7.3,-4.2 7.3,-4.4s0.2,-0.3 0.4,-0.3s0.3,0.2 0.3,0.4c0,-0.1 -0.5,4.7 -8,4.9l0,0z" /><path
       id="svg_393"
       d="m202.4,162.2c-0.2,0 -0.3,-0.2 -0.3,-0.3c0,-0.2 0.1,-0.3 0.3,-0.3c6.8,-0.1 7.3,-4.2 7.3,-4.4s0.2,-0.3 0.4,-0.3s0.3,0.2 0.3,0.4c0,0 -0.5,4.7 -8,4.9l0,0z" /><path
       id="svg_394"
       d="m203.9,163.1c-0.2,0 -0.3,-0.2 -0.3,-0.3c0,-0.2 0.1,-0.3 0.3,-0.3c6.8,-0.1 7.3,-4.2 7.3,-4.4s0.2,-0.3 0.4,-0.3s0.3,0.2 0.3,0.4c0,0 -0.6,4.8 -8,4.9l0,0z" /><path
       id="svg_395"
       d="m205.2,164.2c-0.2,0 -0.3,-0.2 -0.3,-0.3c0,-0.2 0.1,-0.3 0.3,-0.3c6.8,-0.1 7.3,-4.2 7.3,-4.4s0.2,-0.3 0.4,-0.3s0.3,0.2 0.3,0.4c0,0 -0.6,4.8 -8,4.9l0,0z" /><path
       id="svg_396"
       d="m206.1,165.5c-0.2,0 -0.3,-0.1 -0.3,-0.3s0.1,-0.3 0.3,-0.3c6.6,-0.2 7.6,-4.2 7.6,-4.3c0,-0.2 0.2,-0.3 0.4,-0.3s0.3,0.2 0.3,0.4c-0.1,0.2 -1.1,4.6 -8.3,4.8l0,0z" /><path
       id="svg_397"
       d="m206.7,166.7c-0.2,0 -0.3,-0.1 -0.3,-0.3s0.1,-0.3 0.3,-0.3c6.6,-0.2 7.8,-4.2 7.8,-4.3c0,-0.2 0.3,-0.3 0.4,-0.3c0.2,0 0.3,0.3 0.3,0.4c-0.1,0.2 -1.3,4.6 -8.5,4.8l0,0z" /><path
       id="svg_398"
       d="m207,168.1c-0.2,0 -0.3,-0.2 -0.3,-0.3c0,-0.2 0.1,-0.3 0.3,-0.3c6.9,-0.1 8.2,-4 8.2,-4.1c0,-0.2 0.3,-0.3 0.4,-0.2c0.2,0 0.3,0.3 0.2,0.4c0,0.2 -1.3,4.4 -8.8,4.5c0.1,0 0,0 0,0z" /><path
       id="svg_399"
       d="m207.2,169.5c-0.2,0 -0.3,-0.2 -0.3,-0.3c0,-0.2 0.1,-0.3 0.3,-0.3c6.9,-0.1 8.7,-3.7 8.7,-3.7c0.1,-0.2 0.3,-0.3 0.5,-0.2s0.3,0.3 0.2,0.5c-0.1,0.1 -2,3.9 -9.4,4l0,0z" /><path
       id="svg_400"
       d="m207.5,170.8c-0.4,0 -0.7,0 -0.8,0c-0.2,0 -0.3,-0.2 -0.3,-0.4s0.2,-0.3 0.4,-0.3c0.1,0 7.5,0.4 10.2,-4c2.1,-3.5 0.9,-8.9 -3.6,-16.2c-2.9,-4.8 -9,-4.2 -14.6,-3c-0.2,0 -0.4,-0.1 -0.4,-0.3s0.1,-0.4 0.3,-0.4c5.8,-1.2 12.1,-1.8 15.3,3.4c4.6,7.5 5.8,13.2 3.6,16.9c-2.4,3.9 -8,4.3 -10.1,4.3z" /><path
       id="svg_401"
       d="m205.7,145.8c-0.2,0 -0.3,0.2 -0.3,0c0,-0.1 -2.3,-8 -11.9,-9.4c-2.4,-0.3 -4.7,-0.9 -6.8,-1.4c-6.4,-1.6 -10.7,-2.6 -13.4,3.6c-0.1,0.2 -0.3,0.3 -0.5,0.2s-0.3,-0.3 -0.2,-0.5c2.9,-6.7 7.9,-5.5 14.1,-4c2,0.5 4.3,1.1 6.7,1.4c9.9,1.4 12.4,9.8 12.4,9.9c0.3,0.2 0.1,0.1 -0.1,0.2l0,0z" /><path
       id="svg_402"
       d="m173.9,135.2c-1.4,0 -3.5,-0.3 -6.3,-1.4c-1.8,-0.7 -3,-1.3 -4.1,-1.8c-2.2,-1.1 -3.5,-1.7 -7.2,-1.8c-3.2,-0.1 -5.2,0.8 -7.2,1.9c-1.4,0.7 -2.8,1.4 -4.6,1.8c-4.4,0.9 -8.5,-0.5 -8.7,-0.5s-0.3,-0.3 -0.2,-0.4c0,-0.2 0.3,-0.3 0.4,-0.2c0,0 4.1,1.3 8.3,0.5c1.7,-0.3 3,-1 4.4,-1.7c2.1,-1 4.2,-2.1 7.6,-2c3.8,0.1 5.2,0.8 7.4,1.9c1,0.5 2.2,1.1 4,1.8c5.4,2.1 8,1.1 8.1,1.1c0.2,-0.1 0.4,0 0.5,0.2s0,0.4 -0.2,0.5c0,-0.2 -0.8,0.1 -2.2,0.1z" /><path
       id="svg_403"
       d="m110.2,135.6c-0.2,0 -0.3,-0.1 -0.3,-0.3s0.1,-0.4 0.3,-0.4c1.5,-0.4 2.6,-0.5 3.6,-0.6c1.9,-0.1 3.3,-0.3 6.5,-2.1c5.9,-3.4 9.1,-3.2 12.7,-3c2.1,0.1 4.5,0.2 7.7,-0.3c8.9,-1.5 11.5,1.1 11.6,1.3c0.1,0.1 0.1,0.3 0,0.5c-0.1,0.1 -0.3,0.1 -0.5,0c0,0 -2.5,-2.5 -10.9,-1.1c-3.3,0.6 -5.7,0.4 -7.9,0.3c-3.7,-0.2 -6.6,-0.3 -12.4,2.9c-3.3,1.9 -5,2 -6.8,2.2c-1.1,0.2 -2.1,0.3 -3.6,0.6l0,0z" /><path
       id="svg_404"
       d="m80.9,170c-0.1,0 -0.2,0 -0.2,-0.1c-1.2,-1.1 -2.7,-1.7 -4.1,-2.3c-3.4,-1.4 -6.9,-2.9 -7.2,-10.4c-0.4,-7.4 3.6,-11.5 11.6,-11.9c1.5,-0.1 2.7,-1.5 4.2,-3.3c0.3,-0.3 0.5,-0.6 0.7,-0.8c1.7,-2 3.8,-4.1 6.9,-5.4c10.7,-4.6 17.1,-1.3 22.1,1.4c0.7,0.4 1.4,0.7 2,1.1c7.5,3.6 10.4,-0.6 10.4,-0.6c0.1,-0.2 0.3,-0.2 0.5,-0.1c0.2,0.1 0.2,0.3 0.1,0.5c0,0 -3.3,4.8 -11.3,0.8c-0.7,-0.3 -1.4,-0.7 -2,-1.1c-5,-2.6 -11.1,-5.9 -21.5,-1.4c-3,1.3 -5,3.3 -6.7,5.2c-0.3,0.3 -0.5,0.6 -0.7,0.8c-1.6,1.9 -2.9,3.4 -4.7,3.5c-2.8,0.2 -11.4,0.7 -11,11.2c0.3,7 3.5,8.4 6.8,9.8c1.5,0.6 3,1.3 4.3,2.4c0.1,0.1 0.2,0.3 0,0.5c0,0.1 -0.1,0.2 -0.2,0.2z" /><path
       id="svg_405"
       d="m81.2,168.6c-0.1,0 -0.2,0 -0.2,-0.1c-1.2,-1.1 -2.5,-1.7 -3.8,-2.2c-3,-1.3 -5.9,-2.5 -6.2,-10c-0.1,-3.3 0.7,-5.9 2.5,-7.9c2.8,-3 7,-3.2 7.2,-3.2s0.3,0.1 0.3,0.3s-0.1,0.3 -0.3,0.3c0,0 -4.1,0.2 -6.7,3c-1.7,1.8 -2.5,4.3 -2.3,7.4c0.3,7.1 2.8,8.2 5.8,9.4c1.3,0.6 2.7,1.1 4,2.3c0.1,0.1 0.2,0.3 0,0.5c-0.1,0.2 -0.2,0.2 -0.3,0.2z" /><path
       id="svg_406"
       d="m81.7,166.9c-0.1,0 -0.2,0 -0.2,-0.1c-1.2,-1.1 -2.4,-1.6 -3.6,-2c-2.8,-1.1 -5.2,-2.2 -5.2,-10c0,-9.4 9.7,-9.7 9.8,-9.7l0,0c0.2,0 0.3,0.2 0.3,0.3c0,0.2 -0.1,0.3 -0.3,0.3c-0.4,0 -9.1,0.3 -9.1,9c0,7.4 2.1,8.3 4.7,9.4c1.2,0.5 2.5,1 3.8,2.2c0.1,0.1 0.2,0.3 0,0.5c-0.1,0.1 -0.1,0.1 -0.2,0.1z" /><path
       id="svg_407"
       d="m78.6,146.2c-0.2,0 -0.3,-0.1 -0.3,-0.3s0.1,-0.4 0.3,-0.4c0,0 5.2,-0.6 10.1,-0.9c5,-0.3 8.8,-2.6 9.8,-3.5c0.1,-0.1 0.4,-0.1 0.5,0s0.1,0.4 0,0.5c-1.5,1.4 -5.5,3.4 -10.2,3.7c-5,0.2 -10.1,0.9 -10.2,0.9l0,0z" /><path
       id="svg_408"
       d="m107.4,157.2c-0.1,0 -0.2,0 -0.3,-0.1c-0.1,-0.2 -0.1,-0.4 0,-0.5c0,0 4.7,-3.7 8.2,-6.4c3.9,-3 8.3,-3.3 8.5,-3.3s0.3,0.1 0.4,0.3c0,0.2 -0.1,0.3 -0.3,0.4c0,0 -4.4,0.3 -8.2,3.2c-3.5,2.7 -8.1,6.3 -8.3,6.4c0.2,0 0.1,0 0,0z" /><path
       id="svg_409"
       d="m108,156.9c-0.1,0 -0.2,0 -0.3,-0.2c-0.1,-0.2 0,-0.4 0.1,-0.5c0,0 4.2,-2.5 8.3,-5c4.3,-2.6 8.1,-2.8 8.2,-2.8c0.2,0 0.3,0.1 0.4,0.3c0,0.2 -0.1,0.3 -0.3,0.4c0,0 -3.8,0.2 -7.9,2.7c-4,2.4 -8.3,5 -8.3,5c0,0 -0.1,0.1 -0.2,0.1z" /><path
       id="svg_410"
       d="m112,154.5c-0.1,0 -0.3,-0.1 -0.3,-0.3s0,-0.4 0.2,-0.4c0,0 2.2,-0.7 6.1,-2.2s6.4,-1.7 6.5,-1.7c0.2,0 0.3,0.1 0.4,0.3c0,0.2 -0.1,0.3 -0.3,0.4c0,0 -2.5,0.2 -6.3,1.7c-3.9,1.4 -6.2,2.2 -6.3,2.2c0.1,0 0.1,0 0,0z" /><path
       id="svg_411"
       d="m171.5,138.7c0,0 -0.1,0 0,0c-0.3,0 -0.4,-0.3 -0.3,-0.4c0.6,-1.9 1.6,-3 2,-3.4l0.1,-0.1c0.1,-0.2 0.3,-0.2 0.5,-0.2c0.2,0.1 0.3,0.3 0.2,0.5c0,0.1 -0.1,0.2 -0.3,0.3c-0.4,0.4 -1.3,1.4 -1.9,3.2c0,0 -0.1,0.1 -0.3,0.1z" /><path
       id="svg_412"
       d="m169.9,138.6c0,0 -0.1,0 0,0c-0.3,0 -0.4,-0.3 -0.3,-0.4c0.6,-1.9 1.6,-3 2,-3.4l0.1,-0.1c0.1,-0.2 0.3,-0.2 0.5,-0.2c0.2,0.1 0.3,0.3 0.2,0.5c0,0.1 -0.1,0.2 -0.3,0.3c-0.4,0.4 -1.3,1.4 -1.9,3.2c0,0 -0.2,0.1 -0.3,0.1z" /><path
       id="svg_413"
       d="m168.1,138.3l0,0c-0.3,0 -0.4,-0.3 -0.3,-0.4c0.6,-1.9 1.6,-3 2,-3.4l0.1,-0.1c0.1,-0.2 0.3,-0.2 0.5,-0.2c0.2,0.1 0.3,0.3 0.2,0.5c0,0.1 -0.1,0.2 -0.3,0.3c-0.4,0.4 -1.3,1.4 -1.9,3.2c0,0 -0.1,0.1 -0.3,0.1z" /><path
       id="svg_414"
       d="m166.5,137.7c0,0 -0.1,0 0,0c-0.3,0 -0.4,-0.3 -0.3,-0.4c0.6,-1.9 1.6,-3 2,-3.4l0.1,-0.1c0.1,-0.2 0.3,-0.2 0.5,-0.2c0.2,0.1 0.3,0.3 0.2,0.5c0,0.1 -0.1,0.2 -0.3,0.3c-0.4,0.4 -1.3,1.4 -1.9,3.2c0,0.1 -0.1,0.1 -0.3,0.1z" /><path
       id="svg_415"
       d="m165,137.3c-0.1,0 -0.1,0 0,0c-0.3,0 -0.4,-0.3 -0.3,-0.4c0.6,-1.9 1.6,-3 2,-3.4c0,-0.1 0.1,-0.1 0.1,-0.1c0.1,-0.2 0.3,-0.2 0.5,-0.2c0.2,0.1 0.3,0.3 0.2,0.5c0,0.1 -0.1,0.2 -0.3,0.3c-0.4,0.4 -1.3,1.4 -1.9,3.2c0,0 -0.2,0.1 -0.3,0.1z" /><path
       id="svg_416"
       d="m163.7,136.6c-0.1,0 -0.1,0 0,0c-0.3,0 -0.4,-0.3 -0.3,-0.4c0.6,-1.9 1.6,-3 2,-3.4l0.1,-0.1c0.1,-0.2 0.3,-0.2 0.5,-0.2c0.2,0.1 0.3,0.3 0.2,0.5c0,0.1 -0.1,0.2 -0.3,0.3c-0.4,0.4 -1.3,1.4 -1.9,3.2c-0.1,0 -0.2,0.1 -0.3,0.1z" /><path
       id="svg_417"
       d="m162.2,135.9c-0.1,0 -0.1,0 0,0c-0.3,0 -0.4,-0.3 -0.3,-0.4c0.6,-1.9 1.6,-3 2,-3.4l0.1,-0.1c0.1,-0.2 0.3,-0.2 0.5,-0.2c0.2,0.1 0.3,0.3 0.2,0.5c0,0.1 -0.1,0.2 -0.3,0.3c-0.4,0.4 -1.3,1.4 -1.9,3.2c-0.1,0 -0.2,0.1 -0.3,0.1z" /><path
       id="svg_418"
       d="m160.6,135.3l0,0c-0.3,0 -0.4,-0.3 -0.3,-0.4c0.6,-1.9 1.6,-3 2,-3.4l0.1,-0.1c0.1,-0.2 0.3,-0.2 0.5,-0.2c0.2,0.1 0.3,0.3 0.2,0.5c0,0.1 -0.1,0.2 -0.3,0.3c-0.4,0.4 -1.3,1.4 -1.9,3.2c0,0 -0.1,0.1 -0.3,0.1z" /><path
       id="svg_419"
       d="m159.2,134.7c-0.1,0 -0.1,0 0,0c-0.3,0 -0.4,-0.3 -0.3,-0.4c0.6,-1.9 1.6,-3 2,-3.4c0,-0.1 0.1,-0.1 0.1,-0.1c0.1,-0.2 0.3,-0.2 0.5,-0.2c0.2,0.1 0.3,0.3 0.2,0.5c0,0.1 -0.1,0.2 -0.3,0.3c-0.4,0.4 -1.3,1.4 -1.9,3.2c-0.1,0 -0.2,0.1 -0.3,0.1z" /><path
       id="svg_420"
       d="m157.6,134.2c0,0 -0.1,0 0,0c-0.3,0 -0.4,-0.3 -0.3,-0.4c0.6,-1.9 1.6,-3 2,-3.4l0.1,-0.1c0.1,-0.2 0.3,-0.2 0.5,-0.2c0.2,0.1 0.3,0.3 0.2,0.5c0,0.1 -0.1,0.2 -0.3,0.3c-0.4,0.4 -1.3,1.4 -1.9,3.2c0,0 -0.2,0.1 -0.3,0.1z" /><path
       id="svg_421"
       d="m155.7,133.9c-0.1,0 -0.1,0 0,0c-0.3,0 -0.4,-0.3 -0.3,-0.4c0.6,-1.9 1.6,-3 2,-3.4l0.1,-0.1c0.1,-0.2 0.3,-0.2 0.5,-0.2c0.2,0.1 0.3,0.3 0.2,0.5c0,0.1 -0.1,0.2 -0.3,0.3c-0.4,0.4 -1.3,1.4 -1.9,3.2c-0.1,0 -0.2,0.1 -0.3,0.1z" /><path
       id="svg_422"
       d="m153.9,133.8c0,0 -0.1,0 0,0c-0.3,0 -0.4,-0.3 -0.3,-0.4c0.6,-1.9 1.6,-3 2,-3.4l0.1,-0.1c0.1,-0.2 0.3,-0.2 0.5,-0.2c0.2,0.1 0.3,0.3 0.2,0.5c0,0.1 -0.1,0.2 -0.3,0.3c-0.4,0.4 -1.3,1.4 -1.9,3.2c0,0 -0.1,0.1 -0.3,0.1z" /><path
       id="svg_423"
       d="m152.1,133.9c0,0 -0.1,0 0,0c-0.3,0 -0.4,-0.3 -0.3,-0.4c0.6,-1.9 1.6,-3 2,-3.4c0,-0.1 0.1,-0.1 0.1,-0.1c0.1,-0.2 0.3,-0.2 0.5,-0.2c0.2,0.1 0.3,0.3 0.2,0.5c0,0.1 -0.1,0.2 -0.3,0.3c-0.4,0.4 -1.3,1.4 -1.9,3.2c0,0 -0.1,0.1 -0.3,0.1z" /><path
       id="svg_424"
       d="m149.9,134.4c0,0 -0.1,0 0,0c-0.3,0 -0.4,-0.3 -0.3,-0.4c0.6,-1.9 1.6,-3 2,-3.4c0,-0.1 0.1,-0.1 0.1,-0.1c0.1,-0.2 0.3,-0.2 0.5,-0.2c0.2,0.1 0.3,0.3 0.2,0.5c0,0.1 -0.1,0.2 -0.3,0.3c-0.4,0.4 -1.3,1.4 -1.9,3.2c0,0 -0.2,0.1 -0.3,0.1z" /><path
       id="svg_425"
       d="m148.1,134.7c-0.1,0 -0.1,0 0,0c-0.3,0 -0.4,-0.2 -0.3,-0.4c0.4,-1.7 0.8,-2.2 0.9,-2.5l0,0c0.1,-0.2 0.3,-0.3 0.4,-0.2c0.2,0.1 0.3,0.3 0.2,0.5c0,0.1 -0.1,0.2 -0.1,0.2c-0.1,0.2 -0.5,0.6 -0.8,2.2c0,0 -0.2,0.2 -0.3,0.2z" /><path
       id="svg_426"
       d="m146.2,134.9c-0.1,0 -0.1,0 0,0c-0.3,0 -0.4,-0.2 -0.3,-0.4c0.1,-0.6 0.3,-1.2 0.6,-1.8c0.1,-0.2 0.3,-0.3 0.5,-0.2s0.3,0.3 0.2,0.5c-0.3,0.5 -0.4,1.1 -0.6,1.7c-0.1,0.1 -0.3,0.2 -0.4,0.2z" /><path
       id="svg_427"
       d="m144.4,134.9l0,0c-0.3,0 -0.4,-0.2 -0.3,-0.4c0.1,-0.5 0.2,-0.7 0.3,-1.1c0.1,-0.2 0.3,-0.3 0.4,-0.2c0.2,0.1 0.3,0.3 0.2,0.4c-0.1,0.3 -0.2,0.6 -0.3,1c0,0.2 -0.1,0.3 -0.3,0.3z" /><path
       id="svg_428"
       d="m198.2,145.3c-0.1,0 -0.3,-0.1 -0.3,-0.2c-0.1,-0.2 0,-0.4 0.2,-0.4c3.7,-1.4 7.2,-0.5 7.3,-0.5c0.2,0 0.3,0.3 0.3,0.4c0,0.2 -0.3,0.3 -0.4,0.3c0,0 -3.3,-0.8 -6.9,0.4c-0.1,0 -0.2,0 -0.2,0z" /><path
       id="svg_429"
       d="m197.5,143.8c-0.1,0 -0.3,-0.1 -0.3,-0.2c-0.1,-0.2 0,-0.4 0.2,-0.4c3.7,-1.4 6.8,-0.6 6.9,-0.6c0.2,0 0.5,0.3 0.4,0.5c0,0.2 0,0.3 -0.3,0.3c0,0 -3.3,-0.8 -6.9,0.4c0.1,0 0.1,0 0,0z" /><path
       id="svg_430"
       d="m196.4,142.3c-0.1,0 -0.3,-0.1 -0.3,-0.2c-0.1,-0.2 0,-0.4 0.2,-0.4c3.7,-1.4 7.2,-0.5 7.3,-0.5c0.2,0 0.3,0.3 0.3,0.4c0,0.2 -0.3,0.3 -0.4,0.3c0,0 -3.3,-0.8 -6.9,0.4c-0.1,0 -0.2,0 -0.2,0z" /><path
       id="svg_431"
       d="m195.1,140.9c-0.1,0 -0.3,-0.1 -0.3,-0.2c-0.1,-0.2 0,-0.4 0.2,-0.4c3.7,-1.4 7.2,-0.5 7.3,-0.5c0.2,0 0.3,0.3 0.3,0.4c0,0.2 -0.3,0.3 -0.4,0.3c0,0 -3.3,-0.8 -6.9,0.4c-0.2,0 -0.2,0 -0.2,0z" /><path
       id="svg_432"
       d="m174.4,156.8l-0.1,0c-7.9,-3.1 -9.6,-8.2 -9.7,-8.4c0,-0.2 0,-0.4 0.2,-0.4s0.4,0 0.4,0.2c0,0 1.7,5 9.3,8c0.2,0.1 0.3,0.3 0.2,0.5c0,0.1 -0.2,0.1 -0.3,0.1z" /><path
       id="svg_433"
       d="m176.3,157.1l-0.1,0c-7.9,-3.1 -9.9,-8.9 -10,-9.2c0,-0.2 0,-0.4 0.2,-0.4s0.4,0 0.4,0.2c0,0 2,5.8 9.6,8.8c0.2,0.1 0.3,0.3 0.2,0.5c0,0 -0.1,0.1 -0.3,0.1z" /><path
       id="svg_434"
       d="m178,157.1l-0.1,0c-7.9,-3.1 -9.6,-8.9 -9.7,-9.2c0,-0.2 0,-0.4 0.3,-0.4c0.2,0 0.4,0 0.4,0.3c0,0 1.7,5.8 9.4,8.8c0.2,0.1 0.3,0.3 0.2,0.5c-0.2,-0.1 -0.4,0 -0.5,0z" /><path
       id="svg_435"
       d="m180,157l-0.1,0c-6.9,-2.7 -9.2,-7.6 -9.7,-9c-0.1,-0.2 0,-0.4 0.2,-0.5s0.4,0 0.5,0.2c0.5,1.4 2.8,6 9.4,8.6c0.2,0.1 0.3,0.3 0.2,0.5c-0.3,0.2 -0.4,0.2 -0.5,0.2z" /><path
       id="svg_436"
       d="m181.5,156.8l-0.1,0c-6.6,-2.6 -8.9,-7.2 -9.4,-8.5c-0.1,-0.2 0,-0.4 0.2,-0.5s0.4,0 0.5,0.2c0.5,1.3 2.7,5.6 9.1,8.2c0.2,0.1 0.3,0.3 0.2,0.5c-0.2,0.1 -0.4,0.1 -0.5,0.1z" /><path
       id="svg_437"
       d="m183.3,156.8l-0.1,0c-6.3,-2.5 -8.6,-6.6 -9.3,-8.3c-0.1,-0.2 0,-0.4 0.2,-0.5s0.4,0 0.5,0.2c0.7,1.6 3,5.5 8.9,7.9c0.2,0.1 0.3,0.3 0.2,0.5c-0.1,0.1 -0.3,0.2 -0.4,0.2z" /><path
       id="svg_438"
       d="m184.4,156.6l-0.1,0c-5.5,-2.5 -7.5,-6.3 -8.2,-7.8c-0.1,-0.2 0,-0.4 0.2,-0.5s0.4,0 0.5,0.2c0.6,1.4 2.6,5 7.9,7.4c0.2,0.1 0.3,0.3 0.2,0.5c-0.3,0.1 -0.4,0.2 -0.5,0.2z" /><path
       id="svg_439"
       d="m186.5,156.6l-0.1,0c-5.2,-2.3 -7.4,-5.9 -8.1,-7.3c-0.1,-0.2 0,-0.4 0.2,-0.5s0.4,0 0.5,0.2c0.6,1.4 2.7,4.8 7.7,7c0.2,0.1 0.3,0.3 0.2,0.5c-0.1,0 -0.3,0.1 -0.4,0.1z" /><path
       id="svg_440"
       d="m188,156.6c0,0 -0.1,0 -0.2,0c-4.8,-2.3 -6.8,-5.7 -7.4,-7c-0.1,-0.2 0,-0.4 0.2,-0.5s0.4,0 0.5,0.2c0.6,1.3 2.5,4.4 7.1,6.7c0.2,0.1 0.3,0.3 0.2,0.5c-0.2,0 -0.2,0.1 -0.4,0.1z" /><path
       id="svg_441"
       d="m190,156.8c0,0 -0.1,0 -0.2,0c-4.4,-2.2 -6.3,-5.3 -7.1,-6.9c-0.1,-0.2 0,-0.4 0.2,-0.5s0.4,0 0.5,0.2c0.6,1.2 2.4,4.3 6.8,6.6c0.2,0.1 0.3,0.3 0.2,0.5c-0.2,0.1 -0.3,0.1 -0.4,0.1z" /><path
       id="svg_442"
       d="m121.7,138.9c-1.4,0 -2.8,-0.4 -4.1,-1.2c-3,-1.7 -4.7,-2.5 -4.7,-2.5c-0.2,-0.1 -0.3,-0.3 -0.2,-0.5c0.1,-0.2 0.3,-0.3 0.5,-0.2c0,0 1.7,0.8 4.8,2.6c2.3,1.3 4.4,1.4 6.4,0.5c1,-0.5 1.5,-1.3 1.5,-1.3c0.1,-0.2 0.3,-0.2 0.5,-0.1c0.2,0.1 0.2,0.3 0.1,0.5c0,0 -0.6,1 -1.8,1.6c-1,0.4 -2,0.6 -3,0.6z" /><path
       id="svg_443"
       d="m121.1,137.2c-1.4,0 -3,-0.5 -4.5,-1.6c-0.4,-0.3 -0.8,-0.5 -1.1,-0.7c-0.2,-0.1 -0.2,-0.3 -0.1,-0.5s0.3,-0.2 0.5,-0.1c0.3,0.2 0.7,0.5 1.1,0.7c3,1.9 5,1.5 6.2,1.1c1,-0.4 1.6,-1.2 1.6,-1.2c0.1,-0.2 0.3,-0.2 0.5,-0.1c0.2,0.1 0.2,0.3 0.1,0.5c0,0 -0.7,1 -1.9,1.4c-0.9,0.3 -1.7,0.5 -2.4,0.5z" /><path
       id="svg_444"
       d="m120.7,135.7c-1.1,0 -2.4,-0.4 -3.6,-1.3c-0.2,-0.1 -0.2,-0.3 -0.1,-0.5s0.3,-0.2 0.5,-0.1c1.4,1 2.8,1.3 3.9,1.1c1.6,-0.3 2.4,-1.5 2.4,-1.5c0.1,-0.2 0.3,-0.2 0.5,-0.1c0.2,0.1 0.2,0.3 0.1,0.5c0,0 -1,1.5 -2.8,1.8c-0.3,0 -0.6,0.1 -0.9,0.1z" /><path
       id="svg_445"
       d="m84.8,144.3c-0.6,0 -0.9,0 -1,0c-0.2,-0.1 -0.3,-0.3 -0.2,-0.5c0,-0.2 0.2,-0.3 0.4,-0.2c0.3,0 7.4,0.3 13,-3c0.2,-0.1 0.4,0 0.5,0.1c0.1,0.2 0,0.4 -0.1,0.5c-4.7,2.6 -10.3,3.1 -12.6,3.1z" /><path
       id="svg_446"
       d="m85.2,143c-0.2,0 -0.3,-0.1 -0.3,-0.3s0.1,-0.3 0.3,-0.3c2.4,-0.1 6.9,-0.6 10.7,-2.7c0.2,-0.1 0.4,0 0.5,0.1c0.1,0.2 0,0.4 -0.1,0.5c-4,2.1 -8.7,2.6 -11.1,2.7l0,0z" /><path
       id="svg_447"
       d="m86.3,141.7c-0.2,0 -0.3,-0.1 -0.3,-0.3s0.1,-0.4 0.3,-0.4c2.3,-0.3 5.7,-0.9 8.7,-2.5c0.2,-0.1 0.4,0 0.5,0.1c0.1,0.2 0,0.4 -0.1,0.5c-3.2,1.7 -6.7,2.4 -9.1,2.6l0,0z" /><path
       id="svg_448"
       d="m87.3,140.5c-0.2,0 -0.3,-0.1 -0.3,-0.3s0.1,-0.4 0.3,-0.4c2.5,-0.5 4.7,-1.2 6.6,-2.2c0.2,-0.1 0.4,0 0.5,0.1c0.1,0.2 0,0.4 -0.1,0.5c-2,1.1 -4.3,1.8 -7,2.3l0,0z" /><path
       id="svg_449"
       d="m88.9,139c-0.2,0 -0.3,-0.1 -0.3,-0.3s0,-0.4 0.3,-0.4c1.4,-0.4 2.7,-1 3.9,-1.6c0.2,-0.1 0.4,0 0.5,0.1c0.1,0.2 0,0.4 -0.1,0.5c-1.4,0.7 -2.8,1.2 -4.3,1.7l0,0z" /><path
       id="svg_450"
       d="m93,187.1c-1.4,0 -2.6,-0.5 -2.7,-0.6c-0.2,-0.1 -0.3,-0.3 -0.2,-0.5c0.1,-0.2 0.3,-0.3 0.5,-0.2c0,0 3,1.3 5,-0.4c0.3,-0.3 0.6,-0.5 0.9,-0.8c1.1,-1.1 2.4,-2.4 5,-2.3c0.2,0 0.3,0.2 0.3,0.3c0,0.2 -0.2,0.3 -0.3,0.3c-2.3,-0.1 -3.4,1 -4.5,2.1c-0.3,0.3 -0.6,0.6 -0.9,0.9c-1,0.9 -2.1,1.2 -3.1,1.2z" /><path
       id="svg_451"
       d="m98.4,201.9c-2.6,0 -3.8,-0.8 -3.9,-0.8c-0.2,-0.1 -0.2,-0.3 -0.1,-0.5s0.3,-0.2 0.5,-0.1c0,0 2.6,1.7 9,-0.2c0.2,0 0.4,0 0.4,0.3c0,0.2 0,0.4 -0.3,0.4c-2.3,0.7 -4.2,0.9 -5.6,0.9z" /><path
       id="svg_452"
       d="m98.1,203.4c-1.5,0 -2.5,-0.2 -3.1,-0.4c-0.2,0 -0.3,-0.3 -0.2,-0.4c0,-0.2 0.3,-0.3 0.4,-0.2c1.1,0.4 3.8,0.8 8.3,-0.5c0.2,0 0.4,0 0.4,0.3c0,0.2 0,0.4 -0.3,0.4c-2.1,0.6 -4,0.8 -5.5,0.8z" /><path
       id="svg_453"
       d="m97.9,205c-0.9,0 -1.6,-0.1 -2.2,-0.2c-0.2,0 -0.3,-0.2 -0.3,-0.4s0.2,-0.3 0.4,-0.3c1.4,0.3 3.8,0.4 7.5,-0.7c0.2,0 0.4,0 0.4,0.3c0,0.2 0,0.4 -0.3,0.4c-2.2,0.6 -4.1,0.9 -5.5,0.9z" /><path
       id="svg_454"
       d="m97.7,206.5c-0.4,0 -0.8,0 -1.1,0c-0.2,0 -0.3,-0.2 -0.3,-0.4s0.2,-0.3 0.4,-0.3c1.9,0.2 4,-0.1 6.5,-0.8c0.2,0 0.4,0 0.4,0.3c0,0.2 0,0.4 -0.3,0.4c-2.1,0.5 -4,0.8 -5.6,0.8z" /><path
       id="svg_455"
       d="m97.4,208c-0.2,0 -0.3,-0.2 -0.3,-0.3c0,-0.2 0.2,-0.3 0.3,-0.3c1.6,0 3.5,-0.3 5.5,-0.9c0.2,0 0.4,0 0.4,0.3c0,0.2 0,0.4 -0.3,0.4c-2,0.5 -3.9,0.8 -5.6,0.8l0,0z" /><path
       id="svg_456"
       d="m98.1,209.5c-0.2,0 -0.3,-0.1 -0.3,-0.3s0.1,-0.3 0.3,-0.4c1.4,-0.1 3,-0.4 4.7,-0.8c0.2,0 0.4,0 0.4,0.3c0,0.2 0,0.4 -0.3,0.4c-1.8,0.4 -3.4,0.7 -4.8,0.8l0,0z" /><path
       id="svg_457"
       d="m113.5,240.4c-0.7,0 -1.3,-0.4 -1.9,-1.2c-2.2,-3.3 -6.5,-9 -6.6,-9c-0.1,-0.2 -0.1,-0.4 0.1,-0.5s0.4,-0.1 0.5,0.1c0,0 4.3,5.8 6.6,9.1c0.4,0.6 0.8,0.9 1.4,0.9c1.4,-0.1 2.8,-2.5 3.3,-3.4c0,0 1.6,-3.3 6.1,-1.4c0.2,0.1 0.3,0.3 0.2,0.5c-0.1,0.2 -0.3,0.3 -0.5,0.2c-3.9,-1.7 -5.2,0.9 -5.2,1c-0.2,0.1 -2,3.6 -4,3.7c0.1,0 0,0 0,0z"
       fill="#FFFFFF" /><path
       id="svg_458"
       d="m113.6,242.7c-0.8,0 -1.6,-0.5 -2.2,-1.4l-0.9,-1.4c-0.1,-0.2 -0.1,-0.4 0.1,-0.5s0.4,-0.1 0.5,0.1l0.9,1.4c0.5,0.8 1.1,1.1 1.7,1.1c1.5,-0.1 3.1,-2.4 3.6,-3.5c0.4,-0.9 1.4,-3 4.9,-1.9c0.2,0 0.3,0.3 0.2,0.4c0,0.2 -0.3,0.3 -0.4,0.2c-2.8,-0.9 -3.6,0.3 -4.1,1.6c-0.3,0.7 -2.1,3.8 -4.1,3.9c-0.1,0 -0.2,0 -0.2,0z"
       fill="#FFFFFF" /><path
       id="svg_459"
       d="m114.1,244.6c-1,0 -1.9,-0.5 -2.8,-1.4c-0.1,-0.1 -0.1,-0.3 0,-0.5c0.1,-0.1 0.3,-0.1 0.5,0c1,0.9 1.9,1.4 2.8,1.1c1.7,-0.3 3,-2.6 3.3,-3.4c0.4,-0.9 1.3,-3.1 3.9,-2.2c0.2,0 0.3,0.3 0.2,0.4c0,0.2 -0.3,0.3 -0.4,0.2c-1.9,-0.6 -2.5,0.5 -3,1.8c-0.5,1.2 -1.9,3.5 -3.9,3.9c-0.3,0.1 -0.5,0.1 -0.6,0.1z"
       fill="#FFFFFF" /><path
       id="svg_460"
       d="m126.4,271.7l0,0c-0.2,0 -0.3,-0.2 -0.3,-0.4c0,0 0.4,-2.8 -3.9,-6.6c-4.4,-4 -5.5,-7 -5.5,-7.2s0,-0.4 0.2,-0.4c0.2,-0.1 0.4,0 0.4,0.2c0,0 1.1,3 5.4,6.9c4.5,4.1 4.1,7 4.1,7.2c-0.1,0.2 -0.2,0.3 -0.4,0.3z" /><path
       id="svg_461"
       d="m131.7,286.3c-2.9,0 -6.2,-4.9 -6.3,-5.1c-0.1,-0.2 0,-0.4 0.1,-0.5c0.2,-0.1 0.4,0 0.5,0.1c0,0 3.3,5 5.8,4.8c0.2,0 0.3,0.1 0.4,0.3c0,0.2 -0.1,0.3 -0.3,0.4c-0.1,0 -0.1,0 -0.2,0z" /><path
       id="svg_462"
       d="m131.6,287.7c-1.1,0 -2.5,-0.7 -3.9,-2.2c-0.1,-0.1 -0.1,-0.3 0,-0.5c0.1,-0.1 0.3,-0.1 0.5,0c1.4,1.4 2.5,2 3.5,1.9c0.2,0 0.3,0.1 0.4,0.3c0,0.2 -0.1,0.3 -0.3,0.4c-0.1,0.1 -0.2,0.1 -0.2,0.1z" /><path
       id="svg_463"
       d="m131.1,289c-0.8,0 -1.4,-0.3 -2.5,-1c-0.2,-0.1 -0.2,-0.3 -0.1,-0.5c0.1,-0.2 0.3,-0.2 0.5,-0.1c1,0.7 1.5,0.9 2.2,0.8c0.2,0 0.3,0.1 0.4,0.3c0,0.2 -0.1,0.3 -0.3,0.4c0,0.1 -0.1,0.1 -0.2,0.1z" /><path
       id="svg_464"
       d="m130.9,290.4c-0.4,0 -0.8,-0.1 -1.2,-0.3c-0.2,-0.1 -0.3,-0.3 -0.2,-0.5s0.3,-0.3 0.5,-0.2c0.4,0.2 0.7,0.3 1.1,0.2c0.2,0 0.3,0.1 0.4,0.3c0,0.2 -0.1,0.3 -0.3,0.4s-0.2,0.1 -0.3,0.1z" /><path
       id="svg_465"
       d="m156.9,289.7l-0.1,0c-0.2,-0.1 -0.3,-0.3 -0.2,-0.5c0,0 1.9,-4.2 2.2,-6.6c0.3,-2.6 2,-6.8 5.7,-10.4c0.1,-0.1 0.3,-0.1 0.5,0c0.1,0.1 0.1,0.3 0,0.5c-3.5,3.5 -5.2,7.6 -5.5,10c-0.3,2.5 -2.2,6.6 -2.3,6.9c-0.1,0 -0.2,0.1 -0.3,0.1z" /><path
       id="svg_466"
       d="m164.8,257.9l0,0c-0.2,0 -0.3,-0.2 -0.3,-0.4c0,-0.3 1.1,-6.4 5.3,-9.1c6.3,-4 8.7,-6.9 8.8,-6.9c0.1,-0.1 0.3,-0.2 0.5,0c0.1,0.1 0.2,0.3 0,0.5c-0.1,0.1 -2.5,2.9 -8.9,7c-3.9,2.5 -5,8.5 -5,8.6c-0.2,0.1 -0.3,0.3 -0.4,0.3z" /><path
       id="svg_467"
       d="m176,229.5c-0.2,0 -0.4,0 -0.6,0c-0.2,0 -0.3,-0.2 -0.3,-0.4s0.2,-0.3 0.4,-0.3c3.3,0.3 5.9,-1.6 7.4,-5.1c1.8,-4.2 5.3,-9.5 5.4,-9.6c0.1,-0.2 0.3,-0.2 0.5,-0.1c0.2,0.1 0.2,0.3 0.1,0.5c0,0 -3.5,5.3 -5.3,9.5c-2.1,4.8 -5.7,5.5 -7.6,5.5z"
       fill="#FFFFFF" /><path
       id="svg_468"
       d="m194.5,188.6c-0.4,0 -0.6,0 -0.6,0c-0.2,0 -0.3,-0.2 -0.3,-0.4s0.2,-0.3 0.4,-0.3s5,0.6 5.9,-3.9c1,-4.9 4.1,-8.7 4.2,-8.9c0.1,-0.2 0.3,-0.2 0.5,0c0.2,0.1 0.2,0.3 0,0.5c0,0 -3,3.9 -4.1,8.6c-0.8,4 -4.5,4.4 -6,4.4z" /><path
       id="svg_469"
       d="m195,190.1c-0.4,0 -0.6,0 -0.6,0c-0.2,0 -0.3,-0.2 -0.3,-0.4s0.2,-0.3 0.4,-0.3s5,0.6 5.9,-3.9c0.4,-2 1.2,-4 2.4,-6.1c0.1,-0.2 0.3,-0.2 0.5,-0.1c0.2,0.1 0,0.6 0,0.8c-1.1,2 -1.7,3.6 -2.1,5.5c-1,4.1 -4.7,4.5 -6.2,4.5z" /><path
       id="svg_470"
       d="m195.3,191.8c-0.4,0 -0.6,0 -0.7,0c-0.2,0 -0.3,-0.2 -0.3,-0.4s0.2,-0.3 0.4,-0.3s4.4,0.5 5.7,-3c0.1,-0.3 0.3,-0.6 0.3,-0.9c0,-0.2 0.2,-0.3 0.4,-0.3s0.3,0.2 0.3,0.4c-0.1,0.4 -0.3,0.8 -0.3,1.1c-1.2,3.1 -4.4,3.4 -5.8,3.4z" /><path
       id="svg_471"
       d="m195.6,193.3c-0.4,0 -0.7,0 -0.7,0c-0.2,0 -0.3,-0.2 -0.3,-0.4s0.2,-0.3 0.4,-0.3c0,0 2.6,0.3 4.4,-1.2c0.1,-0.1 0.4,-0.1 0.5,0s0.1,0.4 0,0.5c-1.5,1.2 -3.4,1.4 -4.3,1.4z" /><g
       id="svg_472"><path
         id="svg_473"
         d="m109.9,231.5c-1.5,0 -3,-0.3 -4.4,-0.9c-0.2,-0.1 -0.3,-0.3 -0.2,-0.5c0.1,-0.2 0.3,-0.3 0.5,-0.2c1.3,0.6 2.7,0.8 4.1,0.8c5.7,0 10.4,-4.6 10.4,-10.2c0,-5.6 -4.7,-10.2 -10.4,-10.2c-4.4,0 -8.3,2.7 -9.8,6.8c-0.1,0.2 -0.3,0.3 -0.4,0.2c-0.2,-0.1 -0.3,-0.3 -0.2,-0.4c1.6,-4.3 5.8,-7.2 10.4,-7.2c6.1,0 11.1,4.9 11.1,10.9c0,6 -5,10.9 -11.1,10.9z" /><path
         id="svg_474"
         d="m100.9,215.2c-0.1,0 -0.3,-0.1 -0.3,-0.2c-0.1,-0.2 0,-0.4 0.2,-0.5l11,-4.7c0.2,-0.1 0.4,0 0.5,0.2s0,0.4 -0.2,0.5l-11,4.7c-0.1,0 -0.1,0 -0.2,0z" /><path
         id="svg_475"
         d="m104.2,215.6c-0.1,0 -0.3,-0.1 -0.3,-0.2c-0.1,-0.2 0,-0.4 0.2,-0.5l10,-4.3c0.2,-0.1 0.4,0 0.5,0.2s0,0.4 -0.2,0.5l-10,4.3c-0.1,0 -0.2,0 -0.2,0z" /><path
         id="svg_476"
         d="m106.9,216.2c-0.1,0 -0.3,-0.1 -0.3,-0.2c-0.1,-0.2 0,-0.4 0.2,-0.5l9.1,-3.9c0.2,-0.1 0.4,0 0.5,0.2s0,0.4 -0.2,0.5l-9.1,3.9c-0.1,0 -0.2,0 -0.2,0z" /><path
         id="svg_477"
         d="m108.8,217.1c-0.1,0 -0.3,-0.1 -0.3,-0.2c-0.1,-0.2 0,-0.4 0.2,-0.5l8.6,-3.7c0.2,-0.1 0.4,0 0.5,0.2s0,0.4 -0.2,0.5l-8.6,3.7c-0.1,0 -0.2,0 -0.2,0z" /><path
         id="svg_478"
         d="m110.2,218.2c-0.1,0 -0.3,-0.1 -0.3,-0.2c-0.1,-0.2 0,-0.4 0.2,-0.5l8.3,-3.6c0.2,-0.1 0.4,0 0.5,0.2s0,0.4 -0.2,0.5l-8.3,3.6c-0.2,0 -0.2,0 -0.2,0z" /><path
         id="svg_479"
         d="m111.2,219.6c-0.1,0 -0.3,-0.1 -0.3,-0.2c-0.1,-0.2 0,-0.4 0.2,-0.5l8,-3.5c0.2,-0.1 0.4,0 0.5,0.2s0,0.4 -0.2,0.5l-8,3.5c-0.1,-0.1 -0.2,0 -0.2,0z" /><path
         id="svg_480"
         d="m112,221c-0.1,0 -0.3,-0.1 -0.3,-0.2c-0.1,-0.2 0,-0.4 0.2,-0.5l7.9,-3.4c0.2,-0.1 0.4,0 0.5,0.2s0,0.4 -0.2,0.5l-7.9,3.4c-0.1,-0.1 -0.2,0 -0.2,0z" /><path
         id="svg_481"
         d="m112.5,222.4c-0.1,0 -0.3,-0.1 -0.3,-0.2c-0.1,-0.2 0,-0.4 0.2,-0.5l7.9,-3.4c0.2,-0.1 0.4,0 0.5,0.2s0,0.4 -0.2,0.5l-7.9,3.4c-0.1,0 -0.2,0 -0.2,0z" /><path
         id="svg_482"
         d="m112.7,224.1c-0.1,0 -0.3,-0.1 -0.3,-0.2c-0.1,-0.2 0,-0.4 0.2,-0.5l8,-3.4c0.2,-0.1 0.4,0 0.5,0.2s0,0.4 -0.2,0.5l-8,3.4c-0.1,0 -0.2,0 -0.2,0z" /><path
         id="svg_483"
         d="m112.7,225.9c-0.1,0 -0.3,-0.1 -0.3,-0.2c-0.1,-0.2 0,-0.4 0.2,-0.5l7.8,-3.4c0.2,-0.1 0.4,0 0.5,0.2s0,0.4 -0.2,0.5l-7.8,3.4c-0.2,0 -0.2,0 -0.2,0z" /><path
         id="svg_484"
         d="m112.1,227.8c-0.1,0 -0.3,-0.1 -0.3,-0.2c-0.1,-0.2 0,-0.4 0.2,-0.5l7.8,-3.4c0.2,-0.1 0.4,0 0.5,0.2s0,0.4 -0.2,0.5l-7.8,3.4c-0.1,0 -0.1,0 -0.2,0z" /><path
         id="svg_485"
         d="m110.8,230.1c-0.1,0 -0.3,-0.1 -0.3,-0.2c-0.1,-0.2 0,-0.4 0.2,-0.5l8.2,-3.6c0.2,-0.1 0.4,0 0.5,0.2s0,0.4 -0.2,0.5l-8.2,3.6c-0.1,0 -0.2,0 -0.2,0z" /><path
         id="svg_486"
         d="m103.9,220.7c0,0 -0.1,0 -0.2,0c-0.6,-0.1 -1,-0.7 -0.9,-1.3s0.7,-1 1.3,-0.9c0.3,0 0.6,0.2 0.7,0.4c0.2,0.3 0.3,0.5 0.2,0.8c-0.1,0.7 -0.6,1 -1.1,1zm0,-1.4c-0.2,0 -0.3,0.1 -0.4,0.3c0,0.2 0.1,0.4 0.3,0.5s0.4,-0.1 0.5,-0.3c0,-0.1 0,-0.2 -0.1,-0.3c0,-0.2 -0.1,-0.2 -0.3,-0.2l0,0z" /><path
         id="svg_487"
         d="m108.8,222.7c0,0 -0.1,0 -0.2,0c-0.6,-0.1 -1,-0.7 -0.9,-1.3s0.7,-1 1.3,-0.9c0.3,0 0.6,0.2 0.7,0.4c0.2,0.3 0.3,0.5 0.2,0.8c0,0.3 -0.2,0.6 -0.4,0.7c-0.3,0.2 -0.5,0.3 -0.7,0.3zm0,-1.5c-0.2,0 -0.3,0.1 -0.4,0.3c0,0.2 0.1,0.4 0.3,0.5s0.4,-0.1 0.5,-0.3s-0.1,-0.5 -0.4,-0.5l0,0z" /><path
         id="svg_488"
         d="m108.3,228.3c0,0 -0.1,0 -0.2,0c-0.3,0 -0.6,-0.2 -0.7,-0.4c-0.2,-0.3 -0.3,-0.5 -0.2,-0.8c0.1,-0.6 0.7,-1 1.3,-0.9c0.6,0.1 1,0.7 0.9,1.3l0,0c0,0.3 -0.2,0.6 -0.4,0.7c-0.2,0 -0.5,0.1 -0.7,0.1zm0,-1.5c-0.2,0 -0.3,0.1 -0.4,0.3c0,0.2 0.1,0.4 0.3,0.5s0.4,-0.1 0.5,-0.3s-0.1,-0.5 -0.4,-0.5c0.1,0 0.1,0 0,0zm0.8,0.5l0,0l0,0z" /><path
         id="svg_489"
         d="m103.6,225.8c-0.1,0 -0.2,0 -0.3,0c-0.3,-0.1 -0.5,-0.3 -0.6,-0.5c-0.3,-0.5 -0.1,-1.2 0.4,-1.5c0.3,-0.1 0.6,-0.2 0.8,-0.1c0.3,0.1 0.5,0.3 0.6,0.5c0.1,0.3 0.2,0.6 0.1,0.8c-0.1,0.3 -0.3,0.5 -0.5,0.6c-0.1,0.2 -0.3,0.2 -0.5,0.2zm0,-1.5c-0.1,0 -0.1,0 -0.2,0c-0.2,0.1 -0.3,0.3 -0.2,0.6c0,0.1 0.1,0.2 0.3,0.2c0.1,0 0.2,0 0.3,0s0.2,-0.1 0.2,-0.3c0,-0.1 0,-0.2 0,-0.3c-0.1,-0.1 -0.2,-0.2 -0.4,-0.2z" /></g><g
       id="svg_490"><path
         id="svg_491"
         d="m143.4,282.7c-5.5,0 -9.9,-4.4 -9.9,-9.7s4.4,-9.7 9.9,-9.7s9.9,4.4 9.9,9.7c0,5.3 -4.5,9.7 -9.9,9.7zm0,-18.8c-5.1,0 -9.2,4.1 -9.2,9.1s4.1,9.1 9.2,9.1s9.2,-4.1 9.2,-9.1s-4.1,-9.1 -9.2,-9.1z" /><path
         id="svg_492"
         d="m135.4,268.2c-0.1,0 -0.3,-0.1 -0.3,-0.2c-0.1,-0.2 0,-0.4 0.2,-0.5l9.7,-4.2c0.2,-0.1 0.4,0 0.5,0.2s0,0.4 -0.2,0.5l-9.7,4.2c-0.1,0 -0.1,0 -0.2,0z" /><path
         id="svg_493"
         d="m138.3,268.6c-0.1,0 -0.3,-0.1 -0.3,-0.2c-0.1,-0.2 0,-0.4 0.2,-0.5l8.8,-3.9c0.2,-0.1 0.4,0 0.5,0.2s0,0.4 -0.2,0.5l-8.8,3.9c-0.1,0 -0.2,0 -0.2,0z" /><path
         id="svg_494"
         d="m140.7,269.1c-0.1,0 -0.3,-0.1 -0.3,-0.2c-0.1,-0.2 0,-0.4 0.2,-0.5l8,-3.5c0.2,-0.1 0.4,0 0.5,0.2s0,0.4 -0.2,0.5l-8,3.5c-0.1,0 -0.1,0 -0.2,0z" /><path
         id="svg_495"
         d="m142.4,269.9c-0.1,0 -0.3,-0.1 -0.3,-0.2c-0.1,-0.2 0,-0.4 0.2,-0.5l7.6,-3.3c0.2,-0.1 0.4,0 0.5,0.2s0,0.4 -0.2,0.5l-7.6,3.3c-0.1,0 -0.2,0 -0.2,0z" /><path
         id="svg_496"
         d="m143.6,270.9c-0.1,0 -0.3,-0.1 -0.3,-0.2c-0.1,-0.2 0,-0.4 0.2,-0.5l7.4,-3.2c0.2,-0.1 0.4,0 0.5,0.2s0,0.4 -0.2,0.5l-7.4,3.2c-0.1,0 -0.1,0 -0.2,0z" /><path
         id="svg_497"
         d="m144.5,272c-0.1,0 -0.3,-0.1 -0.3,-0.2c-0.1,-0.2 0,-0.4 0.2,-0.5l7.2,-3.1c0.2,-0.1 0.4,0 0.5,0.2s0,0.4 -0.2,0.5l-7.2,3.1c-0.1,0 -0.1,0 -0.2,0z" /><path
         id="svg_498"
         d="m145.2,273.3c-0.1,0 -0.3,-0.1 -0.3,-0.2c-0.1,-0.2 0,-0.4 0.2,-0.5l7,-3c0.2,-0.1 0.4,0 0.5,0.2s0,0.4 -0.2,0.5l-7,3c-0.1,0 -0.1,0 -0.2,0z" /><path
         id="svg_499"
         d="m145.7,274.6c-0.1,0 -0.3,-0.1 -0.3,-0.2c-0.1,-0.2 0,-0.4 0.2,-0.5l7,-3c0.2,-0.1 0.4,0 0.5,0.2s0,0.4 -0.2,0.5l-7,3c-0.1,0 -0.2,0 -0.2,0z" /><path
         id="svg_500"
         d="m145.8,276.1c-0.1,0 -0.3,-0.1 -0.3,-0.2c-0.1,-0.2 0,-0.4 0.2,-0.5l7.1,-3c0.2,-0.1 0.4,0 0.5,0.2s0,0.4 -0.2,0.5l-7.1,3c-0.1,0 -0.1,0 -0.2,0z" /><path
         id="svg_501"
         d="m145.8,277.7c-0.1,0 -0.3,-0.1 -0.3,-0.2c-0.1,-0.2 0,-0.4 0.2,-0.5l7,-3c0.2,-0.1 0.4,0 0.5,0.2s0,0.4 -0.2,0.5l-7,3c-0.1,0 -0.1,0 -0.2,0z" /><path
         id="svg_502"
         d="m145.4,279.4c-0.1,0 -0.3,-0.1 -0.3,-0.2c-0.1,-0.2 0,-0.4 0.2,-0.5l6.9,-3c0.2,-0.1 0.4,0 0.5,0.2s0,0.4 -0.2,0.5l-6.9,3c-0.1,0 -0.2,0 -0.2,0z" /><path
         id="svg_503"
         d="m144.2,281.5c-0.1,0 -0.3,-0.1 -0.3,-0.2c-0.1,-0.2 0,-0.4 0.2,-0.5l7.3,-3.1c0.2,-0.1 0.4,0 0.5,0.2s0,0.4 -0.2,0.5l-7.3,3.1c-0.1,-0.1 -0.2,0 -0.2,0z" /><path
         id="svg_504"
         d="m138,273.1c0,0 -0.1,0 -0.2,0c-0.3,0 -0.5,-0.2 -0.6,-0.4c-0.2,-0.2 -0.2,-0.5 -0.2,-0.8s0.2,-0.5 0.4,-0.6c0.2,-0.2 0.5,-0.2 0.8,-0.2c0.6,0.1 0.9,0.6 0.8,1.1l0,0c-0.1,0.6 -0.5,0.9 -1,0.9zm0,-1.3c-0.1,0 -0.1,0 -0.2,0c-0.1,0 -0.1,0.1 -0.1,0.2s0,0.2 0,0.3s0.1,0.1 0.2,0.1c0.2,0 0.3,-0.1 0.4,-0.3c0.1,-0.1 0,-0.3 -0.3,-0.3l0,0zm0.7,0.4l0,0l0,0z" /><path
         id="svg_505"
         d="m142.4,274.8c0,0 -0.1,0 -0.2,0c-0.3,0 -0.5,-0.2 -0.6,-0.4c-0.2,-0.2 -0.2,-0.5 -0.2,-0.8s0.2,-0.5 0.4,-0.6c0.2,-0.2 0.5,-0.2 0.8,-0.2s0.5,0.2 0.6,0.4c0.2,0.2 0.2,0.5 0.2,0.8c-0.1,0.5 -0.5,0.8 -1,0.8zm0,-1.3c-0.1,0 -0.1,0 -0.2,0c-0.1,0 -0.1,0.1 -0.1,0.2s0,0.2 0,0.3c0,0.1 0.1,0.1 0.2,0.1c0.2,0 0.3,-0.1 0.4,-0.3c0,-0.1 0,-0.2 0,-0.3c0,0.1 -0.1,0 -0.3,0l0,0z" /><path
         id="svg_506"
         d="m142,279.8c0,0 -0.1,0 -0.2,0c-0.6,-0.1 -0.9,-0.6 -0.8,-1.1c0.1,-0.6 0.6,-0.9 1.1,-0.8c0.6,0.1 0.9,0.6 0.8,1.1c0,0.5 -0.4,0.8 -0.9,0.8zm0,-1.3c-0.2,0 -0.3,0.1 -0.3,0.3c0,0.2 0.1,0.3 0.3,0.4c0.2,0 0.3,-0.1 0.4,-0.3c0,-0.2 -0.2,-0.3 -0.4,-0.4l0,0z" /><path
         id="svg_507"
         d="m137.8,277.7c-0.1,0 -0.2,0 -0.3,0c-0.3,-0.1 -0.5,-0.3 -0.6,-0.5c-0.1,-0.3 -0.2,-0.5 -0.1,-0.8c0.1,-0.3 0.3,-0.5 0.5,-0.6l0,0c0.5,-0.3 1.1,-0.1 1.4,0.4c0.3,0.5 0.1,1.1 -0.4,1.4c-0.2,0 -0.3,0.1 -0.5,0.1zm-0.1,-1.3c-0.1,0 -0.1,0.1 -0.2,0.2c0,0.1 0,0.2 0,0.3c0,0.1 0.1,0.1 0.2,0.2c0.1,0 0.2,0 0.3,0c0.2,-0.1 0.2,-0.3 0.1,-0.4c-0.1,-0.3 -0.3,-0.4 -0.4,-0.3l0,0z" /></g><g
       id="svg_508"><path
         id="svg_509"
         d="m89.3,186c-0.1,0 -0.2,0 -0.3,-0.2c-0.1,-0.2 -0.1,-0.4 0.1,-0.5c2.5,-1.7 4,-4.5 4,-7.5c0,-5 -4.1,-9.1 -9.2,-9.1c-0.9,0 -1.8,0.1 -2.7,0.4c-0.2,0 -0.4,0 -0.4,-0.2s0,-0.4 0.2,-0.4c0.9,-0.3 1.9,-0.4 2.9,-0.4c5.5,0 9.9,4.4 9.9,9.7c0,3.2 -1.6,6.3 -4.3,8.1c-0.1,0.1 -0.2,0.1 -0.2,0.1z" /><path
         id="svg_510"
         d="m81.1,170.9c-0.1,0 -0.3,-0.1 -0.3,-0.2c-0.1,-0.2 0,-0.4 0.2,-0.5l4.6,-1.9c0.2,-0.1 0.4,0 0.5,0.2s0,0.4 -0.2,0.5l-4.6,1.9c-0.1,0 -0.1,0 -0.2,0z" /><path
         id="svg_511"
         d="m81.4,172.4c-0.1,0 -0.3,-0.1 -0.3,-0.2c-0.1,-0.2 0,-0.4 0.2,-0.5l6.3,-2.8c0.2,-0.1 0.4,0 0.5,0.2s0,0.4 -0.2,0.5l-6.3,2.8c-0.1,0 -0.2,0 -0.2,0z" /><path
         id="svg_512"
         d="m81.7,173.8c-0.1,0 -0.3,-0.1 -0.3,-0.2c-0.1,-0.2 0,-0.4 0.2,-0.5l7.6,-3.3c0.2,-0.1 0.4,0 0.5,0.2s0,0.4 -0.2,0.5l-7.6,3.3c-0.1,0 -0.2,0 -0.2,0z" /><path
         id="svg_513"
         d="m82.9,174.8c-0.1,0 -0.3,-0.1 -0.3,-0.2c-0.1,-0.2 0,-0.4 0.2,-0.5l7.6,-3.3c0.2,-0.1 0.4,0 0.5,0.2s0,0.4 -0.2,0.5l-7.6,3.3c-0.1,0 -0.1,0 -0.2,0z" /><path
         id="svg_514"
         d="m84.2,175.8c-0.1,0 -0.3,-0.1 -0.3,-0.2c-0.1,-0.2 0,-0.4 0.2,-0.5l7.4,-3.2c0.2,-0.1 0.4,0 0.5,0.2s0,0.4 -0.2,0.5l-7.4,3.2c-0.1,0 -0.2,0 -0.2,0z" /><path
         id="svg_515"
         d="m85.1,177c-0.1,0 -0.3,-0.1 -0.3,-0.2c-0.1,-0.2 0,-0.4 0.2,-0.5l7.2,-3.1c0.2,-0.1 0.4,0 0.5,0.2s0,0.4 -0.2,0.5l-7.2,3.1c-0.2,-0.1 -0.2,0 -0.2,0z" /><path
         id="svg_516"
         d="m85.8,178.2c-0.1,0 -0.3,-0.1 -0.3,-0.2c-0.1,-0.2 0,-0.4 0.2,-0.5l7,-3c0.2,-0.1 0.4,0 0.5,0.2s0,0.4 -0.2,0.5l-7,3c-0.1,0 -0.2,0 -0.2,0z" /><path
         id="svg_517"
         d="m86.2,179.6c-0.1,0 -0.3,-0.1 -0.3,-0.2c-0.1,-0.2 0,-0.4 0.2,-0.5l7,-3c0.2,-0.1 0.4,0 0.5,0.2s0,0.4 -0.2,0.5l-7,3c-0.1,0 -0.2,0 -0.2,0z" /><path
         id="svg_518"
         d="m86.4,181c-0.1,0 -0.3,-0.1 -0.3,-0.2c-0.1,-0.2 0,-0.4 0.2,-0.5l7.1,-3c0.2,-0.1 0.4,0 0.5,0.2s0,0.4 -0.2,0.5l-7.1,3c-0.1,0 -0.2,0 -0.2,0z" /><path
         id="svg_519"
         d="m86.4,182.6c-0.1,0 -0.3,-0.1 -0.3,-0.2c-0.1,-0.2 0,-0.4 0.2,-0.5l7,-3c0.2,-0.1 0.4,0 0.5,0.2s0,0.4 -0.2,0.5l-7,3c-0.1,0 -0.2,0 -0.2,0z" /><path
         id="svg_520"
         d="m86.7,184c-0.1,0 -0.3,-0.1 -0.3,-0.2c-0.1,-0.2 0,-0.4 0.2,-0.5l6.1,-2.7c0.2,-0.1 0.4,0 0.5,0.2s0,0.4 -0.2,0.5l-6.1,2.7c-0.1,0 -0.1,0 -0.2,0z" /><path
         id="svg_521"
         d="m87.8,185c-0.1,0 -0.3,-0.1 -0.3,-0.2c-0.1,-0.2 0,-0.4 0.2,-0.5l4.2,-1.8c0.2,-0.1 0.4,0 0.5,0.2s0,0.4 -0.2,0.5l-4.2,1.8c-0.1,0 -0.1,0 -0.2,0z" /></g><g
       id="svg_522"><path
         id="svg_523"
         d="m153.3,250.3c-5.5,0 -9.9,-4.4 -9.9,-9.7c0,-5.4 4.4,-9.7 9.9,-9.7s9.9,4.4 9.9,9.7c0,5.3 -4.4,9.7 -9.9,9.7zm0,-18.8c-5.1,0 -9.2,4.1 -9.2,9.1s4.1,9.1 9.2,9.1s9.2,-4.1 9.2,-9.1s-4.1,-9.1 -9.2,-9.1z" /><path
         id="svg_524"
         d="m145.4,235.8c-0.1,0 -0.3,-0.1 -0.3,-0.2c-0.1,-0.2 0,-0.4 0.2,-0.5l9.7,-4.2c0.2,-0.1 0.4,0 0.5,0.2s0,0.4 -0.2,0.5l-9.7,4.2c-0.1,0 -0.2,0 -0.2,0z" /><path
         id="svg_525"
         d="m148.2,236.2c-0.1,0 -0.3,-0.1 -0.3,-0.2c-0.1,-0.2 0,-0.4 0.2,-0.5l8.8,-3.9c0.2,-0.1 0.4,0 0.5,0.2s0,0.4 -0.2,0.5l-8.8,3.9c-0.1,0 -0.1,0 -0.2,0z" /><path
         id="svg_526"
         d="m150.7,236.7c-0.1,0 -0.3,-0.1 -0.3,-0.2c-0.1,-0.2 0,-0.4 0.2,-0.5l8,-3.5c0.2,-0.1 0.4,0 0.5,0.2s0,0.4 -0.2,0.5l-8,3.5c-0.2,0 -0.2,0 -0.2,0z" /><path
         id="svg_527"
         d="m152.4,237.5c-0.1,0 -0.3,-0.1 -0.3,-0.2c-0.1,-0.2 0,-0.4 0.2,-0.5l7.6,-3.3c0.2,-0.1 0.4,0 0.5,0.2s0,0.4 -0.2,0.5l-7.6,3.3c-0.2,0 -0.2,0 -0.2,0z" /><path
         id="svg_528"
         d="m153.6,238.5c-0.1,0 -0.3,-0.1 -0.3,-0.2c-0.1,-0.2 0,-0.4 0.2,-0.5l7.4,-3.2c0.2,-0.1 0.4,0 0.5,0.2s0,0.4 -0.2,0.5l-7.4,3.2c-0.1,0 -0.2,0 -0.2,0z" /><path
         id="svg_529"
         d="m154.5,239.7c-0.1,0 -0.3,-0.1 -0.3,-0.2c-0.1,-0.2 0,-0.4 0.2,-0.5l7.2,-3.1c0.2,-0.1 0.4,0 0.5,0.2s0,0.4 -0.2,0.5l-7.2,3.1c-0.1,0 -0.2,0 -0.2,0z" /><path
         id="svg_530"
         d="m155.2,240.9c-0.1,0 -0.3,-0.1 -0.3,-0.2c-0.1,-0.2 0,-0.4 0.2,-0.5l7,-3c0.2,-0.1 0.4,0 0.5,0.2s0,0.4 -0.2,0.5l-7,3c-0.1,0 -0.2,0 -0.2,0z" /><path
         id="svg_531"
         d="m155.6,242.2c-0.1,0 -0.3,-0.1 -0.3,-0.2c-0.1,-0.2 0,-0.4 0.2,-0.5l7,-3c0.2,-0.1 0.4,0 0.5,0.2s0,0.4 -0.2,0.5l-7,3c-0.1,0 -0.1,0 -0.2,0z" /><path
         id="svg_532"
         d="m155.8,243.7c-0.1,0 -0.3,-0.1 -0.3,-0.2c-0.1,-0.2 0,-0.4 0.2,-0.5l7.1,-3c0.2,-0.1 0.4,0 0.5,0.2s0,0.4 -0.2,0.5l-7.1,3c-0.1,0 -0.2,0 -0.2,0z" /><path
         id="svg_533"
         d="m155.8,245.3c-0.1,0 -0.3,-0.1 -0.3,-0.2c-0.1,-0.2 0,-0.4 0.2,-0.5l7,-3c0.2,-0.1 0.4,0 0.5,0.2s0,0.4 -0.2,0.5l-7,3c-0.1,0 -0.2,0 -0.2,0z" /><path
         id="svg_534"
         d="m155.3,247c-0.1,0 -0.3,-0.1 -0.3,-0.2c-0.1,-0.2 0,-0.4 0.2,-0.5l6.9,-3c0.2,-0.1 0.4,0 0.5,0.2s0,0.4 -0.2,0.5l-6.9,3c-0.1,0 -0.1,0 -0.2,0z" /><path
         id="svg_535"
         d="m154.1,249.1c-0.1,0 -0.3,-0.1 -0.3,-0.2c-0.1,-0.2 0,-0.4 0.2,-0.5l7.3,-3.1c0.2,-0.1 0.4,0 0.5,0.2s0,0.4 -0.2,0.5l-7.3,3.1c-0.1,0 -0.1,0 -0.2,0z" /><path
         id="svg_536"
         d="m148,240.7c0,0 -0.1,0 -0.2,0c-0.3,0 -0.5,-0.2 -0.6,-0.4c-0.2,-0.2 -0.2,-0.5 -0.2,-0.8s0.2,-0.5 0.4,-0.6c0.2,-0.2 0.5,-0.2 0.8,-0.2s0.5,0.2 0.6,0.4c0.2,0.2 0.2,0.5 0.2,0.8s-0.2,0.5 -0.4,0.6c-0.2,0.2 -0.4,0.2 -0.6,0.2zm0,-1.3c-0.1,0 -0.1,0 -0.2,0c-0.1,0 -0.1,0.1 -0.1,0.2s0,0.2 0,0.3s0.1,0.1 0.2,0.1c0.1,0 0.2,0 0.3,0s0.1,-0.1 0.1,-0.2c0,-0.1 0,-0.2 0,-0.3c-0.1,-0.1 -0.1,-0.1 -0.3,-0.1l0,0z" /><path
         id="svg_537"
         d="m152.4,242.5c0,0 -0.1,0 -0.2,0c-0.3,0 -0.5,-0.2 -0.6,-0.4c-0.2,-0.2 -0.2,-0.5 -0.2,-0.8s0.2,-0.5 0.4,-0.6c0.2,-0.2 0.5,-0.2 0.8,-0.2s0.5,0.2 0.6,0.4c0.2,0.2 0.2,0.5 0.2,0.8s-0.2,0.5 -0.4,0.6c-0.2,0.1 -0.4,0.2 -0.6,0.2zm0,-1.4c-0.1,0 -0.1,0 -0.2,0c-0.1,0 -0.1,0.1 -0.1,0.2c0,0.1 0,0.2 0,0.3s0.1,0.1 0.2,0.1c0.1,0 0.2,0 0.3,0s0.1,-0.1 0.1,-0.2c0,-0.1 0,-0.2 0,-0.3c-0.1,0 -0.2,-0.1 -0.3,-0.1l0,0z" /><path
         id="svg_538"
         d="m151.9,247.4c0,0 -0.1,0 -0.2,0c-0.3,0 -0.5,-0.2 -0.6,-0.4c-0.2,-0.2 -0.2,-0.5 -0.2,-0.8s0.2,-0.5 0.4,-0.6c0.2,-0.2 0.5,-0.2 0.8,-0.2s0.5,0.2 0.6,0.4c0.2,0.2 0.2,0.5 0.2,0.8l0,0c0,0.3 -0.2,0.5 -0.4,0.6c-0.1,0.2 -0.4,0.2 -0.6,0.2zm0,-1.3c-0.1,0 -0.1,0 -0.2,0c-0.1,0 -0.1,0.1 -0.1,0.2c0,0.1 0,0.2 0,0.3s0.1,0.1 0.2,0.1c0.1,0 0.2,0 0.3,0s0.1,-0.1 0.1,-0.2c0,-0.1 0,-0.2 0,-0.3c0,0 -0.1,-0.1 -0.3,-0.1c0.1,0 0.1,0 0,0zm0.7,0.5l0,0l0,0z" /><path
         id="svg_539"
         d="m147.8,245.3c-0.1,0 -0.2,0 -0.3,0c-0.3,-0.1 -0.5,-0.3 -0.6,-0.5c-0.1,-0.3 -0.2,-0.5 -0.1,-0.8c0.1,-0.3 0.3,-0.5 0.5,-0.6l0,0c0.5,-0.3 1.1,-0.1 1.4,0.4c0.3,0.5 0.1,1.1 -0.4,1.4c-0.2,0 -0.3,0.1 -0.5,0.1zm-0.2,-1.3c-0.2,0.1 -0.2,0.3 -0.1,0.4c0,0.1 0.1,0.1 0.2,0.2c0.1,0 0.2,0 0.3,0c0.2,-0.1 0.2,-0.3 0.1,-0.4c-0.1,-0.2 -0.3,-0.3 -0.5,-0.2l0,0z" /></g><g
       id="svg_540"><path
         id="svg_541"
         d="m188,215.5c-5.5,0 -9.9,-4.4 -9.9,-9.7c0,-5.4 4.4,-9.7 9.9,-9.7c3.2,0 6.3,1.6 8.1,4.2c0.1,0.2 0.1,0.4 -0.1,0.5c-0.2,0.1 -0.4,0.1 -0.5,-0.1c-1.7,-2.4 -4.5,-3.9 -7.5,-3.9c-5.1,0 -9.2,4.1 -9.2,9.1s4.1,9.1 9.2,9.1c0.2,0 0.3,0.2 0.3,0.3s-0.1,0.2 -0.3,0.2z" /><path
         id="svg_542"
         d="m180,201c-0.1,0 -0.3,-0.1 -0.3,-0.2c-0.1,-0.2 0,-0.4 0.2,-0.5l9.7,-4.2c0.2,-0.1 0.4,0 0.5,0.2s0,0.4 -0.2,0.5l-9.7,4.2c-0.1,0 -0.1,0 -0.2,0z" /><path
         id="svg_543"
         d="m182.9,201.3c-0.1,0 -0.3,-0.1 -0.3,-0.2c-0.1,-0.2 0,-0.4 0.2,-0.5l8.8,-3.9c0.2,-0.1 0.4,0 0.5,0.2s0,0.4 -0.2,0.5l-8.8,3.9c-0.1,0 -0.1,0 -0.2,0z" /><path
         id="svg_544"
         d="m185.3,201.8c-0.1,0 -0.3,-0.1 -0.3,-0.2c-0.1,-0.2 0,-0.4 0.2,-0.5l8,-3.5c0.2,-0.1 0.4,0 0.5,0.2s0,0.4 -0.2,0.5l-8,3.5c-0.1,0 -0.1,0 -0.2,0z" /><path
         id="svg_545"
         d="m187,202.7c-0.1,0 -0.3,-0.1 -0.3,-0.2c-0.1,-0.2 0,-0.4 0.2,-0.5l7.6,-3.3c0.2,-0.1 0.4,0 0.5,0.2s0,0.4 -0.2,0.5l-7.6,3.3c-0.1,-0.1 -0.1,0 -0.2,0z" /><path
         id="svg_546"
         d="m188.2,203.7c-0.1,0 -0.3,-0.1 -0.3,-0.2c-0.1,-0.2 0,-0.4 0.2,-0.5l7.4,-3.2c0.2,-0.1 0.4,0 0.5,0.2s0,0.4 -0.2,0.5l-7.4,3.2c-0.1,-0.1 -0.1,0 -0.2,0z" /><path
         id="svg_547"
         d="m189.1,204.8c-0.1,0 -0.3,-0.1 -0.3,-0.2c-0.1,-0.2 0,-0.4 0.2,-0.5l5.8,-2.5c0.2,-0.1 0.4,0 0.5,0.2s0,0.4 -0.2,0.5l-5.8,2.5c-0.1,0 -0.1,0 -0.2,0z" /><path
         id="svg_548"
         d="m189.8,206.1c-0.1,0 -0.3,-0.1 -0.3,-0.2c-0.1,-0.2 0,-0.4 0.2,-0.5l4.1,-1.8c0.2,-0.1 0.4,0 0.5,0.2s0,0.4 -0.2,0.5l-4.1,1.7c-0.1,0.1 -0.1,0.1 -0.2,0.1z" /><path
         id="svg_549"
         d="m190.3,207.4c-0.1,0 -0.3,-0.1 -0.3,-0.2c-0.1,-0.2 0,-0.4 0.2,-0.5l2.8,-1.2c0.2,-0.1 0.4,0 0.5,0.2s0,0.4 -0.2,0.5l-2.8,1.2c-0.1,0 -0.1,0 -0.2,0z" /><path
         id="svg_550"
         d="m190.5,208.9c-0.1,0 -0.3,-0.1 -0.3,-0.2c-0.1,-0.2 0,-0.4 0.2,-0.5l1.7,-0.7c0.2,-0.1 0.4,0 0.5,0.2s0,0.4 -0.2,0.5l-1.7,0.7c-0.1,-0.1 -0.2,0 -0.2,0z" /><path
         id="svg_551"
         d="m190.4,210.5c-0.1,0 -0.3,-0.1 -0.3,-0.2c-0.1,-0.2 0,-0.4 0.2,-0.5l0.6,-0.3c0.2,-0.1 0.4,0 0.5,0.2s0,0.4 -0.2,0.5l-0.6,0.3c-0.1,-0.1 -0.1,0 -0.2,0z" /><path
         id="svg_552"
         d="m190,211.8" /><path
         id="svg_553"
         d="m196.9,208.8" /><path
         id="svg_554"
         d="m188.8,213.9" /><path
         id="svg_555"
         d="m196.1,210.8" /><path
         id="svg_556"
         d="m182.7,205.9c0,0 -0.1,0 -0.2,0c-0.3,0 -0.5,-0.2 -0.6,-0.4c-0.2,-0.2 -0.2,-0.5 -0.2,-0.8s0.2,-0.5 0.4,-0.6c0.2,-0.2 0.5,-0.2 0.8,-0.2c0.6,0.1 0.9,0.6 0.8,1.1c0,0.3 -0.2,0.5 -0.4,0.6c-0.3,0.2 -0.4,0.3 -0.6,0.3zm0,-1.3c-0.1,0 -0.1,0 -0.2,0c-0.1,0 -0.1,0.1 -0.1,0.2c0,0.1 0,0.2 0,0.3s0.1,0.1 0.2,0.1c0.1,0 0.2,0 0.3,0s0.1,-0.1 0.1,-0.2c0,-0.2 -0.1,-0.4 -0.3,-0.4l0,0z" /><path
         id="svg_557"
         d="m187,207.6c0,0 -0.1,0 -0.2,0c-0.3,0 -0.5,-0.2 -0.6,-0.4c-0.2,-0.2 -0.2,-0.5 -0.2,-0.8c0.1,-0.6 0.6,-0.9 1.1,-0.8c0.6,0.1 0.9,0.6 0.8,1.1c0,0.6 -0.4,0.9 -0.9,0.9zm0,-1.3c-0.2,0 -0.3,0.1 -0.3,0.3c0,0.1 0,0.2 0,0.3s0.1,0.1 0.2,0.1c0.2,0 0.3,-0.1 0.4,-0.3c0.1,-0.2 0,-0.3 -0.3,-0.4c0.1,0 0,0 0,0z" /><path
         id="svg_558"
         d="m186.6,212.6c0,0 -0.1,0 -0.2,0c-0.6,-0.1 -0.9,-0.6 -0.8,-1.1c0,-0.3 0.2,-0.5 0.4,-0.6c0.2,-0.2 0.5,-0.2 0.8,-0.2s0.5,0.2 0.6,0.4c0.2,0.2 0.2,0.5 0.2,0.8s-0.2,0.5 -0.4,0.6c-0.2,0 -0.4,0.1 -0.6,0.1zm0,-1.3c-0.2,0 -0.3,0.1 -0.3,0.3s0.1,0.3 0.3,0.4c0.1,0 0.2,0 0.3,0s0.1,-0.1 0.1,-0.2c0,-0.3 -0.2,-0.5 -0.4,-0.5l0,0z" /><path
         id="svg_559"
         d="m182.4,210.4c-0.1,0 -0.2,0 -0.3,0c-0.3,-0.1 -0.5,-0.3 -0.6,-0.5c-0.3,-0.5 -0.1,-1.1 0.4,-1.4l0,0c0.3,-0.1 0.5,-0.2 0.8,-0.1s0.5,0.3 0.6,0.5c0.1,0.3 0.2,0.5 0.1,0.8c-0.1,0.3 -0.3,0.5 -0.5,0.6c-0.2,0.1 -0.3,0.1 -0.5,0.1zm-0.1,-1.3c-0.2,0.1 -0.2,0.3 -0.1,0.4c0,0.1 0.1,0.1 0.2,0.2c0.1,0 0.2,0 0.3,0s0.1,-0.1 0.2,-0.2c0,-0.1 0,-0.2 0,-0.3c-0.3,-0.1 -0.5,-0.1 -0.6,-0.1l0,0z" /></g><g
       id="svg_560"><path
         id="svg_561"
         d="m131.2,253.6c-0.6,0 -1.2,-0.2 -1.6,-0.5c-0.5,-0.3 -0.5,-0.7 -0.4,-0.9l0,0c0,-0.1 0,-0.2 0.1,-0.3c0.3,-0.8 0.5,-1.6 -0.1,-2c-0.3,-0.2 -0.6,-0.3 -0.9,-0.4c-0.8,-0.3 -1.7,-0.5 -1.7,-2.3c0,-1.1 0.3,-1.9 0.8,-2.5c0.8,-0.8 2.2,-1 4.4,-0.7c3.9,0.5 4.5,1.8 4.3,4.2c-0.1,1.2 -1,1.6 -1.7,1.9c-0.9,0.4 -1.7,0.7 -1.6,2.3c0,0.5 -0.2,0.9 -0.6,1.1c-0.4,0.1 -0.7,0.1 -1,0.1zm-1.4,-1.2c0,0 0.1,0.1 0.3,0.3c0.5,0.3 1.2,0.4 1.6,0.2c0.1,0 0.3,-0.2 0.2,-0.5c0,-2.1 1.1,-2.6 2,-3c0.8,-0.3 1.2,-0.6 1.3,-1.3c0.2,-2 -0.1,-3 -3.6,-3.4c-1.9,-0.3 -3.1,-0.1 -3.8,0.6c-0.5,0.4 -0.7,1.1 -0.6,2c0,1.3 0.5,1.4 1.2,1.7c0.3,0.1 0.8,0.2 1.1,0.5c1.1,0.8 0.6,2.2 0.3,2.9c0.1,-0.1 0.1,0 0,0z" /><path
         id="svg_562"
         d="m126.9,247.3c-0.1,0 -0.2,0 -0.2,-0.1c-0.2,-0.1 -0.2,-0.3 0,-0.5c0,0 0.6,-0.8 1.6,-1.1c0.2,0 0.4,0 0.4,0.2s0,0.4 -0.2,0.4c-0.7,0.2 -1.2,0.8 -1.2,0.9c-0.3,0.1 -0.3,0.2 -0.4,0.2z" /><path
         id="svg_563"
         d="m127,248.5c-0.1,0 -0.2,0 -0.2,-0.1c-0.1,-0.1 -0.2,-0.3 0,-0.5c0,0 1,-1.1 2.3,-1.4c0.2,0 0.4,0.1 0.4,0.3s-0.1,0.4 -0.3,0.4c-1.1,0.2 -1.9,1.1 -1.9,1.1c0,0.2 -0.1,0.2 -0.3,0.2z" /><path
         id="svg_564"
         d="m128.1,249.4l-0.1,0c-0.2,-0.1 -0.3,-0.3 -0.2,-0.4c0,-0.1 0.4,-1 2,-1.1c0.2,0 0.4,0.1 0.4,0.3s-0.1,0.4 -0.3,0.4c-1.2,0.1 -1.4,0.7 -1.4,0.7c-0.1,0.1 -0.3,0.1 -0.4,0.1z" /><path
         id="svg_565"
         d="m131.7,245.5c-0.1,0 -0.3,-0.1 -0.3,-0.3s0,-0.4 0.2,-0.4c1.4,-0.5 2.7,-0.3 2.8,-0.3c0.2,0 0.3,0.2 0.3,0.4s-0.2,0.3 -0.4,0.3c0,0 -1.2,-0.2 -2.4,0.2c-0.1,0.1 -0.2,0.1 -0.2,0.1z" /><path
         id="svg_566"
         d="m132.2,246.8c-0.2,0 -0.3,-0.1 -0.3,-0.3s0,-0.4 0.3,-0.4c2.1,-0.6 3,-0.3 3.3,-0.3c0.2,0 0.3,0.2 0.3,0.4s-0.2,0.3 -0.4,0.3c0,0 0,0 -0.1,0c-0.7,-0.2 -1.7,-0.1 -3.1,0.3l0,0z" /><path
         id="svg_567"
         d="m132.2,247.9c-0.2,0 -0.3,-0.1 -0.3,-0.3s0.1,-0.4 0.3,-0.4c2.5,-0.6 3.3,-0.3 3.4,-0.2c0.2,0.1 0.3,0.3 0.2,0.5s-0.3,0.3 -0.5,0.2c0,0 -0.7,-0.3 -3.1,0.2c0.1,0 0.1,0 0,0z" /><path
         id="svg_568"
         d="m131.3,251.7c-0.2,0 -0.3,-0.1 -0.3,-0.3s0.1,-0.3 0.3,-0.4c0.7,0 1.1,-0.3 1.1,-0.3c0.2,-0.1 0.4,0 0.5,0.1c0.1,0.2 0,0.4 -0.1,0.5c-0.2,0.1 -0.6,0.4 -1.5,0.4l0,0z" /><path
         id="svg_569"
         d="m131.1,252.7c-0.2,0 -0.3,-0.1 -0.3,-0.3s0.1,-0.3 0.3,-0.4c0.7,0 1.1,-0.3 1.1,-0.3c0.2,-0.1 0.4,0 0.5,0.1c0.1,0.2 0,0.4 -0.1,0.5c-0.1,0.1 -0.6,0.4 -1.5,0.4l0,0z" /></g><g
       id="svg_570"><path
         id="svg_571"
         d="m145.2,300.1c-0.4,0 -0.8,0 -1.3,-0.1c-3.2,-0.4 -4.1,-1.3 -3.9,-3.8c0.1,-1.1 0.8,-1.4 1.5,-1.7c0.8,-0.3 1.4,-0.6 1.4,-2.1c0,-0.5 0.2,-0.8 0.6,-1.1c0.6,-0.3 1.7,-0.1 2.2,0.3c0.4,0.3 0.4,0.6 0.4,0.8l0,0c0,0.1 0,0.2 -0.1,0.3c-0.2,0.7 -0.4,1.4 0.1,1.8c0.3,0.2 0.6,0.3 0.8,0.3c0.7,0.2 1.5,0.5 1.6,2.1c0,1 -0.2,1.8 -0.8,2.3c-0.4,0.7 -1.3,0.9 -2.5,0.9zm-0.9,-8.1c0,0 -0.1,0 -0.2,0c-0.4,0 -0.5,0.3 -0.5,0.5c0,1.9 -1,2.4 -1.8,2.7c-0.7,0.3 -1.1,0.5 -1.1,1.1c-0.2,1.7 0.1,2.6 3.3,3c1.7,0.2 2.8,0 3.4,-0.5c0.4,-0.4 0.6,-0.9 0.6,-1.7c0,-1.1 -0.4,-1.3 -1.1,-1.4c-0.3,-0.1 -0.7,-0.2 -1,-0.5c-1,-0.7 -0.6,-2 -0.4,-2.6c0,-0.1 0,-0.2 0.1,-0.2c-0.2,-0.1 -0.7,-0.4 -1.3,-0.4zm1.2,0.4l0,0l0,0l0,0z" /><path
         id="svg_572"
         d="m147,298.6c-0.1,0 -0.3,-0.1 -0.3,-0.3s0,-0.4 0.2,-0.4c0.6,-0.2 1.1,-0.8 1.1,-0.8c0.1,-0.2 0.3,-0.2 0.5,0c0.2,0.1 0.2,0.3 0,0.5c-0.1,0 -0.6,0.7 -1.5,1c0.1,0 0,0 0,0z" /><path
         id="svg_573"
         d="m146.2,297.7c-0.2,0 -0.3,-0.1 -0.3,-0.3c0,-0.2 0.1,-0.4 0.3,-0.4c1,-0.2 1.7,-1 1.7,-1c0.1,-0.1 0.3,-0.2 0.5,0c0.1,0.1 0.2,0.3 0,0.5c0,0 -0.8,1 -2,1.2c-0.2,0 -0.2,0 -0.2,0z" /><path
         id="svg_574"
         d="m145.6,296.6c-0.2,0 -0.3,-0.1 -0.3,-0.3c0,-0.2 0.1,-0.4 0.3,-0.4c1,-0.1 1.3,-0.6 1.3,-0.6c0.1,-0.2 0.3,-0.3 0.5,-0.2c0.2,0.1 0.3,0.3 0.2,0.4c-0.2,0.1 -0.5,0.9 -2,1.1l0,0z" /><path
         id="svg_575"
         d="m142.2,299.5c-0.4,0 -0.6,0 -0.7,0c-0.2,0 -0.3,-0.2 -0.3,-0.4c0,-0.2 0.2,-0.3 0.4,-0.3c0,0 1.1,0.2 2.2,-0.2c0.2,0 0.4,0 0.4,0.2s0,0.4 -0.2,0.4c-0.6,0.3 -1.3,0.3 -1.8,0.3z" /><path
         id="svg_576"
         d="m141.4,298.5c-0.5,0 -0.7,-0.1 -0.8,-0.1c-0.2,0 -0.3,-0.2 -0.3,-0.4c0,-0.2 0.2,-0.3 0.4,-0.3c0,0 0,0 0.1,0c0.6,0.2 1.5,0.1 2.6,-0.3c0.2,0 0.4,0 0.4,0.3c0,0.2 0,0.4 -0.3,0.4c-0.9,0.3 -1.6,0.4 -2.1,0.4z" /><path
         id="svg_577"
         d="m141.2,297.4c-0.5,0 -0.7,-0.1 -0.8,-0.1c-0.2,-0.1 -0.3,-0.3 -0.2,-0.5s0.3,-0.3 0.5,-0.2c0,0 0.7,0.2 2.7,-0.3c0.2,0 0.4,0.1 0.4,0.3s-0.1,0.4 -0.3,0.4c-1.1,0.4 -1.9,0.4 -2.3,0.4z" /><path
         id="svg_578"
         d="m143.2,294c-0.1,0 -0.3,0 -0.3,-0.2c-0.1,-0.2 0,-0.4 0.1,-0.5c0,0 0.5,-0.3 1.2,-0.3c0.2,0 0.3,0.1 0.4,0.3c0,0.2 -0.1,0.3 -0.3,0.4c-0.6,0 -0.9,0.3 -0.9,0.3c-0.1,0 -0.2,0 -0.2,0z" /><path
         id="svg_579"
         d="m143.3,293.1c-0.1,0 -0.3,0 -0.3,-0.2c-0.1,-0.2 0,-0.4 0.1,-0.5c0,0 0.5,-0.3 1.2,-0.3c0.2,0 0.3,0.1 0.4,0.3c0,0.2 -0.1,0.3 -0.3,0.4c-0.6,0 -0.9,0.3 -0.9,0.3c-0.1,0 -0.1,0 -0.2,0z" /></g><g
       id="svg_580"><path
         id="svg_581"
         d="m170,224.2c-0.1,0 -0.3,0 -0.4,0c-1.1,-0.1 -1.9,-0.5 -2.4,-1.1c-0.6,-0.9 -0.7,-2.3 -0.2,-4.4c1,-3.8 2.3,-4.2 4.7,-3.7c1.2,0.3 1.4,1.1 1.6,1.9c0.3,0.9 0.5,1.7 2.1,1.9c0.5,0 0.9,0.3 1.1,0.8c0.3,0.8 -0.1,1.8 -0.6,2.4c-0.4,0.4 -0.8,0.3 -0.9,0.3l0,0c-0.1,0 -0.2,-0.1 -0.3,-0.1c-0.7,-0.3 -1.5,-0.7 -2,-0.1c-0.3,0.3 -0.4,0.6 -0.5,0.9c-0.4,0.4 -0.8,1.2 -2.2,1.2zm0.3,-8.8c-1.2,0 -1.9,0.7 -2.6,3.4c-0.5,1.9 -0.5,3.1 0,3.9c0.3,0.5 1,0.8 1.9,0.8c1.3,0.1 1.5,-0.3 1.8,-1c0.2,-0.3 0.3,-0.7 0.6,-1.1c0.9,-1 2.3,-0.3 2.8,0c0.1,0 0.2,0.1 0.2,0.1s0.2,0 0.3,-0.3c0.3,-0.4 0.5,-1.1 0.3,-1.6c0,-0.1 -0.1,-0.3 -0.5,-0.3c-2.1,-0.2 -2.5,-1.4 -2.7,-2.4c-0.2,-0.8 -0.4,-1.3 -1.1,-1.4c-0.2,0 -0.6,-0.1 -1,-0.1z"
         fill="#FFFFFF" /><path
         id="svg_582"
         d="m169.4,224.1c-0.1,0 -0.2,0 -0.3,-0.1c0,0 -0.7,-0.8 -0.9,-1.7c0,-0.2 0.1,-0.4 0.3,-0.4s0.4,0.1 0.4,0.3c0.1,0.7 0.7,1.3 0.7,1.3c0.1,0.1 0.1,0.3 0,0.5c-0.1,0.1 -0.1,0.1 -0.2,0.1z"
         fill="#FFFFFF" /><path
         id="svg_583"
         d="m170.6,224.1c-0.1,0 -0.2,0 -0.3,-0.1c0,0 -0.9,-1.1 -1.1,-2.4c0,-0.2 0.1,-0.3 0.3,-0.4c0.2,0 0.3,0.1 0.4,0.3c0.1,1.1 0.9,2 0.9,2c0.1,0.1 0.1,0.4 0,0.5c0,0 -0.1,0.1 -0.2,0.1z"
         fill="#FFFFFF" /><path
         id="svg_584"
         d="m171.7,223.2c0,0 -0.1,0 -0.2,0c-0.1,0 -0.9,-0.5 -0.9,-2.1c0,-0.2 0.2,-0.3 0.3,-0.3l0,0c0.2,0 0.3,0.2 0.3,0.3c0,1.2 0.5,1.5 0.6,1.5c0.2,0.1 0.2,0.3 0.1,0.5c0,0 -0.1,0.1 -0.2,0.1z"
         fill="#FFFFFF" /><path
         id="svg_585"
         d="m168.2,219.1c-0.2,0 -0.3,-0.1 -0.3,-0.3c-0.3,-1.4 0.1,-2.7 0.1,-2.8c0,-0.2 0.3,-0.3 0.4,-0.3c0.2,0 0.3,0.3 0.3,0.4c0,0 -0.3,1.2 -0.1,2.4c0,0.3 -0.1,0.5 -0.4,0.6c0.1,0 0.1,0 0,0z"
         fill="#FFFFFF" /><path
         id="svg_586"
         d="m169.5,218.8c-0.2,0 -0.3,-0.1 -0.3,-0.3c-0.3,-2.1 0,-3 0.2,-3.3c0,-0.2 0.3,-0.3 0.4,-0.3c0.2,0 0.3,0.2 0.3,0.4c0,0 0,0 0,0.1c-0.3,0.7 -0.3,1.7 -0.1,3c-0.1,0.1 -0.3,0.4 -0.5,0.4c0.1,0 0.1,0 0,0z"
         fill="#FFFFFF" /><path
         id="svg_587"
         d="m170.7,218.8c-0.2,0 -0.3,-0.1 -0.3,-0.3c-0.2,-2.6 0.2,-3.3 0.3,-3.4c0.1,-0.2 0.3,-0.2 0.5,-0.1c0.2,0.1 0.2,0.3 0.1,0.5c0,0 -0.3,0.7 -0.1,3c-0.1,0.2 -0.3,0.3 -0.5,0.3l0,0z"
         fill="#FFFFFF" /><path
         id="svg_588"
         d="m174.4,220.3l0,0c-0.2,0 -0.3,-0.2 -0.3,-0.3c0,-0.7 -0.1,-1.1 -0.1,-1.1c-0.1,-0.2 0,-0.4 0.2,-0.5s0.4,0 0.5,0.2c0,0 0.2,0.6 0.2,1.4c-0.2,0.1 -0.4,0.3 -0.5,0.3z"
         fill="#FFFFFF" /><path
         id="svg_589"
         d="m175.3,220.6l0,0c-0.2,0 -0.3,-0.2 -0.3,-0.3c0,-0.7 -0.1,-1.1 -0.1,-1.1c-0.1,-0.2 0,-0.4 0.2,-0.5s0.4,0 0.5,0.2c0,0 0.2,0.6 0.2,1.4c-0.1,0.2 -0.3,0.3 -0.5,0.3z"
         fill="#FFFFFF" /></g><g
       id="svg_590"><path
         id="svg_591"
         d="m187.6,174.7c-0.8,0 -1.3,-0.5 -1.7,-0.9c-0.7,-0.6 -1.3,-1.2 -2.8,-0.5c-0.5,0.2 -0.9,0.2 -1.3,-0.1c-0.6,-0.5 -0.8,-1.7 -0.7,-2.3s0.5,-0.7 0.6,-0.7s0.2,0 0.3,0c0.8,-0.1 1.7,-0.2 1.8,-1c0.1,-0.3 0,-0.7 0,-1c-0.1,-0.8 -0.2,-1.7 1.4,-2.5c1,-0.5 1.9,-0.6 2.6,-0.3c1,0.4 1.8,1.7 2.5,3.7c1.1,3.8 0.2,4.8 -2.1,5.6c-0.2,0 -0.4,0 -0.6,0zm-3.3,-2.4c0.9,0 1.5,0.6 2,1c0.6,0.6 1,0.9 1.7,0.6c1.9,-0.6 2.7,-1.3 1.6,-4.7c-0.6,-1.8 -1.2,-2.9 -2,-3.2c-0.6,-0.3 -1.2,-0.2 -2.1,0.3c-1.2,0.6 -1.1,1.1 -1,1.8c0,0.4 0.1,0.8 0,1.2c-0.3,1.4 -1.8,1.5 -2.4,1.5c-0.1,0 -0.2,0 -0.3,0c0,0 -0.1,0.1 -0.1,0.4c0,0.5 0.1,1.2 0.5,1.5c0.1,0.1 0.3,0.1 0.6,0c0.6,-0.3 1.1,-0.4 1.5,-0.4zm-2.5,-1.8l0,0l0,0z" /><path
         id="svg_592"
         d="m187.1,167c-0.1,0 -0.2,0 -0.3,-0.1c-0.5,-0.6 -1.3,-0.8 -1.3,-0.8c-0.2,0 -0.3,-0.2 -0.3,-0.4s0.2,-0.3 0.4,-0.3c0,0 1,0.3 1.7,1c0.1,0.1 0.1,0.4 0,0.5c0,0.1 -0.1,0.1 -0.2,0.1z" /><path
         id="svg_593"
         d="m186.5,168.3c-0.1,0 -0.2,0 -0.3,-0.1c-0.7,-0.9 -1.8,-1.3 -1.8,-1.3c-0.2,0 -0.3,-0.3 -0.2,-0.4c0,-0.2 0.3,-0.3 0.4,-0.2c0,0 1.4,0.4 2.2,1.5c0.1,0.2 0.1,0.4 -0.1,0.5c0,-0.1 -0.1,0 -0.2,0z" /><path
         id="svg_594"
         d="m185.7,169.4c-0.1,0 -0.2,0 -0.3,-0.2c-0.6,-1 -1.2,-1 -1.3,-1l0,0c-0.2,0 -0.3,-0.1 -0.3,-0.3s0.1,-0.3 0.3,-0.3c0.1,0 1.1,0 1.9,1.4c0.1,0.2 0,0.4 -0.1,0.5c-0.1,-0.1 -0.1,-0.1 -0.2,-0.1z" /><path
         id="svg_595"
         d="m190.5,172.1c-0.2,0 -0.3,-0.1 -0.3,-0.3c0,0 -0.3,-1.2 -1.2,-2.1c-0.1,-0.1 -0.1,-0.3 0,-0.5c0.1,-0.1 0.3,-0.1 0.5,0c1,1.1 1.4,2.3 1.4,2.4c0,0.2 -0.1,0.4 -0.4,0.5l0,0z" /><path
         id="svg_596"
         d="m189.8,173.6c-0.1,0 -0.3,-0.1 -0.3,-0.3c0,0 0,0 0,-0.1c-0.1,-0.7 -0.6,-1.6 -1.4,-2.6c-0.1,-0.1 -0.1,-0.4 0,-0.5s0.4,-0.1 0.5,0c1.4,1.7 1.5,2.6 1.6,2.9c-0.1,0.4 -0.2,0.6 -0.4,0.6l0,0z" /><path
         id="svg_597"
         d="m188.7,174.2l0,0c-0.2,0 -0.3,-0.2 -0.3,-0.3c0,0 -0.1,-0.8 -1.4,-2.6c-0.1,-0.2 -0.1,-0.4 0.1,-0.5c0.2,-0.1 0.4,-0.1 0.5,0.1c1.5,2.1 1.6,2.9 1.6,3c-0.1,0.2 -0.2,0.3 -0.5,0.3z" /><path
         id="svg_598"
         d="m184.1,173c-0.1,0 -0.1,0 -0.2,0c0,0 -0.5,-0.3 -0.9,-1.1c-0.1,-0.2 0,-0.4 0.1,-0.5c0.2,-0.1 0.4,0 0.5,0.1c0.3,0.6 0.7,0.8 0.7,0.8c0.2,0.1 0.2,0.3 0.1,0.5c-0.1,0.2 -0.1,0.2 -0.3,0.2z" /><path
         id="svg_599"
         d="m183.2,173.3c-0.1,0 -0.1,0 -0.2,0c0,0 -0.5,-0.3 -0.9,-1.1c-0.1,-0.2 0,-0.4 0.1,-0.5c0.2,-0.1 0.4,0 0.5,0.1c0.3,0.6 0.7,0.8 0.7,0.8c0.2,0.1 0.2,0.3 0.1,0.5c-0.1,0.1 -0.2,0.2 -0.3,0.2z" /></g><g
       id="svg_600"><path
         id="svg_601"
         d="m103.6,176.3c-0.3,0 -0.5,-0.1 -0.6,-0.3l0,0c0,0 -0.1,-0.2 -0.2,-0.3c-0.4,-0.7 -1,-1.4 -1.7,-1.1c-0.3,0.1 -0.6,0.3 -0.9,0.5c-0.6,0.5 -1.4,1 -2.9,0c-0.9,-0.6 -1.4,-1.4 -1.5,-2.2c-0.1,-1.1 0.6,-2.4 2,-3.9c2.8,-2.8 4.1,-2.5 5.9,-0.9c0.9,0.8 0.7,1.7 0.5,2.5c-0.3,0.9 -0.4,1.7 0.9,2.7c0.4,0.3 0.6,0.7 0.6,1.2c-0.1,0.8 -1,1.5 -1.7,1.7c-0.1,0.1 -0.2,0.1 -0.4,0.1zm0,-0.7c0,0 0.2,0 0.4,-0.1c0.5,-0.2 1,-0.7 1.1,-1.2c0,-0.1 0,-0.3 -0.3,-0.5c-1.7,-1.2 -1.4,-2.5 -1.2,-3.4c0.2,-0.8 0.3,-1.3 -0.3,-1.8c-1.5,-1.4 -2.5,-1.7 -4.9,0.9c-1.3,1.4 -1.9,2.5 -1.8,3.4c0,0.6 0.5,1.1 1.2,1.7c1.1,0.8 1.4,0.5 2.1,0c0.3,-0.2 0.6,-0.5 1.1,-0.6c1.3,-0.4 2.2,0.8 2.5,1.4c0,0.1 0.1,0.2 0.1,0.2z" /><path
         id="svg_602"
         d="m97.4,175.1c-0.2,0 -0.3,-0.1 -0.3,-0.3c0,0 -0.3,-1 0,-1.9c0.1,-0.2 0.3,-0.3 0.4,-0.2c0.2,0.1 0.3,0.3 0.2,0.4c-0.3,0.7 0,1.5 0,1.5c0,0.3 -0.1,0.5 -0.3,0.5c0.1,0 0,0 0,0z" /><path
         id="svg_603"
         d="m98.5,175.7c-0.2,0 -0.3,-0.1 -0.3,-0.3c0,0 -0.3,-1.4 0.3,-2.6c0.1,-0.2 0.3,-0.3 0.5,-0.2s0.3,0.3 0.2,0.5c-0.5,1 -0.2,2.2 -0.2,2.2c-0.1,0.2 -0.2,0.4 -0.5,0.4c0.1,0 0,0 0,0z" /><path
         id="svg_604"
         d="m99.9,175.4c-0.1,0 -0.2,0 -0.3,-0.2c0,-0.1 -0.5,-0.9 0.3,-2.3c0.1,-0.2 0.3,-0.2 0.5,-0.1c0.2,0.1 0.2,0.3 0.1,0.5c-0.6,1 -0.3,1.6 -0.3,1.6c0.1,0.2 0,0.4 -0.1,0.5c-0.1,0 -0.1,0 -0.2,0z" /><path
         id="svg_605"
         d="m98.9,170.2c0,0 -0.1,0 0,0c-0.3,0 -0.4,-0.3 -0.3,-0.4c0.4,-1.4 1.4,-2.3 1.4,-2.4c0.1,-0.1 0.3,-0.1 0.5,0c0.1,0.1 0.1,0.3 0,0.5c0,0 -0.9,0.9 -1.3,2.1c0,0.1 -0.2,0.2 -0.3,0.2z" /><path
         id="svg_606"
         d="m100.2,170.5l0,0c-0.3,-0.1 -0.4,-0.3 -0.3,-0.5c0.8,-2 1.5,-2.6 1.8,-2.8c0.1,-0.1 0.4,-0.1 0.5,0s0.1,0.3 0,0.5c0,0 0,0 -0.1,0.1c-0.6,0.5 -1.1,1.3 -1.6,2.5c0,0.2 -0.2,0.2 -0.3,0.2z" /><path
         id="svg_607"
         d="m101.1,171.2l0,0c-0.3,-0.1 -0.4,-0.3 -0.3,-0.5c1.1,-2.4 1.8,-2.8 1.9,-2.9c0.2,-0.1 0.4,0 0.5,0.1c0.1,0.2 0,0.4 -0.1,0.5c0,0 -0.6,0.5 -1.6,2.5c-0.1,0.2 -0.2,0.3 -0.4,0.3z" /><path
         id="svg_608"
         d="m103.6,174.3c0,0 -0.1,0 -0.2,0c-0.2,-0.1 -0.2,-0.3 -0.1,-0.5c0.4,-0.6 0.4,-1 0.4,-1c0,-0.2 0.2,-0.3 0.4,-0.3c0.2,0 0.3,0.2 0.3,0.4c0,0 -0.1,0.6 -0.5,1.3c0,0 -0.2,0.1 -0.3,0.1z" /><path
         id="svg_609"
         d="m104.3,175c0,0 -0.1,0 -0.2,0c-0.2,-0.1 -0.2,-0.3 -0.1,-0.5c0.4,-0.6 0.4,-1 0.4,-1c0,-0.2 0.2,-0.3 0.4,-0.3c0.2,0 0.3,0.2 0.3,0.4c0,0 -0.1,0.6 -0.5,1.3c0,0 -0.2,0.1 -0.3,0.1z" /></g><path
       id="svg_610"
       d="m165.9,260.4c-0.1,0 -0.2,0 -0.2,-0.1c-0.2,-0.1 -0.2,-0.3 0,-0.5c0.5,-0.6 0.8,-1.7 1.1,-2.9c0.4,-1.4 0.8,-3 1.7,-4.7c1.2,-2.3 6.1,-6.1 6.3,-6.2c0.2,-0.1 0.4,-0.1 0.5,0.1c0.1,0.2 0.1,0.4 -0.1,0.5c0,0 -5,3.8 -6.1,6c-0.8,1.6 -1.3,3.2 -1.7,4.6s-0.7,2.5 -1.2,3.1c-0.1,0 -0.1,0.1 -0.3,0.1z" /><path
       id="svg_611"
       d="m166.8,262.5c-0.1,0 -0.1,0 -0.2,0c-0.2,-0.1 -0.2,-0.3 -0.1,-0.5c0.7,-1 1.3,-2.9 1.9,-5c0.3,-0.9 0.6,-1.9 0.9,-2.8c1.2,-3.5 4.3,-5.7 4.4,-5.8c0.2,-0.1 0.4,-0.1 0.5,0.1c0.1,0.2 0.1,0.4 -0.1,0.5c0,0 -3.1,2.2 -4.2,5.4c-0.3,0.9 -0.6,1.9 -0.9,2.8c-0.7,2.2 -1.2,4.1 -2,5.2c0,0.1 -0.1,0.1 -0.2,0.1z" /><path
       id="svg_612"
       d="m167.8,264.6c0,0 -0.1,0 -0.2,0c-0.2,-0.1 -0.2,-0.3 -0.1,-0.5c0.8,-1.3 1.6,-3.5 2.3,-6.6c1.1,-4.8 2.9,-6 3,-6.1c0.2,-0.1 0.4,-0.1 0.5,0.1c0.1,0.2 0.1,0.4 -0.1,0.5c0,0 -1.6,1.2 -2.7,5.6c-0.8,3.2 -1.6,5.5 -2.4,6.8c0,0.1 -0.1,0.2 -0.3,0.2z" /><path
       id="svg_613"
       d="m125.1,272.2c-0.2,0 -0.3,-0.1 -0.3,-0.3c-0.3,-2.8 -1.5,-4 -3.2,-5.8c-0.2,-0.2 -0.4,-0.4 -0.6,-0.6c-2.1,-2.2 -3.3,-4.9 -3.3,-5c-0.1,-0.2 0,-0.4 0.2,-0.5s0.4,0 0.5,0.2c0,0 1.2,2.8 3.2,4.8c0.2,0.2 0.4,0.4 0.6,0.6c1.7,1.8 3.1,3.2 3.4,6.2c-0.2,0.2 -0.3,0.4 -0.5,0.4l0,0z" /><path
       id="svg_614"
       d="m123.7,272.3c-0.2,0 -0.3,-0.1 -0.3,-0.3c-0.3,-2 -0.6,-2.5 -2,-4.2c-1.8,-2 -3.2,-4.1 -3.2,-4.1c-0.1,-0.2 0,-0.4 0.1,-0.5c0.2,-0.1 0.4,0 0.5,0.1c0,0 1.3,2 3.1,4c1.5,1.7 1.9,2.4 2.2,4.5c-0.1,0.3 -0.2,0.5 -0.4,0.5l0,0z" /><path
       id="svg_615"
       d="m122.2,272.2c-0.2,0 -0.3,-0.1 -0.3,-0.3c-0.3,-1.9 -1.8,-3.8 -2.6,-4.8c-0.5,-0.6 -0.6,-0.8 -0.6,-1s0.2,-0.3 0.3,-0.3c0.2,0 0.3,0.1 0.3,0.3c0,0.1 0.3,0.4 0.5,0.6c0.8,1.1 2.4,3.1 2.8,5.1c0,0.2 -0.2,0.4 -0.4,0.4l0,0zm-2.9,-6.1l0,0l0,0z" /><path
       id="svg_616"
       d="m175.4,231.7c-0.2,0 -0.3,-0.2 -0.3,-0.3c0,-0.2 0.2,-0.3 0.3,-0.3c0,0 3.4,0 5.8,-2.2c2.4,-2.2 3.9,-7.8 3.9,-7.8c0,-0.2 0.3,-0.3 0.4,-0.3c0.2,0 0.3,0.3 0.3,0.4c0,0.3 -1.6,5.8 -4.1,8.2c-2.6,2.2 -6.1,2.3 -6.3,2.3z"
       fill="#FFFFFF" /><path
       id="svg_617"
       d="m175.9,233.4c-0.2,0 -0.3,-0.2 -0.3,-0.3c0,-0.2 0.2,-0.3 0.3,-0.3c0,0 3.4,0 5.8,-2.2c0.8,-0.8 1.7,-2.1 2.5,-3.9c0.1,-0.2 0.3,-0.3 0.5,-0.2s0.3,0.3 0.2,0.5c-0.8,1.9 -1.7,3.3 -2.6,4.2c-2.7,2.1 -6.2,2.2 -6.4,2.2z"
       fill="#FFFFFF" /><path
       id="svg_618"
       d="m176.4,235c-0.2,0 -0.3,-0.2 -0.3,-0.3c0,-0.2 0.2,-0.3 0.3,-0.3c0,0 3.4,0 5.8,-2.2c0.5,-0.4 0.9,-1 1.4,-1.8c0.1,-0.2 0.3,-0.2 0.5,-0.1c0.2,0.1 0.2,0.3 0.1,0.5c-0.5,0.8 -1,1.4 -1.5,1.9c-2.6,2.3 -6.2,2.3 -6.3,2.3z"
       fill="#FFFFFF" /><path
       id="svg_619"
       d="m176.9,236.7c-0.2,0 -0.3,-0.2 -0.3,-0.3c0,-0.2 0.2,-0.3 0.3,-0.3c0,0 3.3,0 5.6,-2l0.1,-0.1c0.1,-0.1 0.3,-0.1 0.5,0c0.1,0.1 0.1,0.3 0,0.5c0,0 -0.1,0 -0.1,0.1l0,0c-2.6,2.1 -6,2.1 -6.1,2.1z"
       fill="#FFFFFF" /><path
       id="svg_620"
       d="m177.2,238.5c-0.2,0 -0.3,-0.2 -0.3,-0.3c0,-0.2 0.2,-0.3 0.3,-0.3c0,0 2.2,0 4.2,-1.1c0.2,-0.1 0.4,0 0.5,0.1c0.1,0.2 0,0.4 -0.1,0.5c-2.3,1.1 -4.5,1.1 -4.6,1.1z"
       fill="#FFFFFF" /><path
       id="svg_621"
       d="m177.7,240.2c-0.2,0 -0.3,-0.2 -0.3,-0.3c0,-0.2 0.2,-0.3 0.3,-0.3c0,0 1.1,0 2.5,-0.4c0.2,0 0.4,0 0.4,0.3s0,0.4 -0.3,0.4c-1.4,0.3 -2.6,0.3 -2.6,0.3z"
       fill="#FFFFFF" /><path
       id="svg_622"
       d="m159.1,286.5c-0.1,0 -0.1,0 -0.2,-0.1c-0.2,-0.1 -0.2,-0.3 -0.1,-0.5c0.4,-0.6 1.6,-2.3 1.7,-3.3c0.2,-1.4 0.5,-2.8 2.2,-5.5c1.7,-2.8 2.8,-3.6 2.8,-3.6c0.2,-0.1 0.4,-0.1 0.5,0.1s0.1,0.4 -0.1,0.5c0,0 -1,0.7 -2.6,3.4c-1.6,2.6 -1.9,4 -2.1,5.2c-0.2,1.3 -1.7,3.5 -1.8,3.6c-0.1,0.1 -0.2,0.2 -0.3,0.2z" /><path
       id="svg_623"
       d="m143.9,309.6c-0.4,0 -1,0 -1.9,-0.2c-1.1,-0.2 -2.3,-1 -3.1,-1.7c-0.1,-0.1 -0.2,-0.3 0,-0.5c0.1,-0.1 0.3,-0.2 0.5,0c0.7,0.6 1.8,1.4 2.8,1.5c1.7,0.3 2.4,0.1 2.4,0.1c0.2,0 0.4,0 0.4,0.3c0,0.2 0,0.4 -0.2,0.4c-0.2,0.1 -0.4,0.1 -0.9,0.1z" /><path
       id="svg_624"
       d="m143.8,310.8c-0.4,0 -1,0 -1.9,-0.2c-0.5,-0.1 -1,-0.3 -1.5,-0.6c-0.2,-0.1 -0.2,-0.3 -0.1,-0.5c0.1,-0.2 0.3,-0.2 0.5,-0.1c0.5,0.3 0.9,0.4 1.3,0.5c1.7,0.3 2.4,0.1 2.4,0.1c0.2,0 0.4,0 0.4,0.3c0,0.2 0,0.4 -0.2,0.4c-0.2,0 -0.4,0.1 -0.9,0.1z" /><path
       id="svg_625"
       d="m143.5,311.9c-0.4,0 -1,0 -1.7,-0.1l0,0l0,0l0,0l0,0l0,0l0,0c-0.1,0 -0.2,-0.1 -0.2,-0.1c0,-0.1 -0.1,-0.2 -0.1,-0.3c0,-0.2 0.2,-0.3 0.4,-0.3l0,0l0,0l0,0c1.7,0.2 2.2,0.1 2.2,0.1c0.2,0 0.4,0 0.4,0.3c0,0.2 0,0.4 -0.2,0.4c0.1,-0.1 -0.2,0 -0.8,0z" /><path
       id="svg_626"
       d="m137.3,148.6"
       stroke-miterlimit="10"
       stroke-linejoin="round"
       stroke-linecap="round"
       stroke-width="1.6px"
       stroke="#000000"
       fill="none" /><path
       id="svg_627"
       d="m130,151.9c-0.1,0 -0.3,-0.1 -0.3,-0.2c-0.1,-0.2 0,-0.4 0.2,-0.5l7.4,-3.2c0.2,-0.1 0.4,0 0.5,0.2s0,0.4 -0.2,0.5l-7.4,3.2c-0.1,0 -0.2,0 -0.2,0z" /><path
       id="svg_628"
       d="m133.2,151.9c-0.1,0 -0.3,-0.1 -0.3,-0.2c-0.1,-0.2 0,-0.4 0.2,-0.5l7.4,-3.2c0.2,-0.1 0.4,0 0.5,0.2s0,0.4 -0.2,0.5l-7.4,3.2c-0.1,0 -0.2,0 -0.2,0z" /><path
       id="svg_629"
       d="m135.9,152.1c-0.1,0 -0.3,-0.1 -0.3,-0.2c-0.1,-0.2 0,-0.4 0.2,-0.5l7.4,-3.2c0.2,-0.1 0.4,0 0.5,0.2s0,0.4 -0.2,0.5l-7.4,3.2c-0.1,0 -0.1,0 -0.2,0z" /><path
       id="svg_630"
       d="m138.1,152.6c-0.1,0 -0.3,-0.1 -0.3,-0.2c-0.1,-0.2 0,-0.4 0.2,-0.5l7.4,-3.2c0.2,-0.1 0.4,0 0.5,0.2s0,0.4 -0.2,0.5l-7.4,3.2c-0.1,0 -0.2,0 -0.2,0z" /><path
       id="svg_631"
       d="m139.8,153.2c-0.1,0 -0.3,-0.1 -0.3,-0.2c-0.1,-0.2 0,-0.4 0.2,-0.5l7.4,-3.2c0.2,-0.1 0.4,0 0.5,0.2s0,0.4 -0.2,0.5l-7.4,3.2c-0.1,0 -0.1,0 -0.2,0z" /><path
       id="svg_632"
       d="m117.1,186.9c0,0 -0.1,0 -0.2,0l-3.2,-1.8c-0.2,-0.1 -0.2,-0.3 -0.1,-0.5s0.3,-0.2 0.5,-0.1l3.2,1.8c0.2,0.1 0.2,0.3 0.1,0.5c0,0 -0.2,0.1 -0.3,0.1z" /><path
       id="svg_633"
       d="m113.9,188.7c-0.1,0 -0.3,0 -0.3,-0.2c-0.1,-0.2 0,-0.4 0.1,-0.5l2.1,-1.2l-3.3,0c-0.2,0 -0.3,-0.2 -0.3,-0.3c0,-0.2 0.2,-0.3 0.3,-0.3l4.6,0c0.2,0 0.3,0.1 0.3,0.3s0,0.3 -0.2,0.4l-3.3,1.8c0.1,0 0.1,0 0,0z" /><path
       id="svg_634"
       d="m169.9,186.9c-0.1,0 -0.3,0 -0.3,-0.2c-0.1,-0.2 0,-0.4 0.1,-0.5l3.2,-1.8c0.2,-0.1 0.4,0 0.5,0.1c0.1,0.2 0,0.4 -0.1,0.5l-3.2,1.8c-0.1,0.1 -0.2,0.1 -0.2,0.1z" /><path
       id="svg_635"
       d="m173,188.7c0,0 -0.1,0 -0.2,0l-3.2,-1.8c-0.1,-0.1 -0.2,-0.3 -0.2,-0.4c0,-0.2 0.2,-0.3 0.3,-0.3l4.6,0c0.2,0 0.3,0.2 0.3,0.3c0,0.2 -0.2,0.3 -0.3,0.3l-3.3,0l2.1,1.2c0.2,0.1 0.2,0.3 0.1,0.5c0.1,0.2 0,0.2 -0.2,0.2z" /><path
       id="svg_636"
       d="m214.9,232.7c1.1,-2 2.5,-6.7 -0.3,-15.5c-1.9,-6.2 -3.3,-13.2 -3.3,-13.2c-16.3,13.3 -53.3,5.1 -86.6,8.7c-20.8,2.2 -34.2,9 -42.9,15.2c0,0 -6.9,5.3 0.1,15.1c6.6,9.1 4,19.5 4,19.5l2.8,-2.2c9.3,-7.1 16.6,-11 35.1,-13.9c24,-3.8 37.2,3.3 66.7,-1.3c13.9,-2.2 20.5,-7.3 23.6,-11.1l0,0c-0.1,-0.1 0.3,-0.4 0.8,-1.3c-0.1,0.1 -0.1,0.1 0,0z" /><g
       id="svg_637"><path
         id="svg_638"
         d="m-215.7,349.1c0.5,1.1 0.5,2.1 -0.2,3c0.6,0 1.1,0.1 1.7,0.4c0.6,0.3 1,0.8 1.4,1.7c0.4,0.8 0.4,1.6 0,2.4c-0.3,0.8 -1.1,1.4 -2.2,1.9l-3.4,1.7c-0.2,0.1 -0.3,0.1 -0.5,0s-0.3,-0.2 -0.4,-0.4l-4.7,-9.7c0,-0.1 -0.1,-0.2 0,-0.3c0,0 0.1,-0.1 0.2,-0.2l3.3,-1.6c2.4,-1.1 4,-0.8 4.8,1.1zm-4.3,1.7l1,2l0.1,0c0.9,-0.5 1.2,-1 0.9,-1.7c-0.2,-0.3 -0.4,-0.6 -0.6,-0.6c-0.3,-0.1 -0.6,0 -1,0.2l-0.4,0.1zm1.8,3.8l0.9,2l0.3,-0.1c0.4,-0.2 0.7,-0.4 0.8,-0.7c0.1,-0.3 0.1,-0.6 -0.1,-0.9c-0.2,-0.3 -0.4,-0.6 -0.6,-0.6c-0.3,0 -0.6,0 -1,0.2l-0.3,0.1z"
         fill="#FFFFFF" /><path
         id="svg_639"
         d="m-208.6,343.6c-0.1,-0.2 0.5,-0.5 1.6,-0.9s1.7,-0.5 1.8,-0.3l2.5,7.3c0.4,1.1 0.3,2.1 -0.2,3s-1.4,1.7 -2.8,2.1s-2.5,0.5 -3.6,0c-1.1,-0.4 -1.8,-1.2 -2.2,-2.5l-2.4,-7.1c-0.1,-0.2 0.5,-0.5 1.6,-0.9s1.7,-0.5 1.8,-0.3l2.4,7.2c0.1,0.2 0.3,0.3 0.5,0.4c0.3,0 0.5,0 0.8,0c0.3,-0.1 0.5,-0.2 0.6,-0.4c0.2,-0.2 0.2,-0.4 0.1,-0.6l-2.5,-7z"
         fill="#FFFFFF" /><path
         id="svg_640"
         d="m-199.9,352.1l-2.1,-9.9c0,-0.3 0,-0.5 0,-0.7c0.1,-0.2 0.3,-0.3 0.5,-0.3l2.6,-0.6c1.7,-0.3 3,-0.2 4.1,0.5s1.8,2 2.2,3.9c0.8,4.1 -0.4,6.4 -3.7,7.1l-2.7,0.6c-0.5,0.1 -0.8,-0.1 -0.9,-0.6zm1.4,-8.3l1.1,4.9c0,0.2 0.1,0.4 0.1,0.4s0.1,0 0.3,0c0.6,-0.1 1,-0.4 1.2,-1c0.2,-0.5 0.2,-1.3 0,-2.3c-0.2,-1.1 -0.5,-1.7 -0.9,-1.9c-0.4,-0.3 -0.9,-0.3 -1.6,-0.2l-0.2,0.1z"
         fill="#FFFFFF" /><path
         id="svg_641"
         d="m-189.6,350l-0.9,-10.1c0,-0.3 0,-0.5 0.1,-0.7s0.3,-0.3 0.5,-0.3l2.7,-0.3c1.7,-0.2 3,0.2 4,1s1.5,2.2 1.7,4.1c0.4,4.1 -1.1,6.3 -4.5,6.6l-2.8,0.3c-0.4,0.1 -0.7,-0.1 -0.8,-0.6zm2.4,-8.1l0.5,5c0,0.3 0,0.4 0.1,0.4c0,0 0.1,0.1 0.3,0.1c0.6,0 1,-0.3 1.3,-0.8s0.3,-1.3 0.3,-2.3c-0.1,-1.1 -0.3,-1.7 -0.7,-2c-0.3,-0.3 -0.8,-0.4 -1.6,-0.3l-0.2,-0.1l0,0z"
         fill="#FFFFFF" /><path
         id="svg_642"
         d="m-170.2,349.7c0,0.2 -0.6,0.3 -1.7,0.3c-1.1,0 -1.7,-0.1 -1.7,-0.3l0,-3.9l-2.2,0l0,3.9c0,0.2 -0.6,0.3 -1.7,0.3c-1.1,0 -1.7,-0.1 -1.7,-0.3l0,-11.2c0,-0.3 0.6,-0.3 1.7,-0.3c1.1,0 1.7,0.1 1.7,0.4l0,3.9l2.3,0l0,-3.9c0,-0.2 0.3,-0.3 0.8,-0.3c0.3,0 0.6,0 0.8,0l0.8,0c0.6,0.1 0.8,0.2 0.8,0.3l0.1,11.1z"
         fill="#FFFFFF" /><path
         id="svg_643"
         d="m-160.4,350.5c-0.9,0 -1.4,-0.2 -1.5,-0.6l-0.4,-2.2l-2.6,-0.1l-0.6,2.1c-0.1,0.3 -0.6,0.5 -1.6,0.4c-0.5,0 -0.9,-0.1 -1.1,-0.2c-0.3,-0.1 -0.4,-0.1 -0.4,-0.2l3.4,-11.3c0,-0.1 0.8,-0.1 2.2,0c1.5,0.1 2.2,0.2 2.2,0.3l2.2,11.6c0,0.1 -0.3,0.1 -0.8,0.1c-0.3,0.1 -0.7,0.1 -1,0.1zm-3.9,-5l1.7,0.1l-0.6,-3.5l-0.1,0l-1,3.4z"
         fill="#FFFFFF" /><path
         id="svg_644"
         d="m-155.2,350.8c-1,0 -1.5,-0.2 -1.4,-0.4l0.5,-10.9c0,-0.4 0.2,-0.6 0.5,-0.6l2.8,0.1c1.6,0.1 2.7,0.5 3.4,1.2s1,1.7 0.9,3c0,1.1 -0.4,2 -1.1,2.9c-0.3,0.4 -0.8,0.8 -1.5,1c-0.7,0.3 -1.4,0.3 -2.3,0.3l-0.1,3c0,0.1 -0.2,0.2 -0.6,0.3c-0.4,0.1 -0.8,0.1 -1.1,0.1zm2.1,-8.8l-0.1,2.7l0.2,0c0.4,0 0.7,-0.1 1,-0.3s0.4,-0.6 0.4,-1c0,-0.5 0,-0.8 -0.2,-1s-0.5,-0.3 -0.9,-0.3l-0.4,-0.1l0,0z"
         fill="#FFFFFF" /><path
         id="svg_645"
         d="m-145.3,348.2l0,-6l-1.1,0c-0.2,0 -0.3,-0.3 -0.4,-0.7c0,-0.3 0,-0.5 0,-0.7c0,-0.3 0,-0.5 0,-0.7c0.1,-0.5 0.2,-0.7 0.4,-0.7l5.4,0c0.2,0 0.3,0.3 0.4,0.7c0,0.3 0,0.5 0,0.7s0,0.5 -0.1,0.7c-0.1,0.5 -0.2,0.7 -0.4,0.7l-1.1,0l0,6l1.1,0c0.2,0 0.3,0.3 0.4,0.7c0,0.3 0.1,0.5 0,0.7c0,0.3 0,0.5 -0.1,0.7c-0.1,0.5 -0.2,0.7 -0.4,0.7l-5.5,0c-0.2,0 -0.3,-0.3 -0.4,-0.7c0,-0.3 0,-0.5 0,-0.7c0,-0.3 0,-0.5 0.1,-0.7c0.1,-0.5 0.2,-0.7 0.4,-0.7l1.3,0z"
         fill="#FFFFFF" /><path
         id="svg_646"
         d="m-138.2,342.4c-0.2,0 -0.3,-0.3 -0.4,-0.8c0,-0.2 -0.1,-0.4 -0.1,-0.7s0,-0.5 0,-0.8c0,-0.5 0.2,-0.8 0.4,-0.8l6,-0.4c0.7,0 1.1,0.6 1.4,1.8c0,0.3 0.1,0.5 0.1,0.6l-3.3,6.2l3,-0.2l0,0c0.3,0 0.4,0.3 0.6,0.8c0,0.3 0.1,0.5 0.1,0.8s0,0.6 0,0.9c-0.1,0.6 -0.3,0.8 -0.5,0.9l-6.3,0.5c-0.1,0 -0.3,-0.3 -0.6,-1s-0.5,-1.1 -0.5,-1.2s0,-0.3 0,-0.3l3.3,-6.3l-3.2,0z"
         fill="#FFFFFF" /><path
         id="svg_647"
         d="m-128.6,341.5c-0.2,0 -0.3,-0.2 -0.5,-0.7c-0.1,-0.2 -0.1,-0.4 -0.2,-0.7c0,-0.3 -0.1,-0.5 -0.1,-0.8c0,-0.5 0.1,-0.8 0.3,-0.8l5.9,-1.1c0.6,-0.1 1.2,0.4 1.6,1.6c0.1,0.3 0.2,0.5 0.2,0.6l-2.6,6.6l2.9,-0.6l0,0c0.3,0 0.5,0.2 0.6,0.7c0.1,0.3 0.2,0.5 0.2,0.8s0.1,0.6 0.1,0.9c0,0.6 -0.1,0.9 -0.4,0.9l-6.2,1.1c-0.1,0 -0.3,-0.3 -0.7,-0.9c-0.4,-0.6 -0.6,-1 -0.6,-1.2s0,-0.3 0,-0.3l2.6,-6.7l-3.1,0.6z"
         fill="#FFFFFF" /><path
         id="svg_648"
         d="m-109.5,345.7c-0.9,0.3 -1.4,0.3 -1.6,0l-1.2,-1.9l-2.5,0.8l0.2,2.1c0,0.3 -0.4,0.7 -1.3,1c-0.5,0.2 -0.8,0.3 -1.1,0.3s-0.4,0 -0.4,0l-0.9,-11.7c0,-0.1 0.7,-0.3 2.1,-0.8c1.4,-0.5 2.1,-0.6 2.2,-0.6l6.3,9.9c0,0.1 -0.2,0.2 -0.6,0.4c-0.6,0.2 -1,0.4 -1.2,0.5zm-5.5,-3.2l1.6,-0.6l-1.8,-3.1l-0.1,0l0.3,3.7z"
         fill="#FFFFFF" /></g><path
       id="svg_649"
       d="m210.2,205.5c-0.1,0 -0.2,0 -0.3,-0.1s-0.1,-0.3 0,-0.5c0,0 1,-0.9 0.6,-1.8c-0.4,-1 -3,-2.5 -15,-1.7c-0.2,0 -0.3,-0.1 -0.4,-0.3c0,-0.2 0.1,-0.3 0.3,-0.4c9.5,-0.7 14.8,0 15.7,2.1c0.6,1.3 -0.8,2.5 -0.8,2.6c0.1,0 0,0.1 -0.1,0.1z" /><path
       id="svg_650"
       d="m83.8,266.9c-0.1,0 -0.2,0 -0.2,-0.1c-0.1,-0.1 -0.2,-0.3 0,-0.5c7.4,-8.6 18.9,-13.3 19,-13.4c0.2,-0.1 0.4,0 0.5,0.2s0,0.4 -0.2,0.5c-0.1,0 -11.5,4.7 -18.7,13.2c-0.2,0.1 -0.3,0.1 -0.4,0.1z" /><path
       id="svg_651"
       d="m83.8,269.1c-0.1,0 -0.2,0 -0.2,-0.1c-0.1,-0.1 -0.2,-0.3 0,-0.5c7.4,-8.6 19.3,-13 19.5,-13.1s0.4,0 0.4,0.2s0,0.4 -0.2,0.4c-0.1,0 -11.9,4.4 -19.2,12.9c-0.1,0.1 -0.2,0.2 -0.3,0.2z" /><path
       id="svg_652"
       d="m84.7,270.5c-0.1,0 -0.2,0 -0.3,-0.1c-0.1,-0.1 -0.1,-0.3 0,-0.5c7.9,-8.2 19.1,-12.4 19.2,-12.4c0.2,-0.1 0.4,0 0.4,0.2c0.1,0.2 0,0.4 -0.2,0.4c-0.1,0 -11.2,4.1 -18.9,12.2c-0.1,0.2 -0.1,0.2 -0.2,0.2z" /><path
       id="svg_653"
       d="m211,204.1l0,0c-0.2,0 -7.9,-1.6 -16.4,-0.8c-0.2,0 -0.3,-0.1 -0.4,-0.3c0,-0.2 0.1,-0.3 0.3,-0.4c8.5,-0.8 16.4,0.8 16.5,0.9c0.2,0 0.3,0.2 0.3,0.4c0,0.1 -0.1,0.2 -0.3,0.2z" /><path
       id="svg_654"
       d="m209.4,206l0,0c-0.2,0 -7.5,-1.6 -15.7,-0.8c-0.2,0 -0.3,-0.1 -0.4,-0.3c0,-0.2 0.1,-0.3 0.3,-0.4c8.3,-0.8 15.8,0.8 15.9,0.8c0.2,0 0.3,0.2 0.3,0.4c-0.1,0.1 -0.2,0.3 -0.4,0.3z" /><path
       id="svg_655"
       d="m208.7,207.9l0,0c-0.2,0 -7.6,-1.5 -16.1,-0.6c-0.2,0 -0.3,-0.1 -0.4,-0.3c0,-0.2 0.1,-0.3 0.3,-0.4c8.6,-0.9 16.1,0.6 16.2,0.6c0.2,0 0.3,0.2 0.3,0.4c0,0.1 -0.1,0.3 -0.3,0.3z" /><path
       id="svg_656"
       d="m206.9,209.9l0,0c-0.2,0 -7.2,-1.4 -15.4,-0.6c-0.2,0 -0.3,-0.1 -0.4,-0.3c0,-0.2 0.1,-0.3 0.3,-0.4c8.3,-0.8 15.4,0.6 15.5,0.7c0.2,0 0.3,0.2 0.3,0.4c0,0.1 -0.1,0.2 -0.3,0.2z" /><path
       id="svg_657"
       d="m86.5,271.4c-0.1,0 -0.2,0 -0.3,-0.1c-0.1,-0.1 -0.1,-0.3 0,-0.5c8.5,-7.9 17.6,-10.8 17.7,-10.9c0.2,0 0.4,0 0.4,0.2s0,0.4 -0.2,0.4c-0.1,0 -9,3 -17.4,10.7c0,0.1 -0.1,0.2 -0.2,0.2z" /><path
       id="svg_658"
       d="m89,272c-0.1,0 -0.2,0 -0.3,-0.1c-0.1,-0.1 -0.1,-0.4 0,-0.5c8,-6.7 15.8,-9.2 15.9,-9.3c0.2,0 0.4,0 0.4,0.2s0,0.4 -0.2,0.4c-0.1,0 -7.8,2.5 -15.7,9.1c0,0.1 -0.1,0.2 -0.1,0.2z" /><path
       id="svg_659"
       d="m92.3,271.9c-0.1,0 -0.2,0 -0.3,-0.1c-0.1,-0.2 -0.1,-0.4 0.1,-0.5c6.8,-4.9 12.7,-6.9 12.8,-6.9c0.2,0 0.4,0 0.4,0.2s0,0.4 -0.2,0.4c0,0 -5.9,1.9 -12.6,6.8c-0.1,0.1 -0.2,0.1 -0.2,0.1z" /><path
       id="svg_660"
       d="m96.9,271.4c-0.1,0 -0.2,0 -0.3,-0.2c-0.1,-0.2 0,-0.4 0.1,-0.5c4.8,-2.9 8.5,-4.1 8.6,-4.1c0.2,0 0.4,0 0.4,0.2s0,0.4 -0.2,0.4c0,0 -3.7,1.2 -8.4,4c-0.1,0.2 -0.1,0.2 -0.2,0.2z" /><text
       x="-17.14553"
       y="231.57462"
       id="svg_662"
       fill="#ffffff"
       stroke-width="0"
       font-size="24"
       font-family="'Harlow Solid Italic'"
       text-anchor="start"
       xml:space="preserve"
       font-weight="normal"
       font-style="normal"
       stroke="null"
       transform="rotate(-4.44094 149.668 228.666) matrix(0.789111 0 0 0.92733 101.185 19.3431)">The Pizza party</text>
</g></svg>