<svg width="175" height="216" xmlns="http://www.w3.org/2000/svg" xml:space="preserve" enable-background="new 0 0 290.6 382.3" version="1.1">
 <g>
  <title>Layer 1</title>
  <path id="svg_297" d="m39.94445,98.22406c0,0 -1.6,-1.9 -3,-5.2c-0.6,-1.4 -0.9,-5.2 -0.9,-5.2s-2.6,-3 -3.8,-6.9c-1.2,-3.8 -1.2,-7.2 -1.2,-7.2s-3.1,-2.3 -5.7,-5.9c-2.6,-3.6 -4.8,-12.1 -4.8,-12.1s-9.5,-1.9 -11.9,-11.5c-2.4,-9.5 4.1,-16.7 6.9,-17.8s10,-3.5 14.7,-8.9s13.5,-8.6 21.2,-7.3s10.8,-0.7 18.8,-3.4c8,-2.7 16,-1.4 20.9,-1.8c4.9,-0.3 10,2.3 16.3,2.5s9.7,3.2 15.2,3.1s12.7,-0.5 19.5,1.5c10.1,2.9 13,10 13,10s7.6,1.3 11.4,8.8c3.8,7.5 5.9,15.3 2.5,22.4c-2.9,6 -10.8,5.9 -11.9,6.8c-1.1,0.8 -2.6,8.1 -3.4,11.6c-1,4 -3,7.3 -3,7.3s8.2,-1.3 10.4,3s4.1,16.1 5.3,19.7c1.2,3.7 2.5,15.4 -3.5,21.8c-5.9,6.4 -15.9,9.3 -23.3,10.5s-13,1.5 -13,1.5s-2.3,7 -3.9,16.7c-2,12.2 -7.3,14.9 -10.3,19s-4.8,9.6 -7.9,16.8c-3.1,7.2 -6.6,16.4 -13.4,16.4c-6.8,0 -10.7,-9.7 -14.9,-16.2c-4.2,-6.4 -7.3,-17.5 -9.9,-20.1s-6.2,-10.8 -6.2,-10.8s-14.2,4.8 -25.5,4.7s-12.3,-7.8 -11.5,-12.1s7,-7.8 3.5,-14.3c-3.6,-6.5 -8.3,-13.5 -6.4,-20.9c1.5,-6.9 6.1,-11.8 19.7,-16.5z" fill="#FFFFFF"/>
  <path id="svg_298" d="m87.74445,209.62406c-6.6,0 -10.9,-6.9 -14.8,-12.9c-0.5,-0.8 -1,-1.6 -1.5,-2.3c-2.2,-3.4 -4.1,-7.9 -5.8,-12c-1.6,-3.8 -3.1,-7.4 -4.3,-8.6c-2.3,-2.4 -5.3,-8.8 -6.2,-10.8c-2.9,0.9 -15.4,4.7 -25.7,4.7c-0.1,0 -0.1,0 -0.2,0c-4.8,0 -8.4,-1.4 -10.5,-4c-2.8,-3.3 -2.3,-7.6 -2,-9.3c0.3,-1.6 1.2,-3 2.2,-4.6c1.9,-2.9 3.7,-5.7 1.4,-9.7c-0.4,-0.8 -0.9,-1.6 -1.3,-2.4c-3.5,-6.2 -7.1,-12.7 -5.4,-19.7c2,-7.8 7.6,-12.6 20,-17c-0.6,-0.9 -1.7,-2.5 -2.6,-4.7c-0.5,-1.3 -0.9,-4.5 -0.9,-5.4c-0.6,-0.7 -2.8,-3.6 -3.9,-7.1c-1,-3.2 -1.2,-6.1 -1.2,-7.2c-1.2,-0.6 -4.6,-2.4 -6.8,-5.5c-2.3,-3.2 -3,-8.1 -3.1,-9.6c-1.8,-0.6 -7.9,-3.3 -10.1,-13.3c-1.8,-8.1 1.1,-15.1 8.8,-21c1,-0.7 2.4,-1.1 4.1,-1.5c3,-0.7 6.6,-1.6 9.6,-5.1c3.6,-4.1 11,-10.8 20.4,-9.3c1.7,0.3 3,0.5 4.3,0.8c4.6,0.9 6.9,1.4 13.2,-0.8c6.3,-2.1 13.8,-3.5 22.2,-4c2.7,-0.2 5,0.5 7.4,1.3c2.3,0.7 4.8,1.5 7.9,1.6c3.3,0.1 5.8,0.8 8.3,1.4c2.5,0.6 4.8,1.2 7.6,1.2c0.7,0 1.5,0 2.3,-0.1c5.7,-0.2 13.5,-0.4 19.7,1.4c9.2,2.7 12.3,6.9 13,8.1c1.6,0.4 8.3,2.2 11.9,9.4c3.6,7.2 2.8,14.4 -2.2,22.7c-3.4,5.5 -6.8,5 -8.6,4.8c-0.4,-0.1 -0.9,-0.1 -1,-0.1c-0.4,0.5 -0.6,4.4 -0.7,7.3c-0.1,3 -0.3,6.2 -0.7,7.9c-0.7,2.7 -1.8,5.1 -2.5,6.5c2.6,-0.2 8.1,-0.1 10,3.6c1.5,2.9 2.8,9.1 3.9,14c0.6,2.8 1.1,5.1 1.5,6.4c1.2,3.8 2.6,16.3 -3.7,23.1c-6.7,7.2 -18.1,10 -24.4,11c-6.6,1.1 -11.8,1.5 -13.1,1.6c-0.7,1 -3.5,5.2 -4.9,13.5c-1.6,9.8 -6.1,14.8 -9.4,18.4c-1,1.1 -1.8,2 -2.5,3c-1.5,2.2 -2.2,5.2 -2.9,8.7c-0.6,3 -1.3,6.5 -2.8,10c-3.1,7.7 -6.5,15.6 -14,15.6zm-32.2,-48.1c0.3,0 0.5,0.2 0.6,0.4c0,0.1 3.7,8.4 6.2,10.9c1.4,1.4 2.9,5 4.6,9s3.6,8.5 5.7,11.8c0.5,0.8 1,1.6 1.5,2.4c3.8,6 7.8,12.3 13.6,12.3c6.5,0 9.7,-7.5 12.8,-14.8c1.4,-3.4 2.1,-6.8 2.8,-9.7c0.8,-3.6 1.4,-6.8 3.1,-9.2c0.7,-1 1.6,-2 2.6,-3.1c3.3,-3.7 7.5,-8.3 9,-17.7c1.7,-10 5.2,-14.3 5.3,-14.4s0.3,-0.2 0.5,-0.2c0.1,0 5.8,-0.3 13.3,-1.6c6.1,-1 17.2,-3.7 23.6,-10.6c5.9,-6.4 4.6,-18.1 3.4,-21.7c-0.4,-1.4 -1,-3.8 -1.6,-6.6c-1.1,-4.9 -2.4,-10.9 -3.8,-13.7c-2,-3.9 -9.9,-2.7 -10,-2.7c-0.3,0 -0.5,-0.1 -0.7,-0.3s-0.2,-0.5 0,-0.8c0,0 2,-3.3 3,-7.3c0.4,-1.6 0.5,-4.6 0.6,-7.6c0.2,-5.5 0.4,-7.7 1.3,-8.3c0.5,-0.4 1.2,-0.3 2,-0.2c1.7,0.2 4.4,0.6 7.2,-4.1c4.8,-7.9 5.5,-14.7 2.2,-21.4c-3.7,-7.4 -11.1,-8.7 -11.2,-8.7c-0.2,0 -0.4,-0.2 -0.5,-0.4c0,0 -2.3,-4.8 -12.3,-7.6c-6,-1.7 -13.7,-1.5 -19.3,-1.4c-0.8,0 -1.6,0 -2.3,0.1c-3,0 -5.4,-0.6 -8,-1.2c-2.4,-0.6 -4.9,-1.3 -8,-1.4c-3.3,-0.1 -5.9,-0.9 -8.3,-1.7c-2.4,-0.8 -4.4,-1.4 -6.9,-1.2c-8.3,0.6 -15.7,1.9 -21.9,4c-6.7,2.3 -9.3,1.7 -14,0.8c-1.2,-0.2 -2.6,-0.5 -4.2,-0.8c-8.8,-1.4 -15.8,4.9 -19.2,8.9c-3.3,3.8 -7.4,4.8 -10.4,5.5c-1.5,0.4 -2.8,0.7 -3.5,1.2c-2.7,2 -10.9,8.2 -8.3,19.5c2.4,10.6 9.3,12.3 9.6,12.3c0.3,0.1 0.5,0.3 0.5,0.6c0,0.1 0.4,5.9 2.9,9.4s6.6,5.2 6.7,5.3c0.3,0.1 0.4,0.4 0.4,0.6c0,0 0,3.4 1.2,7.2s3.7,6.8 3.7,6.8c0.1,0.1 0.2,0.2 0.2,0.4c0.1,1.1 0.4,4.1 0.9,5.2c1.3,3.3 2.9,5.1 2.9,5.1c0.2,0.2 0.2,0.4 0.1,0.6s-0.2,0.4 -0.4,0.5c-14.5,5 -18.5,10.1 -20,16.3c-1.6,6.5 1.8,12.7 5.2,18.7c0.5,0.8 0.9,1.6 1.3,2.4c2.6,4.8 0.5,8.2 -1.5,11.2c-0.9,1.4 -1.8,2.7 -2,4.1c-0.2,1.2 -0.7,5.2 1.7,8.1c1.9,2.3 5.1,3.4 9.5,3.5c0.1,0 0.1,0 0.2,0c11.4,0 25.7,-4.8 25.9,-4.8c0.4,0.1 0.4,0.1 0.5,0.1z" fill="#FFFFFF"/>
  <path id="svg_300" d="m23.84445,28.92406c-0.1,-0.1 -6.7,1.9 -7.4,5.5c-0.7,3.6 -1.3,9 0.9,11.8c2.2,2.8 3.9,3.8 6,4.3c2,0.5 3.8,2.1 3.8,2.1s0.8,-5.7 3.5,-7.2c2.6,-1.5 8.4,-1.6 14.4,-2.7c6.1,-1.1 7.8,-2.7 9.3,-3.4c1.5,-0.8 5.4,-3.1 9.2,-3.1c3.8,0 4.4,0.2 10.3,-1.8c5.9,-1.9 8.1,-4.1 13.3,-3.1s9.4,2.4 13,3s11,0.4 11,0.4s3.7,4.2 8.5,4.8s7.9,-0.2 11.2,-0.1c3.3,0 7.1,0 10,1.3s7.5,4 9.7,5.7c2.3,1.7 2.6,3 2.4,5.8c-0.1,2.8 6.3,0.3 6.3,0.3s4.4,-1.7 4.9,-5.4s-0.9,-7.2 -2.7,-11.3s-3.9,-6 -5.7,-6.6s-4,-0.5 -4,-0.5s-0.3,-2.5 -2.8,-5.2s-5.5,-3.6 -9.5,-4.5s-9.3,-2.2 -11.5,-2.5s-4.8,0.2 -5.2,0.6c-0.4,0.3 -1.1,0.9 -1.1,0.9s-1.4,-0.2 -2.2,-0.2s-5,-1.2 -8.5,-2.6c-3.5,-1.4 -5.4,-2.8 -8,-2.6s-5.4,0.8 -5.4,0.8s-0.8,-1.5 -4.7,-1.5c-3.8,0 -8,1.1 -9.6,1s-7.4,-0.7 -10.1,-0.2c-2.7,0.5 -7.5,3.6 -7.5,3.6s-2.8,1.2 -5,1.4s-5,0.6 -5,0.6s-5.4,-2.4 -10.9,-1.3c-5.5,1.1 -8.9,3.5 -8.9,3.5s-3.9,3.5 -5.2,5c-1.3,1.6 -2.3,2.5 -3.3,2.8c-0.7,0.4 -3.5,0.6 -3.5,0.6z" fill="#E89135"/>
  <path id="svg_301" d="m89.84445,195.32406c-2.6,0 -6.8,-8 -10.9,-16.5c-0.8,-1.7 -1.5,-3 -1.8,-3.4c-1.2,-1.9 -2.9,-6 -3.5,-7.9c-0.4,-1.1 -1.3,-2.6 -2.5,-4.3c-0.7,-1.1 -1.6,-2.3 -2.6,-3.9c-2.4,-3.7 -4,-10.6 -4.7,-14.6c-0.1,-0.6 -0.2,-1.2 -0.3,-1.6c-0.2,-1.1 -0.9,-3.2 -2,-5.6c-1.6,-3.4 -3.5,-7.7 -4.1,-10.9c-0.2,-1 -0.6,-1.7 -0.7,-2.4c-0.4,-3.2 -0.6,-4.8 -5.5,-10.6c-3.9,-4.7 -5,-11.3 -6.1,-16.5c-0.6,-2.8 -1.2,-5.6 -2,-7c-1.9,-3.3 -2.2,-5.5 -2.2,-6.1c-0.6,-0.4 -3,-1.8 -4.1,-5.4c-1.1,-3.5 -0.4,-8.3 -0.2,-9.4c-0.9,-0.4 -3.9,-1.5 -6,-5.7c-3.3,-6.7 -4.2,-10.4 -2.9,-14c2.5,-6.5 8.3,-5.6 8.3,-5.5l0,0c0,0 3,0.3 9.8,-1.3c6.7,-1.5 9.3,-3.9 9.3,-3.9l0,0c0.2,-0.1 4,-2.7 11.6,-3c4.1,-0.2 7.7,-1.5 10.7,-2.7c2.5,-0.9 4.7,-1.8 6.7,-1.8c4.3,-0.1 5.4,0.2 11.7,2l1.6,0.5c7.5,2.1 13.6,0.9 13.7,0.8c0.1,0 0.3,0 0.3,0.1c0,0 2.9,3.8 9,4.7c3.2,0.5 5.3,0.3 7.5,0c2.1,-0.2 4.2,-0.5 7.3,0c6.5,0.8 9.1,2.6 13.9,5.8c5,3.3 4.2,7.1 3.3,9.7c-0.4,1.1 -0.9,1.7 -1.6,2.6c-0.8,1.2 -1.5,2.9 -1.6,4c-0.8,12.6 -14.2,35.3 -16.1,38.3c-1,1.6 -2,5.4 -2.2,8.4c-0.3,3.9 -2,13.3 -8.4,18.7c-2.2,1.9 -5,10.8 -6.1,18.3c-1.4,10.2 -6.3,17.1 -9.9,21.9c-1.1,1.5 -2,2.5 -2.8,3.8c-1,1.7 -2.8,5.5 -4,8.8c-2.7,7.8 -5.5,15.6 -9.9,15.6z" fill="#FFC250"/>
  <path id="svg_302" d="m27.34445,51.62406c0,0 5.8,-1.5 9.5,2.8c3.6,4.3 2.8,8.2 2,9.8c-0.8,1.7 -3.6,4.3 -3.6,4.3s-8.4,-5.9 -7.9,-16.9z" fill="#FF6C65"/>
  <path id="svg_303" d="m141.74445,83.42406c0,0 -3.7,-6.4 -11.7,-3.2c-8,3.3 -4.8,11.5 -4.8,11.5l1.8,3.8c0,0 7.1,0.5 7.2,0.5c0.1,0 2.1,-1.8 2.1,-1.8l5.4,-10.8z" fill="#FF6C65"/>
  <path id="svg_304" d="m64.34445,96.92406c0,0 -5.3,-6.5 -12.1,-3.4c-6.9,3.1 -6.3,7 -6.3,7l0.9,1.7l17.5,-5.3z" fill="#FF6C65"/>
  <path id="svg_305" d="m85.64445,147.32406c0,0 4.4,-2.6 9.8,1.4c5.3,4 3.6,8.3 2.7,11.2c-1,2.9 -5.2,6.3 -10,5.3s-7.8,-4.9 -8.1,-9c-0.5,-4.1 1.8,-7.3 5.6,-8.9z" fill="#FF6C65"/>
  <path id="svg_306" d="m88.74445,177.22406c0,0 0.4,-0.8 0.6,-1.4c0.1,-0.6 0.5,-1.3 1.5,-1.2c1,0.1 1,0.8 0.9,1.4s0,1.7 0.6,1.9c0.6,0.2 2.3,0.6 2,2.6s-2.2,2.2 -3.9,2s-3.7,-0.7 -3.9,-2.4c-0.3,-1.5 0.7,-2.1 2.2,-2.9z" fill="#00B691"/>
  <path id="svg_307" d="m107.54445,128.32406c0,0 -2.6,5.3 -9.3,4.5s-8.1,-6.1 -8.1,-6.1l17.6,1.6l-0.2,0z" fill="#FF6C65"/>
  <path id="svg_308" d="m79.14445,133.22406c0,0 2,-1 2.5,-1.9s0.7,-3.9 -2.9,-4.1c-3.6,-0.2 -6.5,0.8 -5.9,3.3s2.9,0.9 3,2.8c0.2,1.9 -0.2,2.6 1.3,3c1.5,0.4 1.4,-2.1 1.4,-2.1l0.6,-1z" fill="#00B691"/>
  <path id="svg_309" d="m48.54445,57.92406c0.1,0.1 0.8,0.8 1,0.8c0.1,0.1 0.9,-0.1 1.3,-0.4c0.5,-0.3 0.5,-1.1 0.5,-1.1s-1.1,-1.2 -1.1,-1.5s-0.6,-1.5 -0.2,-2.5s-0.7,-3.5 -2.8,-2.9c-2,0.6 -5,2.8 -5,4.7s0.8,3 2,3.5c1.3,0.3 2.6,-2.6 4.3,-0.6z" fill="#00B691"/>
  <path id="svg_310" d="m127.64445,53.52406c0,0 -0.4,0.6 -0.1,1.3c0.3,0.6 0.4,1.1 1.6,1.1s1.1,-1 2.3,-0.1c1.1,0.8 1.2,2.2 3.6,1.2c2.4,-0.9 1.6,-3.6 1.3,-5c-0.3,-1.5 -1.7,-4 -3.8,-3.3s-2.4,1.3 -2.1,2.2c0.2,0.8 0,1.7 -0.9,2.3c-1.1,0.5 -1.6,0 -1.9,0.3z" fill="#00B691"/>
  <path id="svg_311" d="m63.44445,69.22406c0,0 7.9,-9.3 27.2,-9.3s25.4,9.8 25.4,9.8s-10.7,11.6 -25.4,11.6c-14.7,0 -24.6,-7.5 -27.2,-12.1z" fill="#FFFFFF"/>
  <path id="svg_359" d="m89.34445,81.72406c-16.9,0 -26.1,-11.9 -26.2,-12s-0.1,-0.3 0,-0.4c0.1,-0.1 9.1,-11 26.4,-11c17.9,0 26.6,10.8 26.7,11c0.1,0.1 0.1,0.3 0,0.4c-0.1,0 -8.6,12 -26.9,12zm-25.5,-12.2c1.3,1.6 10.2,11.6 25.5,11.6c16.6,0 25,-10 26.2,-11.6c-1.3,-1.4 -9.8,-10.5 -26,-10.5c-15.7,-0.1 -24.3,9 -25.7,10.5z"/>
  <g id="svg_360">
   <path id="svg_361" d="m115.74445,69.42406c0,0 -8.5,-10.8 -26.4,-10.8c-17.3,0 -26.1,10.9 -26.1,10.9s12.6,-8.9 26.2,-8.9c13.6,-0.1 26.3,8.8 26.3,8.8z" fill="#FFC250"/>
   <path id="svg_362" d="m63.14445,69.82406c-0.1,0 -0.2,0 -0.3,-0.1c-0.1,-0.1 -0.1,-0.3 0,-0.5c0.1,-0.1 9.1,-11 26.4,-11c17.9,0 26.6,10.8 26.7,11c0.1,0.1 0.1,0.3 0,0.4c-0.1,0.1 -0.3,0.1 -0.4,0c-0.1,-0.1 -12.8,-8.8 -26.1,-8.8c-13.4,0 -25.9,8.8 -26,8.9c-0.1,0.1 -0.2,0.1 -0.3,0.1zm26.2,-9.6c10.1,0 19.8,4.9 24.1,7.4c-3.4,-3.1 -11.4,-8.7 -24.2,-8.7c-12.2,0 -20.2,5.5 -23.7,8.7c4.4,-2.6 13.9,-7.4 23.8,-7.4z"/>
  </g>
  <path id="svg_363" d="m58.24445,69.42406l5,0c0,0 9.9,11.9 26.8,11.9s26.2,-12 26.2,-12l5.5,0.1c0,0 -6.4,24.2 -32.1,24.2s-31.4,-24.2 -31.4,-24.2z" fill="#FFC250"/>
  <path id="svg_364" d="m55.14445,77.12406c2,-2.5 15.1,-18.6 34.2,-18.6c7.3,0 13.3,2.3 14.4,2.8c9.6,3.9 15.1,10.5 17.4,13.7c0.6,-2 4,-15.9 -4.4,-26.6c-8.1,-10.3 -21.3,-10.4 -28.4,-10.4c-7.1,0 -19.4,0 -27.7,9.5c-10.5,11.8 -5.9,28.2 -5.5,29.6z" fill="#FFC250"/>
  <path id="svg_365" d="m36.64445,155.02406c-3.8,0 -6.2,-0.9 -7,-2.8c-1.5,-3.3 2.5,-8.3 5.2,-10.2c20.2,-14.3 32.8,-14.6 32.9,-14.6c0.2,0 0.3,0.2 0.3,0.3c0,0.2 -0.2,0.3 -0.3,0.3c-0.1,0 -12.5,0.3 -32.5,14.5c-2.5,1.7 -6.3,6.4 -5,9.3c0.9,2.1 4.9,3.9 18.5,0.6c5.4,-1.3 10.7,-2.7 15.7,-4.1c0.2,0 0.4,0 0.4,0.3c0,0.2 0,0.4 -0.3,0.4c-5,1.4 -10.3,2.8 -15.7,4.1c-4.9,1.3 -9,1.9 -12.2,1.9z"/>
  <path id="svg_366" d="m63.24445,69.82406l0,0c-0.3,-0.1 -0.4,-0.3 -0.3,-0.4c0,-0.2 6.3,-17.2 26.7,-17.2s26.6,17 26.6,17.2s0,0.4 -0.2,0.4s-0.4,0 -0.4,-0.2s-6.1,-16.7 -26,-16.7s-26,16.5 -26.1,16.7c-0.1,0.1 -0.2,0.2 -0.3,0.2z"/>
  <path id="svg_367" d="m63.24445,61.92406l0,0c-0.3,-0.1 -0.4,-0.3 -0.3,-0.5c0,-0.2 6.3,-15 26.7,-15s26.6,14.9 26.6,15c0.1,0.2 0,0.4 -0.2,0.5s-0.4,0 -0.5,-0.2c0,-0.1 -6.1,-14.6 -26,-14.6s-26,14.4 -26.1,14.6s-0.1,0.2 -0.2,0.2z"/>
  <path id="svg_368" d="m62.94445,58.12406l0,0c-0.3,-0.1 -0.4,-0.3 -0.3,-0.5c0.1,-0.1 6.7,-13.7 27,-13.7c20.4,0 26.5,13.6 26.5,13.7c0.1,0.2 0,0.4 -0.2,0.5s-0.4,0 -0.5,-0.2c0,-0.1 -6,-13.3 -25.9,-13.3s-26.4,13.2 -26.5,13.3c0.2,0.1 0.1,0.2 -0.1,0.2z"/>
  <path id="svg_369" d="m89.54445,85.32406c-8.3,0 -15.2,-2.2 -20.5,-6.6c-0.2,-0.1 -0.2,-0.3 0,-0.5c0.1,-0.2 0.3,-0.2 0.5,0c5.2,4.2 12,6.4 20.1,6.4s14.8,-2.2 20.1,-6.4c0.1,-0.1 0.4,-0.1 0.5,0s0.1,0.4 0,0.5c-5.5,4.4 -12.4,6.6 -20.7,6.6z"/>
  <path id="svg_370" d="m89.54445,87.42406c-6,0 -11.3,-1.2 -15.8,-3.5c-0.2,-0.1 -0.3,-0.3 -0.2,-0.5s0.3,-0.3 0.5,-0.2c4.4,2.3 9.6,3.4 15.5,3.4s11.2,-1.2 15.6,-3.5c0.2,-0.1 0.4,0 0.5,0.1c0.1,0.2 0,0.4 -0.1,0.5c-4.6,2.5 -9.9,3.7 -16,3.7z"/>
  <path id="svg_371" d="m89.54445,89.62406c-3.6,0 -6.9,-0.4 -9.9,-1.2c-0.2,0 -0.3,-0.3 -0.3,-0.4c0,-0.2 0.3,-0.3 0.4,-0.3c3,0.8 6.3,1.2 9.8,1.2c3.4,0 6.7,-0.4 9.6,-1.2c0.2,0 0.4,0 0.4,0.3c0,0.2 0,0.4 -0.3,0.4c-2.9,0.8 -6.3,1.2 -9.7,1.2z"/>
  <path id="svg_372" d="m115.84445,69.82406c-0.1,0 -0.2,0 -0.3,-0.1s-8.5,-10.8 -25.9,-10.8s-26.2,10.7 -26.2,10.7c-0.1,0.2 -0.3,0.2 -0.5,0c-0.2,-0.1 -0.2,-0.3 0,-0.5c0.1,-0.1 9.1,-11 26.8,-11s26.3,11 26.4,11.1c0.1,0.2 0.1,0.4 -0.1,0.5c0,0.1 -0.1,0.1 -0.2,0.1z"/>
  <path id="svg_373" d="m89.54445,81.52406c-17.8,0 -26.5,-11.8 -26.6,-11.9c-0.1,-0.2 -0.1,-0.4 0.1,-0.5s0.4,-0.1 0.5,0.1c0.1,0.1 8.7,11.6 26.1,11.6s26,-11.5 26.1,-11.6c0.1,-0.2 0.3,-0.2 0.5,-0.1c0.2,0.1 0.2,0.3 0.1,0.5c-0.3,0.2 -9,11.9 -26.8,11.9z"/>
  <path id="svg_374" d="m89.84445,195.92406c-2.6,0 -7.2,-9 -11.4,-17.5c-0.8,-1.7 -1.5,-3 -1.7,-3.3c-1.2,-1.9 -3,-6.3 -3.6,-8.1c-0.4,-1.1 -1.2,-2.3 -2.4,-4c-0.7,-1.1 -1.7,-2.3 -2.7,-3.9c-2.4,-3.7 -3.6,-11 -4.3,-14.9c-0.1,-0.6 -0.2,-1.2 -0.3,-1.6c-0.2,-1.1 -1.2,-3.1 -2.3,-5.5c-1.6,-3.4 -3.5,-7.6 -4.1,-10.7c-0.2,-1 -0.3,-1.9 -0.4,-2.6c-0.4,-3.2 -0.6,-4.8 -5.5,-10.6c-3.9,-4.7 -5.3,-11.2 -6.5,-16.4c-0.6,-2.8 -1.1,-5.2 -1.9,-6.6c-1.9,-3.3 -2.3,-5.6 -2.3,-6.3c-0.6,-0.4 -2.8,-2.2 -3.9,-5.8c-1.1,-3.5 -0.6,-7.7 -0.4,-8.8c-0.9,-0.4 -3.9,-1.8 -6,-6.1c-3.3,-6.7 -4.1,-10.7 -2.7,-14.2c2.5,-6.5 8.3,-5.6 8.3,-5.5l0,0c0,0 3,0.3 9.8,-1.3c6.7,-1.5 9.4,-3.9 9.4,-3.9l0,0c0.2,-0.1 4,-2.7 11.6,-3c4.2,-0.2 7.7,-1.5 10.7,-2.7c2.5,-0.9 4.7,-1.8 6.7,-1.8c4.3,-0.1 5.4,0.2 11.7,2l1.6,0.5c7.6,2.1 13.7,0.9 13.7,0.8c0.1,0 0.3,0 0.3,0.1c0,0 2.9,3.8 9,4.7c3.2,0.5 5.3,0.3 7.5,0c2.1,-0.2 4.2,-0.5 7.3,0c6.5,0.8 9.1,2.6 13.9,5.8c5.1,3.3 4.5,7.2 3.6,9.8c-0.4,1.1 -1.1,2.1 -1.7,3.1c-0.8,1.2 -1.6,2.3 -1.7,3.4c-0.8,12.6 -13.9,35.3 -15.8,38.3c-1,1.6 -2.3,5.4 -2.5,8.4c-0.3,3.9 -1.7,13.6 -8.1,19.1c-2.2,1.9 -5.1,11.7 -6.1,19.2c-1.4,10.2 -6.5,16.7 -10.2,21.5c-1.1,1.5 -2.2,2.8 -2.9,4c-1,1.7 -2.2,4.7 -3.4,8c-2.7,7.8 -5.9,16.4 -10.3,16.4zm-54.9,-151.8c-1.6,0 -5,0.6 -6.8,5.2c-1.3,3.3 -0.6,7.2 2.6,13.7c2.3,4.7 5.8,5.8 5.9,5.8c0.2,0 0.3,0.2 0.3,0.4c0,0 -0.9,4.9 0.3,8.7c1.2,3.8 3.7,5.5 3.7,5.5c0.1,0 0.2,0.2 0.2,0.3c0,0 0.1,2.4 2.2,6.1c0.8,1.4 1.4,3.9 2,6.8c1.1,5.1 2.5,11.5 6.3,16.1c5,6 5.2,7.6 5.6,11c0.1,0.8 0.2,1.6 0.4,2.6c0.6,3.1 2.5,7.2 4.1,10.6c1.1,2.4 2.1,4.5 2.3,5.7c0.1,0.4 0.2,0.9 0.3,1.6c0.6,3.6 1.9,11.1 4.2,14.6c1,1.6 1.9,2.9 2.7,3.9c1.2,1.8 2.1,2.9 2.5,4.2c0.6,1.8 2.3,6.2 3.5,8c0.3,0.4 0.9,1.7 1.8,3.4c2.5,5.1 8.4,17.1 10.7,17.1c4,0 7.2,-8.8 9.8,-15.8c1.3,-3.5 2.4,-6.5 3.5,-8.2c0.8,-1.3 1.8,-2.5 3,-4.1c3.6,-4.7 8.6,-11.2 10.1,-21.2c1.1,-7.7 4,-17.6 6.4,-19.6c6.2,-5.3 7.6,-14.8 7.9,-18.6c0.3,-3.2 1.6,-7.1 2.7,-8.7c1.9,-3 14.9,-25.6 15.7,-38c0.1,-1.3 0.9,-2.5 1.8,-3.8c0.6,-0.9 1.3,-1.9 1.7,-2.9c0.9,-2.6 1.3,-5.9 -3.3,-9c-4.9,-3.2 -7.3,-4.8 -13.7,-5.7c-3,-0.4 -5.1,-0.2 -7.2,0c-2.2,0.2 -4.4,0.5 -7.7,0c-5.7,-0.9 -8.7,-4 -9.3,-4.8c-1.1,0.2 -6.9,1.1 -13.8,-0.9l-1.6,-0.5c-6.2,-1.7 -7.3,-2.1 -11.5,-1.9c-1.9,0 -4.1,0.8 -6.5,1.8c-3.1,1.2 -6.7,2.5 -11,2.7c-7.1,0.3 -11,2.7 -11.2,2.8c-0.3,0.3 -3,2.5 -9.6,4c-6.9,1.6 -9.9,1.3 -10,1.3c-0.3,-0.1 -0.6,-0.2 -1,-0.2z"/>
  <path id="svg_375" d="m35.74445,44.22406c-1,0 -3.2,-0.2 -6.5,-1.3c-0.2,0 -0.3,-0.3 -0.2,-0.4c0,-0.2 0.3,-0.3 0.4,-0.2c4.3,1.5 6.7,1.2 6.7,1.2c0.2,0 0.4,0.1 0.4,0.3s-0.1,0.4 -0.3,0.4c0,0 -0.1,0 -0.5,0z"/>
  <path id="svg_376" d="m39.44445,44.02406c-0.3,0 -3,0 -7.3,-1.5c-0.2,0 -0.3,-0.3 -0.2,-0.4c0,-0.2 0.3,-0.3 0.4,-0.2c4.3,1.5 7,1.5 7.1,1.5l0,0c0.2,0 0.3,0.2 0.3,0.3c0.1,0.2 0,0.3 -0.3,0.3c0.1,0 0.1,0 0,0z"/>
  <path id="svg_377" d="m41.94445,43.62406c-0.8,0 -3.6,-0.1 -7.2,-1.7c-0.2,-0.1 -0.3,-0.3 -0.2,-0.5c0.1,-0.2 0.3,-0.3 0.5,-0.2c4,1.7 7,1.6 7.1,1.6c0.2,0 0.3,0.1 0.4,0.3c0,0.2 -0.1,0.3 -0.3,0.4c-0.1,0.1 -0.1,0.1 -0.3,0.1z"/>
  <path id="svg_378" d="m44.44445,43.22406c-0.6,0 -3.6,-0.1 -7.4,-1.7c-0.2,-0.1 -0.3,-0.3 -0.2,-0.5c0.1,-0.2 0.3,-0.3 0.5,-0.2c4,1.7 7.2,1.7 7.2,1.7c0.2,0 0.3,0.1 0.3,0.3s-0.1,0.3 -0.4,0.4c0.1,0 0.1,0 0,0z"/>
  <path id="svg_379" d="m46.34445,42.82406l0,0c-0.1,0 -2.7,0 -6.8,-1.8c-0.2,-0.1 -0.3,-0.3 -0.2,-0.5c0.1,-0.2 0.3,-0.3 0.5,-0.2c4,1.7 6.5,1.8 6.5,1.8c0.2,0 0.3,0.2 0.3,0.3c0,0.2 -0.1,0.4 -0.3,0.4z"/>
  <path id="svg_380" d="m48.34445,42.22406l0,0c-0.1,0 -2.6,-0.2 -6.7,-2c-0.2,-0.1 -0.3,-0.3 -0.2,-0.5c0.1,-0.2 0.3,-0.3 0.5,-0.2c4,1.7 6.5,1.9 6.5,1.9c0.2,0 0.3,0.2 0.3,0.4c0,0.3 -0.2,0.4 -0.4,0.4z"/>
  <path id="svg_381" d="m49.54445,41.42406c-1.3,0 -3.3,-0.3 -5.5,-1.7c-0.2,-0.1 -0.2,-0.3 -0.1,-0.5s0.3,-0.2 0.5,-0.1c3.7,2.3 6.6,1.4 6.6,1.4c0.2,0 0.4,0 0.4,0.2s0,0.4 -0.2,0.4c-0.1,0.2 -0.7,0.3 -1.7,0.3z"/>
  <path id="svg_382" d="m111.14445,34.92406c-0.1,0 -0.2,0 -0.3,-0.1c0,0 -1,-1.1 -1.8,-3c-0.1,-0.2 0,-0.4 0.2,-0.5s0.4,0 0.5,0.2c0.7,1.7 1.7,2.8 1.7,2.8c0.1,0.1 0.1,0.4 0,0.5c-0.1,0 -0.2,0.1 -0.3,0.1z"/>
  <path id="svg_383" d="m109.64445,35.12406c-0.1,0 -0.2,0 -0.3,-0.1c0,0 -1,-1.1 -1.8,-3c-0.1,-0.2 0,-0.4 0.2,-0.5s0.4,0 0.5,0.2c0.7,1.7 1.7,2.8 1.7,2.8c0.1,0.1 0.1,0.4 0,0.5c-0.1,0.1 -0.2,0.1 -0.3,0.1z"/>
  <path id="svg_384" d="m107.94445,35.22406c-0.1,0 -0.2,0 -0.3,-0.1c0,0 -0.8,-1 -1.6,-2.8c-0.1,-0.2 0,-0.4 0.2,-0.5s0.4,0 0.5,0.2c0.7,1.7 1.5,2.6 1.5,2.6c0.1,0.1 0.1,0.4 0,0.5c-0.1,0 -0.2,0.1 -0.3,0.1z"/>
  <path id="svg_385" d="m106.34445,35.22406c-0.1,0 -0.2,0 -0.3,-0.1c0,0 -0.8,-0.8 -1.5,-2.7c-0.1,-0.2 0,-0.4 0.2,-0.5s0.4,0 0.5,0.2c0.7,1.7 1.4,2.5 1.4,2.5c0.1,0.1 0.1,0.4 0,0.5c-0.2,0.1 -0.2,0.1 -0.3,0.1z"/>
  <path id="svg_386" d="m104.54445,35.22406c-0.1,0 -0.2,0 -0.3,-0.2c-0.3,-0.5 -0.8,-1.3 -1.3,-2.4c-0.1,-0.2 0,-0.4 0.2,-0.5s0.4,0 0.5,0.2c0.4,1 0.9,1.8 1.2,2.2c0.1,0.2 0.1,0.4 -0.1,0.5c0,0.2 -0.1,0.2 -0.2,0.2z"/>
  <path id="svg_387" d="m102.84445,35.12406c-0.1,0 -0.2,0 -0.3,-0.2c-0.4,-0.6 -0.8,-1.3 -1.1,-2c-0.1,-0.2 0,-0.4 0.2,-0.5s0.4,0 0.5,0.2c0.3,0.7 0.6,1.3 1,1.9c0.1,0.2 0,0.4 -0.1,0.5c-0.1,0 -0.2,0.1 -0.2,0.1z"/>
  <path id="svg_388" d="m100.84445,34.82406c-0.1,0 -0.2,0 -0.3,-0.2c0,0 -0.5,-0.8 -0.7,-1.6c0,-0.2 0,-0.4 0.3,-0.4c0.2,0 0.4,0 0.4,0.3c0.2,0.7 0.6,1.4 0.6,1.4c0.1,0.2 0,0.4 -0.1,0.5c0,0 -0.1,0 -0.2,0z"/>
  <path id="svg_389" d="m98.74445,34.12406c0,0 -0.3,-0.5 -0.4,-0.8c-0.1,-0.2 0,-0.4 0.2,-0.5s0.4,0 0.5,0.2c0.1,0.3 0.3,0.8 0.3,0.8l-0.6,0.3z"/>
  <path id="svg_390" d="m144.84445,42.12406c-0.5,0 -0.9,0 -1.4,-0.1c-0.2,0 -0.3,-0.2 -0.3,-0.4s0.2,-0.3 0.4,-0.3c6.9,0.6 8,-3.5 8,-3.6c0,-0.2 0.3,-0.3 0.4,-0.3c0.2,0 0.3,0.3 0.3,0.4c-0.1,0.2 -1.3,4.3 -7.4,4.3z"/>
  <path id="svg_391" d="m145.64445,43.22406c-0.2,0 -0.3,-0.2 -0.3,-0.3c0,-0.2 0.1,-0.3 0.3,-0.3c6.8,-0.1 7.3,-4.2 7.3,-4.4s0.2,-0.3 0.4,-0.3s0.3,0.2 0.3,0.4c0,0 -0.5,4.8 -8,4.9l0,0z"/>
  <path id="svg_392" d="m147.04445,44.22406c-0.2,0 -0.3,-0.2 -0.3,-0.3c0,-0.2 0.1,-0.3 0.3,-0.3c6.8,-0.1 7.3,-4.2 7.3,-4.4s0.2,-0.3 0.4,-0.3s0.3,0.2 0.3,0.4c0,-0.1 -0.5,4.7 -8,4.9l0,0z"/>
  <path id="svg_393" d="m148.44445,45.12406c-0.2,0 -0.3,-0.2 -0.3,-0.3c0,-0.2 0.1,-0.3 0.3,-0.3c6.8,-0.1 7.3,-4.2 7.3,-4.4s0.2,-0.3 0.4,-0.3s0.3,0.2 0.3,0.4c0,0 -0.5,4.7 -8,4.9l0,0z"/>
  <path id="svg_394" d="m149.94445,46.02406c-0.2,0 -0.3,-0.2 -0.3,-0.3c0,-0.2 0.1,-0.3 0.3,-0.3c6.8,-0.1 7.3,-4.2 7.3,-4.4s0.2,-0.3 0.4,-0.3s0.3,0.2 0.3,0.4c0,0 -0.6,4.8 -8,4.9l0,0z"/>
  <path id="svg_395" d="m151.24445,47.12406c-0.2,0 -0.3,-0.2 -0.3,-0.3c0,-0.2 0.1,-0.3 0.3,-0.3c6.8,-0.1 7.3,-4.2 7.3,-4.4s0.2,-0.3 0.4,-0.3s0.3,0.2 0.3,0.4c0,0 -0.6,4.8 -8,4.9l0,0z"/>
  <path id="svg_396" d="m152.14445,48.42406c-0.2,0 -0.3,-0.1 -0.3,-0.3s0.1,-0.3 0.3,-0.3c6.6,-0.2 7.6,-4.2 7.6,-4.3c0,-0.2 0.2,-0.3 0.4,-0.3s0.3,0.2 0.3,0.4c-0.1,0.2 -1.1,4.6 -8.3,4.8l0,0z"/>
  <path id="svg_397" d="m152.74445,49.62406c-0.2,0 -0.3,-0.1 -0.3,-0.3s0.1,-0.3 0.3,-0.3c6.6,-0.2 7.8,-4.2 7.8,-4.3c0,-0.2 0.3,-0.3 0.4,-0.3c0.2,0 0.3,0.3 0.3,0.4c-0.1,0.2 -1.3,4.6 -8.5,4.8l0,0z"/>
  <path id="svg_398" d="m153.04445,51.02406c-0.2,0 -0.3,-0.2 -0.3,-0.3c0,-0.2 0.1,-0.3 0.3,-0.3c6.9,-0.1 8.2,-4 8.2,-4.1c0,-0.2 0.3,-0.3 0.4,-0.2c0.2,0 0.3,0.3 0.2,0.4c0,0.2 -1.3,4.4 -8.8,4.5c0.1,0 0,0 0,0z"/>
  <path id="svg_399" d="m153.24445,52.42406c-0.2,0 -0.3,-0.2 -0.3,-0.3c0,-0.2 0.1,-0.3 0.3,-0.3c6.9,-0.1 8.7,-3.7 8.7,-3.7c0.1,-0.2 0.3,-0.3 0.5,-0.2s0.3,0.3 0.2,0.5c-0.1,0.1 -2,3.9 -9.4,4l0,0z"/>
  <path id="svg_400" d="m153.54445,53.72406c-0.4,0 -0.7,0 -0.8,0c-0.2,0 -0.3,-0.2 -0.3,-0.4s0.2,-0.3 0.4,-0.3c0.1,0 7.5,0.4 10.2,-4c2.1,-3.5 0.9,-8.9 -3.6,-16.2c-2.9,-4.8 -9,-4.2 -14.6,-3c-0.2,0 -0.4,-0.1 -0.4,-0.3s0.1,-0.4 0.3,-0.4c5.8,-1.2 12.1,-1.8 15.3,3.4c4.6,7.5 5.8,13.2 3.6,16.9c-2.4,3.9 -8,4.3 -10.1,4.3z"/>
  <path id="svg_401" d="m151.74445,28.72406c-0.2,0 -0.3,0.2 -0.3,0c0,-0.1 -2.3,-8 -11.9,-9.4c-2.4,-0.3 -4.7,-0.9 -6.8,-1.4c-6.4,-1.6 -10.7,-2.6 -13.4,3.6c-0.1,0.2 -0.3,0.3 -0.5,0.2s-0.3,-0.3 -0.2,-0.5c2.9,-6.7 7.9,-5.5 14.1,-4c2,0.5 4.3,1.1 6.7,1.4c9.9,1.4 12.4,9.8 12.4,9.9c0.3,0.2 0.1,0.1 -0.1,0.2l0,0z"/>
  <path id="svg_402" d="m119.94445,18.12406c-1.4,0 -3.5,-0.3 -6.3,-1.4c-1.8,-0.7 -3,-1.3 -4.1,-1.8c-2.2,-1.1 -3.5,-1.7 -7.2,-1.8c-3.2,-0.1 -5.2,0.8 -7.2,1.9c-1.4,0.7 -2.8,1.4 -4.6,1.8c-4.4,0.9 -8.5,-0.5 -8.7,-0.5s-0.3,-0.3 -0.2,-0.4c0,-0.2 0.3,-0.3 0.4,-0.2c0,0 4.1,1.3 8.3,0.5c1.7,-0.3 3,-1 4.4,-1.7c2.1,-1 4.2,-2.1 7.6,-2c3.8,0.1 5.2,0.8 7.4,1.9c1,0.5 2.2,1.1 4,1.8c5.4,2.1 8,1.1 8.1,1.1c0.2,-0.1 0.4,0 0.5,0.2s0,0.4 -0.2,0.5c0,-0.2 -0.8,0.1 -2.2,0.1z"/>
  <path id="svg_403" d="m56.24445,18.52406c-0.2,0 -0.3,-0.1 -0.3,-0.3s0.1,-0.4 0.3,-0.4c1.5,-0.4 2.6,-0.5 3.6,-0.6c1.9,-0.1 3.3,-0.3 6.5,-2.1c5.9,-3.4 9.1,-3.2 12.7,-3c2.1,0.1 4.5,0.2 7.7,-0.3c8.9,-1.5 11.5,1.1 11.6,1.3c0.1,0.1 0.1,0.3 0,0.5c-0.1,0.1 -0.3,0.1 -0.5,0c0,0 -2.5,-2.5 -10.9,-1.1c-3.3,0.6 -5.7,0.4 -7.9,0.3c-3.7,-0.2 -6.6,-0.3 -12.4,2.9c-3.3,1.9 -5,2 -6.8,2.2c-1.1,0.2 -2.1,0.3 -3.6,0.6l0,0z"/>
  <path id="svg_404" d="m26.94445,52.92406c-0.1,0 -0.2,0 -0.2,-0.1c-1.2,-1.1 -2.7,-1.7 -4.1,-2.3c-3.4,-1.4 -6.9,-2.9 -7.2,-10.4c-0.4,-7.4 3.6,-11.5 11.6,-11.9c1.5,-0.1 2.7,-1.5 4.2,-3.3c0.3,-0.3 0.5,-0.6 0.7,-0.8c1.7,-2 3.8,-4.1 6.9,-5.4c10.7,-4.6 17.1,-1.3 22.1,1.4c0.7,0.4 1.4,0.7 2,1.1c7.5,3.6 10.4,-0.6 10.4,-0.6c0.1,-0.2 0.3,-0.2 0.5,-0.1c0.2,0.1 0.2,0.3 0.1,0.5c0,0 -3.3,4.8 -11.3,0.8c-0.7,-0.3 -1.4,-0.7 -2,-1.1c-5,-2.6 -11.1,-5.9 -21.5,-1.4c-3,1.3 -5,3.3 -6.7,5.2c-0.3,0.3 -0.5,0.6 -0.7,0.8c-1.6,1.9 -2.9,3.4 -4.7,3.5c-2.8,0.2 -11.4,0.7 -11,11.2c0.3,7 3.5,8.4 6.8,9.8c1.5,0.6 3,1.3 4.3,2.4c0.1,0.1 0.2,0.3 0,0.5c0,0.1 -0.1,0.2 -0.2,0.2z"/>
  <path id="svg_405" d="m27.24445,51.52406c-0.1,0 -0.2,0 -0.2,-0.1c-1.2,-1.1 -2.5,-1.7 -3.8,-2.2c-3,-1.3 -5.9,-2.5 -6.2,-10c-0.1,-3.3 0.7,-5.9 2.5,-7.9c2.8,-3 7,-3.2 7.2,-3.2s0.3,0.1 0.3,0.3s-0.1,0.3 -0.3,0.3c0,0 -4.1,0.2 -6.7,3c-1.7,1.8 -2.5,4.3 -2.3,7.4c0.3,7.1 2.8,8.2 5.8,9.4c1.3,0.6 2.7,1.1 4,2.3c0.1,0.1 0.2,0.3 0,0.5c-0.1,0.2 -0.2,0.2 -0.3,0.2z"/>
  <path id="svg_406" d="m27.74445,49.82406c-0.1,0 -0.2,0 -0.2,-0.1c-1.2,-1.1 -2.4,-1.6 -3.6,-2c-2.8,-1.1 -5.2,-2.2 -5.2,-10c0,-9.4 9.7,-9.7 9.8,-9.7l0,0c0.2,0 0.3,0.2 0.3,0.3c0,0.2 -0.1,0.3 -0.3,0.3c-0.4,0 -9.1,0.3 -9.1,9c0,7.4 2.1,8.3 4.7,9.4c1.2,0.5 2.5,1 3.8,2.2c0.1,0.1 0.2,0.3 0,0.5c-0.1,0.1 -0.1,0.1 -0.2,0.1z"/>
  <path id="svg_407" d="m24.64445,29.12406c-0.2,0 -0.3,-0.1 -0.3,-0.3s0.1,-0.4 0.3,-0.4c0,0 5.2,-0.6 10.1,-0.9c5,-0.3 8.8,-2.6 9.8,-3.5c0.1,-0.1 0.4,-0.1 0.5,0s0.1,0.4 0,0.5c-1.5,1.4 -5.5,3.4 -10.2,3.7c-5,0.2 -10.1,0.9 -10.2,0.9l0,0z"/>
  <path id="svg_408" d="m53.44445,40.12406c-0.1,0 -0.2,0 -0.3,-0.1c-0.1,-0.2 -0.1,-0.4 0,-0.5c0,0 4.7,-3.7 8.2,-6.4c3.9,-3 8.3,-3.3 8.5,-3.3s0.3,0.1 0.4,0.3c0,0.2 -0.1,0.3 -0.3,0.4c0,0 -4.4,0.3 -8.2,3.2c-3.5,2.7 -8.1,6.3 -8.3,6.4c0.2,0 0.1,0 0,0z"/>
  <path id="svg_409" d="m54.04445,39.82406c-0.1,0 -0.2,0 -0.3,-0.2c-0.1,-0.2 0,-0.4 0.1,-0.5c0,0 4.2,-2.5 8.3,-5c4.3,-2.6 8.1,-2.8 8.2,-2.8c0.2,0 0.3,0.1 0.4,0.3c0,0.2 -0.1,0.3 -0.3,0.4c0,0 -3.8,0.2 -7.9,2.7c-4,2.4 -8.3,5 -8.3,5c0,0 -0.1,0.1 -0.2,0.1z"/>
  <path id="svg_410" d="m58.04445,37.42406c-0.1,0 -0.3,-0.1 -0.3,-0.3s0,-0.4 0.2,-0.4c0,0 2.2,-0.7 6.1,-2.2s6.4,-1.7 6.5,-1.7c0.2,0 0.3,0.1 0.4,0.3c0,0.2 -0.1,0.3 -0.3,0.4c0,0 -2.5,0.2 -6.3,1.7c-3.9,1.4 -6.2,2.2 -6.3,2.2c0.1,0 0.1,0 0,0z"/>
  <path id="svg_411" d="m117.54445,21.62406c0,0 -0.1,0 0,0c-0.3,0 -0.4,-0.3 -0.3,-0.4c0.6,-1.9 1.6,-3 2,-3.4l0.1,-0.1c0.1,-0.2 0.3,-0.2 0.5,-0.2c0.2,0.1 0.3,0.3 0.2,0.5c0,0.1 -0.1,0.2 -0.3,0.3c-0.4,0.4 -1.3,1.4 -1.9,3.2c0,0 -0.1,0.1 -0.3,0.1z"/>
  <path id="svg_412" d="m115.94445,21.52406c0,0 -0.1,0 0,0c-0.3,0 -0.4,-0.3 -0.3,-0.4c0.6,-1.9 1.6,-3 2,-3.4l0.1,-0.1c0.1,-0.2 0.3,-0.2 0.5,-0.2c0.2,0.1 0.3,0.3 0.2,0.5c0,0.1 -0.1,0.2 -0.3,0.3c-0.4,0.4 -1.3,1.4 -1.9,3.2c0,0 -0.2,0.1 -0.3,0.1z"/>
  <path id="svg_413" d="m114.14445,21.22406l0,0c-0.3,0 -0.4,-0.3 -0.3,-0.4c0.6,-1.9 1.6,-3 2,-3.4l0.1,-0.1c0.1,-0.2 0.3,-0.2 0.5,-0.2c0.2,0.1 0.3,0.3 0.2,0.5c0,0.1 -0.1,0.2 -0.3,0.3c-0.4,0.4 -1.3,1.4 -1.9,3.2c0,0 -0.1,0.1 -0.3,0.1z"/>
  <path id="svg_414" d="m112.54445,20.62406c0,0 -0.1,0 0,0c-0.3,0 -0.4,-0.3 -0.3,-0.4c0.6,-1.9 1.6,-3 2,-3.4l0.1,-0.1c0.1,-0.2 0.3,-0.2 0.5,-0.2c0.2,0.1 0.3,0.3 0.2,0.5c0,0.1 -0.1,0.2 -0.3,0.3c-0.4,0.4 -1.3,1.4 -1.9,3.2c0,0.1 -0.1,0.1 -0.3,0.1z"/>
  <path id="svg_415" d="m111.04445,20.22406c-0.1,0 -0.1,0 0,0c-0.3,0 -0.4,-0.3 -0.3,-0.4c0.6,-1.9 1.6,-3 2,-3.4c0,-0.1 0.1,-0.1 0.1,-0.1c0.1,-0.2 0.3,-0.2 0.5,-0.2c0.2,0.1 0.3,0.3 0.2,0.5c0,0.1 -0.1,0.2 -0.3,0.3c-0.4,0.4 -1.3,1.4 -1.9,3.2c0,0 -0.2,0.1 -0.3,0.1z"/>
  <path id="svg_416" d="m109.74445,19.52406c-0.1,0 -0.1,0 0,0c-0.3,0 -0.4,-0.3 -0.3,-0.4c0.6,-1.9 1.6,-3 2,-3.4l0.1,-0.1c0.1,-0.2 0.3,-0.2 0.5,-0.2c0.2,0.1 0.3,0.3 0.2,0.5c0,0.1 -0.1,0.2 -0.3,0.3c-0.4,0.4 -1.3,1.4 -1.9,3.2c-0.1,0 -0.2,0.1 -0.3,0.1z"/>
  <path id="svg_417" d="m108.24445,18.82406c-0.1,0 -0.1,0 0,0c-0.3,0 -0.4,-0.3 -0.3,-0.4c0.6,-1.9 1.6,-3 2,-3.4l0.1,-0.1c0.1,-0.2 0.3,-0.2 0.5,-0.2c0.2,0.1 0.3,0.3 0.2,0.5c0,0.1 -0.1,0.2 -0.3,0.3c-0.4,0.4 -1.3,1.4 -1.9,3.2c-0.1,0 -0.2,0.1 -0.3,0.1z"/>
  <path id="svg_418" d="m106.64445,18.22406l0,0c-0.3,0 -0.4,-0.3 -0.3,-0.4c0.6,-1.9 1.6,-3 2,-3.4l0.1,-0.1c0.1,-0.2 0.3,-0.2 0.5,-0.2c0.2,0.1 0.3,0.3 0.2,0.5c0,0.1 -0.1,0.2 -0.3,0.3c-0.4,0.4 -1.3,1.4 -1.9,3.2c0,0 -0.1,0.1 -0.3,0.1z"/>
  <path id="svg_419" d="m105.24445,17.62406c-0.1,0 -0.1,0 0,0c-0.3,0 -0.4,-0.3 -0.3,-0.4c0.6,-1.9 1.6,-3 2,-3.4c0,-0.1 0.1,-0.1 0.1,-0.1c0.1,-0.2 0.3,-0.2 0.5,-0.2c0.2,0.1 0.3,0.3 0.2,0.5c0,0.1 -0.1,0.2 -0.3,0.3c-0.4,0.4 -1.3,1.4 -1.9,3.2c-0.1,0 -0.2,0.1 -0.3,0.1z"/>
  <path id="svg_420" d="m103.64445,17.12406c0,0 -0.1,0 0,0c-0.3,0 -0.4,-0.3 -0.3,-0.4c0.6,-1.9 1.6,-3 2,-3.4l0.1,-0.1c0.1,-0.2 0.3,-0.2 0.5,-0.2c0.2,0.1 0.3,0.3 0.2,0.5c0,0.1 -0.1,0.2 -0.3,0.3c-0.4,0.4 -1.3,1.4 -1.9,3.2c0,0 -0.2,0.1 -0.3,0.1z"/>
  <path id="svg_421" d="m101.74445,16.82406c-0.1,0 -0.1,0 0,0c-0.3,0 -0.4,-0.3 -0.3,-0.4c0.6,-1.9 1.6,-3 2,-3.4l0.1,-0.1c0.1,-0.2 0.3,-0.2 0.5,-0.2c0.2,0.1 0.3,0.3 0.2,0.5c0,0.1 -0.1,0.2 -0.3,0.3c-0.4,0.4 -1.3,1.4 -1.9,3.2c-0.1,0 -0.2,0.1 -0.3,0.1z"/>
  <path id="svg_422" d="m99.94445,16.72406c0,0 -0.1,0 0,0c-0.3,0 -0.4,-0.3 -0.3,-0.4c0.6,-1.9 1.6,-3 2,-3.4l0.1,-0.1c0.1,-0.2 0.3,-0.2 0.5,-0.2c0.2,0.1 0.3,0.3 0.2,0.5c0,0.1 -0.1,0.2 -0.3,0.3c-0.4,0.4 -1.3,1.4 -1.9,3.2c0,0 -0.1,0.1 -0.3,0.1z"/>
  <path id="svg_423" d="m98.14445,16.82406c0,0 -0.1,0 0,0c-0.3,0 -0.4,-0.3 -0.3,-0.4c0.6,-1.9 1.6,-3 2,-3.4c0,-0.1 0.1,-0.1 0.1,-0.1c0.1,-0.2 0.3,-0.2 0.5,-0.2c0.2,0.1 0.3,0.3 0.2,0.5c0,0.1 -0.1,0.2 -0.3,0.3c-0.4,0.4 -1.3,1.4 -1.9,3.2c0,0 -0.1,0.1 -0.3,0.1z"/>
  <path id="svg_424" d="m95.94445,17.32406c0,0 -0.1,0 0,0c-0.3,0 -0.4,-0.3 -0.3,-0.4c0.6,-1.9 1.6,-3 2,-3.4c0,-0.1 0.1,-0.1 0.1,-0.1c0.1,-0.2 0.3,-0.2 0.5,-0.2c0.2,0.1 0.3,0.3 0.2,0.5c0,0.1 -0.1,0.2 -0.3,0.3c-0.4,0.4 -1.3,1.4 -1.9,3.2c0,0 -0.2,0.1 -0.3,0.1z"/>
  <path id="svg_425" d="m94.14445,17.62406c-0.1,0 -0.1,0 0,0c-0.3,0 -0.4,-0.2 -0.3,-0.4c0.4,-1.7 0.8,-2.2 0.9,-2.5l0,0c0.1,-0.2 0.3,-0.3 0.4,-0.2c0.2,0.1 0.3,0.3 0.2,0.5c0,0.1 -0.1,0.2 -0.1,0.2c-0.1,0.2 -0.5,0.6 -0.8,2.2c0,0 -0.2,0.2 -0.3,0.2z"/>
  <path id="svg_426" d="m92.24445,17.82406c-0.1,0 -0.1,0 0,0c-0.3,0 -0.4,-0.2 -0.3,-0.4c0.1,-0.6 0.3,-1.2 0.6,-1.8c0.1,-0.2 0.3,-0.3 0.5,-0.2s0.3,0.3 0.2,0.5c-0.3,0.5 -0.4,1.1 -0.6,1.7c-0.1,0.1 -0.3,0.2 -0.4,0.2z"/>
  <path id="svg_427" d="m90.44445,17.82406l0,0c-0.3,0 -0.4,-0.2 -0.3,-0.4c0.1,-0.5 0.2,-0.7 0.3,-1.1c0.1,-0.2 0.3,-0.3 0.4,-0.2c0.2,0.1 0.3,0.3 0.2,0.4c-0.1,0.3 -0.2,0.6 -0.3,1c0,0.2 -0.1,0.3 -0.3,0.3z"/>
  <path id="svg_428" d="m144.24445,28.22406c-0.1,0 -0.3,-0.1 -0.3,-0.2c-0.1,-0.2 0,-0.4 0.2,-0.4c3.7,-1.4 7.2,-0.5 7.3,-0.5c0.2,0 0.3,0.3 0.3,0.4c0,0.2 -0.3,0.3 -0.4,0.3c0,0 -3.3,-0.8 -6.9,0.4c-0.1,0 -0.2,0 -0.2,0z"/>
  <path id="svg_429" d="m143.54445,26.72406c-0.1,0 -0.3,-0.1 -0.3,-0.2c-0.1,-0.2 0,-0.4 0.2,-0.4c3.7,-1.4 6.8,-0.6 6.9,-0.6c0.2,0 0.5,0.3 0.4,0.5c0,0.2 0,0.3 -0.3,0.3c0,0 -3.3,-0.8 -6.9,0.4c0.1,0 0.1,0 0,0z"/>
  <path id="svg_430" d="m142.44445,25.22406c-0.1,0 -0.3,-0.1 -0.3,-0.2c-0.1,-0.2 0,-0.4 0.2,-0.4c3.7,-1.4 7.2,-0.5 7.3,-0.5c0.2,0 0.3,0.3 0.3,0.4c0,0.2 -0.3,0.3 -0.4,0.3c0,0 -3.3,-0.8 -6.9,0.4c-0.1,0 -0.2,0 -0.2,0z"/>
  <path id="svg_431" d="m141.14445,23.82406c-0.1,0 -0.3,-0.1 -0.3,-0.2c-0.1,-0.2 0,-0.4 0.2,-0.4c3.7,-1.4 7.2,-0.5 7.3,-0.5c0.2,0 0.3,0.3 0.3,0.4c0,0.2 -0.3,0.3 -0.4,0.3c0,0 -3.3,-0.8 -6.9,0.4c-0.2,0 -0.2,0 -0.2,0z"/>
  <path id="svg_432" d="m120.44445,39.72406l-0.1,0c-7.9,-3.1 -9.6,-8.2 -9.7,-8.4c0,-0.2 0,-0.4 0.2,-0.4s0.4,0 0.4,0.2c0,0 1.7,5 9.3,8c0.2,0.1 0.3,0.3 0.2,0.5c0,0.1 -0.2,0.1 -0.3,0.1z"/>
  <path id="svg_433" d="m122.34445,40.02406l-0.1,0c-7.9,-3.1 -9.9,-8.9 -10,-9.2c0,-0.2 0,-0.4 0.2,-0.4s0.4,0 0.4,0.2c0,0 2,5.8 9.6,8.8c0.2,0.1 0.3,0.3 0.2,0.5c0,0 -0.1,0.1 -0.3,0.1z"/>
  <path id="svg_434" d="m124.04445,40.02406l-0.1,0c-7.9,-3.1 -9.6,-8.9 -9.7,-9.2c0,-0.2 0,-0.4 0.3,-0.4c0.2,0 0.4,0 0.4,0.3c0,0 1.7,5.8 9.4,8.8c0.2,0.1 0.3,0.3 0.2,0.5c-0.2,-0.1 -0.4,0 -0.5,0z"/>
  <path id="svg_435" d="m126.04445,39.92406l-0.1,0c-6.9,-2.7 -9.2,-7.6 -9.7,-9c-0.1,-0.2 0,-0.4 0.2,-0.5s0.4,0 0.5,0.2c0.5,1.4 2.8,6 9.4,8.6c0.2,0.1 0.3,0.3 0.2,0.5c-0.3,0.2 -0.4,0.2 -0.5,0.2z"/>
  <path id="svg_436" d="m127.54445,39.72406l-0.1,0c-6.6,-2.6 -8.9,-7.2 -9.4,-8.5c-0.1,-0.2 0,-0.4 0.2,-0.5s0.4,0 0.5,0.2c0.5,1.3 2.7,5.6 9.1,8.2c0.2,0.1 0.3,0.3 0.2,0.5c-0.2,0.1 -0.4,0.1 -0.5,0.1z"/>
  <path id="svg_437" d="m129.34445,39.72406l-0.1,0c-6.3,-2.5 -8.6,-6.6 -9.3,-8.3c-0.1,-0.2 0,-0.4 0.2,-0.5s0.4,0 0.5,0.2c0.7,1.6 3,5.5 8.9,7.9c0.2,0.1 0.3,0.3 0.2,0.5c-0.1,0.1 -0.3,0.2 -0.4,0.2z"/>
  <path id="svg_438" d="m130.44445,39.52406l-0.1,0c-5.5,-2.5 -7.5,-6.3 -8.2,-7.8c-0.1,-0.2 0,-0.4 0.2,-0.5s0.4,0 0.5,0.2c0.6,1.4 2.6,5 7.9,7.4c0.2,0.1 0.3,0.3 0.2,0.5c-0.3,0.1 -0.4,0.2 -0.5,0.2z"/>
  <path id="svg_439" d="m132.54445,39.52406l-0.1,0c-5.2,-2.3 -7.4,-5.9 -8.1,-7.3c-0.1,-0.2 0,-0.4 0.2,-0.5s0.4,0 0.5,0.2c0.6,1.4 2.7,4.8 7.7,7c0.2,0.1 0.3,0.3 0.2,0.5c-0.1,0 -0.3,0.1 -0.4,0.1z"/>
  <path id="svg_440" d="m134.04445,39.52406c0,0 -0.1,0 -0.2,0c-4.8,-2.3 -6.8,-5.7 -7.4,-7c-0.1,-0.2 0,-0.4 0.2,-0.5s0.4,0 0.5,0.2c0.6,1.3 2.5,4.4 7.1,6.7c0.2,0.1 0.3,0.3 0.2,0.5c-0.2,0 -0.2,0.1 -0.4,0.1z"/>
  <path id="svg_441" d="m136.04445,39.72406c0,0 -0.1,0 -0.2,0c-4.4,-2.2 -6.3,-5.3 -7.1,-6.9c-0.1,-0.2 0,-0.4 0.2,-0.5s0.4,0 0.5,0.2c0.6,1.2 2.4,4.3 6.8,6.6c0.2,0.1 0.3,0.3 0.2,0.5c-0.2,0.1 -0.3,0.1 -0.4,0.1z"/>
  <path id="svg_442" d="m67.74445,21.82406c-1.4,0 -2.8,-0.4 -4.1,-1.2c-3,-1.7 -4.7,-2.5 -4.7,-2.5c-0.2,-0.1 -0.3,-0.3 -0.2,-0.5c0.1,-0.2 0.3,-0.3 0.5,-0.2c0,0 1.7,0.8 4.8,2.6c2.3,1.3 4.4,1.4 6.4,0.5c1,-0.5 1.5,-1.3 1.5,-1.3c0.1,-0.2 0.3,-0.2 0.5,-0.1c0.2,0.1 0.2,0.3 0.1,0.5c0,0 -0.6,1 -1.8,1.6c-1,0.4 -2,0.6 -3,0.6z"/>
  <path id="svg_443" d="m67.14445,20.12406c-1.4,0 -3,-0.5 -4.5,-1.6c-0.4,-0.3 -0.8,-0.5 -1.1,-0.7c-0.2,-0.1 -0.2,-0.3 -0.1,-0.5s0.3,-0.2 0.5,-0.1c0.3,0.2 0.7,0.5 1.1,0.7c3,1.9 5,1.5 6.2,1.1c1,-0.4 1.6,-1.2 1.6,-1.2c0.1,-0.2 0.3,-0.2 0.5,-0.1c0.2,0.1 0.2,0.3 0.1,0.5c0,0 -0.7,1 -1.9,1.4c-0.9,0.3 -1.7,0.5 -2.4,0.5z"/>
  <path id="svg_444" d="m66.74445,18.62406c-1.1,0 -2.4,-0.4 -3.6,-1.3c-0.2,-0.1 -0.2,-0.3 -0.1,-0.5s0.3,-0.2 0.5,-0.1c1.4,1 2.8,1.3 3.9,1.1c1.6,-0.3 2.4,-1.5 2.4,-1.5c0.1,-0.2 0.3,-0.2 0.5,-0.1c0.2,0.1 0.2,0.3 0.1,0.5c0,0 -1,1.5 -2.8,1.8c-0.3,0 -0.6,0.1 -0.9,0.1z"/>
  <path id="svg_445" d="m30.84445,27.22406c-0.6,0 -0.9,0 -1,0c-0.2,-0.1 -0.3,-0.3 -0.2,-0.5c0,-0.2 0.2,-0.3 0.4,-0.2c0.3,0 7.4,0.3 13,-3c0.2,-0.1 0.4,0 0.5,0.1c0.1,0.2 0,0.4 -0.1,0.5c-4.7,2.6 -10.3,3.1 -12.6,3.1z"/>
  <path id="svg_446" d="m31.24445,25.92406c-0.2,0 -0.3,-0.1 -0.3,-0.3s0.1,-0.3 0.3,-0.3c2.4,-0.1 6.9,-0.6 10.7,-2.7c0.2,-0.1 0.4,0 0.5,0.1c0.1,0.2 0,0.4 -0.1,0.5c-4,2.1 -8.7,2.6 -11.1,2.7l0,0z"/>
  <path id="svg_447" d="m32.34445,24.62406c-0.2,0 -0.3,-0.1 -0.3,-0.3s0.1,-0.4 0.3,-0.4c2.3,-0.3 5.7,-0.9 8.7,-2.5c0.2,-0.1 0.4,0 0.5,0.1c0.1,0.2 0,0.4 -0.1,0.5c-3.2,1.7 -6.7,2.4 -9.1,2.6l0,0z"/>
  <path id="svg_448" d="m33.34445,23.42406c-0.2,0 -0.3,-0.1 -0.3,-0.3s0.1,-0.4 0.3,-0.4c2.5,-0.5 4.7,-1.2 6.6,-2.2c0.2,-0.1 0.4,0 0.5,0.1c0.1,0.2 0,0.4 -0.1,0.5c-2,1.1 -4.3,1.8 -7,2.3l0,0z"/>
  <path id="svg_449" d="m34.94445,21.92406c-0.2,0 -0.3,-0.1 -0.3,-0.3s0,-0.4 0.3,-0.4c1.4,-0.4 2.7,-1 3.9,-1.6c0.2,-0.1 0.4,0 0.5,0.1c0.1,0.2 0,0.4 -0.1,0.5c-1.4,0.7 -2.8,1.2 -4.3,1.7l0,0z"/>
  <path id="svg_450" d="m39.04445,70.02406c-1.4,0 -2.6,-0.5 -2.7,-0.6c-0.2,-0.1 -0.3,-0.3 -0.2,-0.5c0.1,-0.2 0.3,-0.3 0.5,-0.2c0,0 3,1.3 5,-0.4c0.3,-0.3 0.6,-0.5 0.9,-0.8c1.1,-1.1 2.4,-2.4 5,-2.3c0.2,0 0.3,0.2 0.3,0.3c0,0.2 -0.2,0.3 -0.3,0.3c-2.3,-0.1 -3.4,1 -4.5,2.1c-0.3,0.3 -0.6,0.6 -0.9,0.9c-1,0.9 -2.1,1.2 -3.1,1.2z"/>
  <path id="svg_451" d="m44.44445,84.82406c-2.6,0 -3.8,-0.8 -3.9,-0.8c-0.2,-0.1 -0.2,-0.3 -0.1,-0.5s0.3,-0.2 0.5,-0.1c0,0 2.6,1.7 9,-0.2c0.2,0 0.4,0 0.4,0.3c0,0.2 0,0.4 -0.3,0.4c-2.3,0.7 -4.2,0.9 -5.6,0.9z"/>
  <path id="svg_452" d="m44.14445,86.32406c-1.5,0 -2.5,-0.2 -3.1,-0.4c-0.2,0 -0.3,-0.3 -0.2,-0.4c0,-0.2 0.3,-0.3 0.4,-0.2c1.1,0.4 3.8,0.8 8.3,-0.5c0.2,0 0.4,0 0.4,0.3c0,0.2 0,0.4 -0.3,0.4c-2.1,0.6 -4,0.8 -5.5,0.8z"/>
  <path id="svg_453" d="m43.94445,87.92406c-0.9,0 -1.6,-0.1 -2.2,-0.2c-0.2,0 -0.3,-0.2 -0.3,-0.4s0.2,-0.3 0.4,-0.3c1.4,0.3 3.8,0.4 7.5,-0.7c0.2,0 0.4,0 0.4,0.3c0,0.2 0,0.4 -0.3,0.4c-2.2,0.6 -4.1,0.9 -5.5,0.9z"/>
  <path id="svg_454" d="m43.74445,89.42406c-0.4,0 -0.8,0 -1.1,0c-0.2,0 -0.3,-0.2 -0.3,-0.4s0.2,-0.3 0.4,-0.3c1.9,0.2 4,-0.1 6.5,-0.8c0.2,0 0.4,0 0.4,0.3c0,0.2 0,0.4 -0.3,0.4c-2.1,0.5 -4,0.8 -5.6,0.8z"/>
  <path id="svg_455" d="m43.44445,90.92406c-0.2,0 -0.3,-0.2 -0.3,-0.3c0,-0.2 0.2,-0.3 0.3,-0.3c1.6,0 3.5,-0.3 5.5,-0.9c0.2,0 0.4,0 0.4,0.3c0,0.2 0,0.4 -0.3,0.4c-2,0.5 -3.9,0.8 -5.6,0.8l0,0z"/>
  <path id="svg_456" d="m44.14445,92.42406c-0.2,0 -0.3,-0.1 -0.3,-0.3s0.1,-0.3 0.3,-0.4c1.4,-0.1 3,-0.4 4.7,-0.8c0.2,0 0.4,0 0.4,0.3c0,0.2 0,0.4 -0.3,0.4c-1.8,0.4 -3.4,0.7 -4.8,0.8l0,0z"/>
  <path id="svg_457" d="m59.54445,123.32406c-0.7,0 -1.3,-0.4 -1.9,-1.2c-2.2,-3.3 -6.5,-9 -6.6,-9c-0.1,-0.2 -0.1,-0.4 0.1,-0.5s0.4,-0.1 0.5,0.1c0,0 4.3,5.8 6.6,9.1c0.4,0.6 0.8,0.9 1.4,0.9c1.4,-0.1 2.8,-2.5 3.3,-3.4c0,0 1.6,-3.3 6.1,-1.4c0.2,0.1 0.3,0.3 0.2,0.5c-0.1,0.2 -0.3,0.3 -0.5,0.2c-3.9,-1.7 -5.2,0.9 -5.2,1c-0.2,0.1 -2,3.6 -4,3.7c0.1,0 0,0 0,0z" fill="#FFFFFF"/>
  <path id="svg_458" d="m59.64445,125.62406c-0.8,0 -1.6,-0.5 -2.2,-1.4l-0.9,-1.4c-0.1,-0.2 -0.1,-0.4 0.1,-0.5s0.4,-0.1 0.5,0.1l0.9,1.4c0.5,0.8 1.1,1.1 1.7,1.1c1.5,-0.1 3.1,-2.4 3.6,-3.5c0.4,-0.9 1.4,-3 4.9,-1.9c0.2,0 0.3,0.3 0.2,0.4c0,0.2 -0.3,0.3 -0.4,0.2c-2.8,-0.9 -3.6,0.3 -4.1,1.6c-0.3,0.7 -2.1,3.8 -4.1,3.9c-0.1,0 -0.2,0 -0.2,0z" fill="#FFFFFF"/>
  <path id="svg_459" d="m60.14445,127.52406c-1,0 -1.9,-0.5 -2.8,-1.4c-0.1,-0.1 -0.1,-0.3 0,-0.5c0.1,-0.1 0.3,-0.1 0.5,0c1,0.9 1.9,1.4 2.8,1.1c1.7,-0.3 3,-2.6 3.3,-3.4c0.4,-0.9 1.3,-3.1 3.9,-2.2c0.2,0 0.3,0.3 0.2,0.4c0,0.2 -0.3,0.3 -0.4,0.2c-1.9,-0.6 -2.5,0.5 -3,1.8c-0.5,1.2 -1.9,3.5 -3.9,3.9c-0.3,0.1 -0.5,0.1 -0.6,0.1z" fill="#FFFFFF"/>
  <path id="svg_460" d="m72.44445,154.62406l0,0c-0.2,0 -0.3,-0.2 -0.3,-0.4c0,0 0.4,-2.8 -3.9,-6.6c-4.4,-4 -5.5,-7 -5.5,-7.2s0,-0.4 0.2,-0.4c0.2,-0.1 0.4,0 0.4,0.2c0,0 1.1,3 5.4,6.9c4.5,4.1 4.1,7 4.1,7.2c-0.1,0.2 -0.2,0.3 -0.4,0.3z"/>
  <path id="svg_461" d="m77.74445,169.22406c-2.9,0 -6.2,-4.9 -6.3,-5.1c-0.1,-0.2 0,-0.4 0.1,-0.5c0.2,-0.1 0.4,0 0.5,0.1c0,0 3.3,5 5.8,4.8c0.2,0 0.3,0.1 0.4,0.3c0,0.2 -0.1,0.3 -0.3,0.4c-0.1,0 -0.1,0 -0.2,0z"/>
  <path id="svg_462" d="m77.64445,170.62406c-1.1,0 -2.5,-0.7 -3.9,-2.2c-0.1,-0.1 -0.1,-0.3 0,-0.5c0.1,-0.1 0.3,-0.1 0.5,0c1.4,1.4 2.5,2 3.5,1.9c0.2,0 0.3,0.1 0.4,0.3c0,0.2 -0.1,0.3 -0.3,0.4c-0.1,0.1 -0.2,0.1 -0.2,0.1z"/>
  <path id="svg_463" d="m77.14445,171.92406c-0.8,0 -1.4,-0.3 -2.5,-1c-0.2,-0.1 -0.2,-0.3 -0.1,-0.5c0.1,-0.2 0.3,-0.2 0.5,-0.1c1,0.7 1.5,0.9 2.2,0.8c0.2,0 0.3,0.1 0.4,0.3c0,0.2 -0.1,0.3 -0.3,0.4c0,0.1 -0.1,0.1 -0.2,0.1z"/>
  <path id="svg_464" d="m76.94445,173.32406c-0.4,0 -0.8,-0.1 -1.2,-0.3c-0.2,-0.1 -0.3,-0.3 -0.2,-0.5s0.3,-0.3 0.5,-0.2c0.4,0.2 0.7,0.3 1.1,0.2c0.2,0 0.3,0.1 0.4,0.3c0,0.2 -0.1,0.3 -0.3,0.4s-0.2,0.1 -0.3,0.1z"/>
  <path id="svg_465" d="m102.94445,172.62406l-0.1,0c-0.2,-0.1 -0.3,-0.3 -0.2,-0.5c0,0 1.9,-4.2 2.2,-6.6c0.3,-2.6 2,-6.8 5.7,-10.4c0.1,-0.1 0.3,-0.1 0.5,0c0.1,0.1 0.1,0.3 0,0.5c-3.5,3.5 -5.2,7.6 -5.5,10c-0.3,2.5 -2.2,6.6 -2.3,6.9c-0.1,0 -0.2,0.1 -0.3,0.1z"/>
  <path id="svg_466" d="m110.84445,140.82406l0,0c-0.2,0 -0.3,-0.2 -0.3,-0.4c0,-0.3 1.1,-6.4 5.3,-9.1c6.3,-4 8.7,-6.9 8.8,-6.9c0.1,-0.1 0.3,-0.2 0.5,0c0.1,0.1 0.2,0.3 0,0.5c-0.1,0.1 -2.5,2.9 -8.9,7c-3.9,2.5 -5,8.5 -5,8.6c-0.2,0.1 -0.3,0.3 -0.4,0.3z"/>
  <path id="svg_467" d="m122.04445,112.42406c-0.2,0 -0.4,0 -0.6,0c-0.2,0 -0.3,-0.2 -0.3,-0.4s0.2,-0.3 0.4,-0.3c3.3,0.3 5.9,-1.6 7.4,-5.1c1.8,-4.2 5.3,-9.5 5.4,-9.6c0.1,-0.2 0.3,-0.2 0.5,-0.1c0.2,0.1 0.2,0.3 0.1,0.5c0,0 -3.5,5.3 -5.3,9.5c-2.1,4.8 -5.7,5.5 -7.6,5.5z" fill="#FFFFFF"/>
  <path id="svg_468" d="m140.54445,71.52406c-0.4,0 -0.6,0 -0.6,0c-0.2,0 -0.3,-0.2 -0.3,-0.4s0.2,-0.3 0.4,-0.3s5,0.6 5.9,-3.9c1,-4.9 4.1,-8.7 4.2,-8.9c0.1,-0.2 0.3,-0.2 0.5,0c0.2,0.1 0.2,0.3 0,0.5c0,0 -3,3.9 -4.1,8.6c-0.8,4 -4.5,4.4 -6,4.4z"/>
  <path id="svg_469" d="m141.04445,73.02406c-0.4,0 -0.6,0 -0.6,0c-0.2,0 -0.3,-0.2 -0.3,-0.4s0.2,-0.3 0.4,-0.3s5,0.6 5.9,-3.9c0.4,-2 1.2,-4 2.4,-6.1c0.1,-0.2 0.3,-0.2 0.5,-0.1c0.2,0.1 0,0.6 0,0.8c-1.1,2 -1.7,3.6 -2.1,5.5c-1,4.1 -4.7,4.5 -6.2,4.5z"/>
  <path id="svg_470" d="m141.34445,74.72406c-0.4,0 -0.6,0 -0.7,0c-0.2,0 -0.3,-0.2 -0.3,-0.4s0.2,-0.3 0.4,-0.3s4.4,0.5 5.7,-3c0.1,-0.3 0.3,-0.6 0.3,-0.9c0,-0.2 0.2,-0.3 0.4,-0.3s0.3,0.2 0.3,0.4c-0.1,0.4 -0.3,0.8 -0.3,1.1c-1.2,3.1 -4.4,3.4 -5.8,3.4z"/>
  <path id="svg_471" d="m141.64445,76.22406c-0.4,0 -0.7,0 -0.7,0c-0.2,0 -0.3,-0.2 -0.3,-0.4s0.2,-0.3 0.4,-0.3c0,0 2.6,0.3 4.4,-1.2c0.1,-0.1 0.4,-0.1 0.5,0s0.1,0.4 0,0.5c-1.5,1.2 -3.4,1.4 -4.3,1.4z"/>
  <g id="svg_472">
   <path id="svg_473" d="m55.94445,114.42406c-1.5,0 -3,-0.3 -4.4,-0.9c-0.2,-0.1 -0.3,-0.3 -0.2,-0.5c0.1,-0.2 0.3,-0.3 0.5,-0.2c1.3,0.6 2.7,0.8 4.1,0.8c5.7,0 10.4,-4.6 10.4,-10.2c0,-5.6 -4.7,-10.2 -10.4,-10.2c-4.4,0 -8.3,2.7 -9.8,6.8c-0.1,0.2 -0.3,0.3 -0.4,0.2c-0.2,-0.1 -0.3,-0.3 -0.2,-0.4c1.6,-4.3 5.8,-7.2 10.4,-7.2c6.1,0 11.1,4.9 11.1,10.9c0,6 -5,10.9 -11.1,10.9z"/>
   <path id="svg_474" d="m46.94445,98.12406c-0.1,0 -0.3,-0.1 -0.3,-0.2c-0.1,-0.2 0,-0.4 0.2,-0.5l11,-4.7c0.2,-0.1 0.4,0 0.5,0.2s0,0.4 -0.2,0.5l-11,4.7c-0.1,0 -0.1,0 -0.2,0z"/>
   <path id="svg_475" d="m50.24445,98.52406c-0.1,0 -0.3,-0.1 -0.3,-0.2c-0.1,-0.2 0,-0.4 0.2,-0.5l10,-4.3c0.2,-0.1 0.4,0 0.5,0.2s0,0.4 -0.2,0.5l-10,4.3c-0.1,0 -0.2,0 -0.2,0z"/>
   <path id="svg_476" d="m52.94445,99.12406c-0.1,0 -0.3,-0.1 -0.3,-0.2c-0.1,-0.2 0,-0.4 0.2,-0.5l9.1,-3.9c0.2,-0.1 0.4,0 0.5,0.2s0,0.4 -0.2,0.5l-9.1,3.9c-0.1,0 -0.2,0 -0.2,0z"/>
   <path id="svg_477" d="m54.84445,100.02406c-0.1,0 -0.3,-0.1 -0.3,-0.2c-0.1,-0.2 0,-0.4 0.2,-0.5l8.6,-3.7c0.2,-0.1 0.4,0 0.5,0.2s0,0.4 -0.2,0.5l-8.6,3.7c-0.1,0 -0.2,0 -0.2,0z"/>
   <path id="svg_478" d="m56.24445,101.12406c-0.1,0 -0.3,-0.1 -0.3,-0.2c-0.1,-0.2 0,-0.4 0.2,-0.5l8.3,-3.6c0.2,-0.1 0.4,0 0.5,0.2s0,0.4 -0.2,0.5l-8.3,3.6c-0.2,0 -0.2,0 -0.2,0z"/>
   <path id="svg_479" d="m57.24445,102.52406c-0.1,0 -0.3,-0.1 -0.3,-0.2c-0.1,-0.2 0,-0.4 0.2,-0.5l8,-3.5c0.2,-0.1 0.4,0 0.5,0.2s0,0.4 -0.2,0.5l-8,3.5c-0.1,-0.1 -0.2,0 -0.2,0z"/>
   <path id="svg_480" d="m58.04445,103.92406c-0.1,0 -0.3,-0.1 -0.3,-0.2c-0.1,-0.2 0,-0.4 0.2,-0.5l7.9,-3.4c0.2,-0.1 0.4,0 0.5,0.2s0,0.4 -0.2,0.5l-7.9,3.4c-0.1,-0.1 -0.2,0 -0.2,0z"/>
   <path id="svg_481" d="m58.54445,105.32406c-0.1,0 -0.3,-0.1 -0.3,-0.2c-0.1,-0.2 0,-0.4 0.2,-0.5l7.9,-3.4c0.2,-0.1 0.4,0 0.5,0.2s0,0.4 -0.2,0.5l-7.9,3.4c-0.1,0 -0.2,0 -0.2,0z"/>
   <path id="svg_482" d="m58.74445,107.02406c-0.1,0 -0.3,-0.1 -0.3,-0.2c-0.1,-0.2 0,-0.4 0.2,-0.5l8,-3.4c0.2,-0.1 0.4,0 0.5,0.2s0,0.4 -0.2,0.5l-8,3.4c-0.1,0 -0.2,0 -0.2,0z"/>
   <path id="svg_483" d="m58.74445,108.82406c-0.1,0 -0.3,-0.1 -0.3,-0.2c-0.1,-0.2 0,-0.4 0.2,-0.5l7.8,-3.4c0.2,-0.1 0.4,0 0.5,0.2s0,0.4 -0.2,0.5l-7.8,3.4c-0.2,0 -0.2,0 -0.2,0z"/>
   <path id="svg_484" d="m58.14445,110.72406c-0.1,0 -0.3,-0.1 -0.3,-0.2c-0.1,-0.2 0,-0.4 0.2,-0.5l7.8,-3.4c0.2,-0.1 0.4,0 0.5,0.2s0,0.4 -0.2,0.5l-7.8,3.4c-0.1,0 -0.1,0 -0.2,0z"/>
   <path id="svg_485" d="m56.84445,113.02406c-0.1,0 -0.3,-0.1 -0.3,-0.2c-0.1,-0.2 0,-0.4 0.2,-0.5l8.2,-3.6c0.2,-0.1 0.4,0 0.5,0.2s0,0.4 -0.2,0.5l-8.2,3.6c-0.1,0 -0.2,0 -0.2,0z"/>
   <path id="svg_486" d="m49.94445,103.62406c0,0 -0.1,0 -0.2,0c-0.6,-0.1 -1,-0.7 -0.9,-1.3s0.7,-1 1.3,-0.9c0.3,0 0.6,0.2 0.7,0.4c0.2,0.3 0.3,0.5 0.2,0.8c-0.1,0.7 -0.6,1 -1.1,1zm0,-1.4c-0.2,0 -0.3,0.1 -0.4,0.3c0,0.2 0.1,0.4 0.3,0.5s0.4,-0.1 0.5,-0.3c0,-0.1 0,-0.2 -0.1,-0.3c0,-0.2 -0.1,-0.2 -0.3,-0.2l0,0z"/>
   <path id="svg_487" d="m54.84445,105.62406c0,0 -0.1,0 -0.2,0c-0.6,-0.1 -1,-0.7 -0.9,-1.3s0.7,-1 1.3,-0.9c0.3,0 0.6,0.2 0.7,0.4c0.2,0.3 0.3,0.5 0.2,0.8c0,0.3 -0.2,0.6 -0.4,0.7c-0.3,0.2 -0.5,0.3 -0.7,0.3zm0,-1.5c-0.2,0 -0.3,0.1 -0.4,0.3c0,0.2 0.1,0.4 0.3,0.5s0.4,-0.1 0.5,-0.3s-0.1,-0.5 -0.4,-0.5l0,0z"/>
   <path id="svg_488" d="m54.34445,111.22406c0,0 -0.1,0 -0.2,0c-0.3,0 -0.6,-0.2 -0.7,-0.4c-0.2,-0.3 -0.3,-0.5 -0.2,-0.8c0.1,-0.6 0.7,-1 1.3,-0.9c0.6,0.1 1,0.7 0.9,1.3l0,0c0,0.3 -0.2,0.6 -0.4,0.7c-0.2,0 -0.5,0.1 -0.7,0.1zm0,-1.5c-0.2,0 -0.3,0.1 -0.4,0.3c0,0.2 0.1,0.4 0.3,0.5s0.4,-0.1 0.5,-0.3s-0.1,-0.5 -0.4,-0.5c0.1,0 0.1,0 0,0zm0.8,0.5l0,0l0,0z"/>
   <path id="svg_489" d="m49.64445,108.72406c-0.1,0 -0.2,0 -0.3,0c-0.3,-0.1 -0.5,-0.3 -0.6,-0.5c-0.3,-0.5 -0.1,-1.2 0.4,-1.5c0.3,-0.1 0.6,-0.2 0.8,-0.1c0.3,0.1 0.5,0.3 0.6,0.5c0.1,0.3 0.2,0.6 0.1,0.8c-0.1,0.3 -0.3,0.5 -0.5,0.6c-0.1,0.2 -0.3,0.2 -0.5,0.2zm0,-1.5c-0.1,0 -0.1,0 -0.2,0c-0.2,0.1 -0.3,0.3 -0.2,0.6c0,0.1 0.1,0.2 0.3,0.2c0.1,0 0.2,0 0.3,0s0.2,-0.1 0.2,-0.3c0,-0.1 0,-0.2 0,-0.3c-0.1,-0.1 -0.2,-0.2 -0.4,-0.2z"/>
  </g>
  <g id="svg_490">
   <path id="svg_491" d="m89.44445,165.62406c-5.5,0 -9.9,-4.4 -9.9,-9.7s4.4,-9.7 9.9,-9.7s9.9,4.4 9.9,9.7c0,5.3 -4.5,9.7 -9.9,9.7zm0,-18.8c-5.1,0 -9.2,4.1 -9.2,9.1s4.1,9.1 9.2,9.1s9.2,-4.1 9.2,-9.1s-4.1,-9.1 -9.2,-9.1z"/>
   <path id="svg_492" d="m81.44445,151.12406c-0.1,0 -0.3,-0.1 -0.3,-0.2c-0.1,-0.2 0,-0.4 0.2,-0.5l9.7,-4.2c0.2,-0.1 0.4,0 0.5,0.2s0,0.4 -0.2,0.5l-9.7,4.2c-0.1,0 -0.1,0 -0.2,0z"/>
   <path id="svg_493" d="m84.34445,151.52406c-0.1,0 -0.3,-0.1 -0.3,-0.2c-0.1,-0.2 0,-0.4 0.2,-0.5l8.8,-3.9c0.2,-0.1 0.4,0 0.5,0.2s0,0.4 -0.2,0.5l-8.8,3.9c-0.1,0 -0.2,0 -0.2,0z"/>
   <path id="svg_494" d="m86.74445,152.02406c-0.1,0 -0.3,-0.1 -0.3,-0.2c-0.1,-0.2 0,-0.4 0.2,-0.5l8,-3.5c0.2,-0.1 0.4,0 0.5,0.2s0,0.4 -0.2,0.5l-8,3.5c-0.1,0 -0.1,0 -0.2,0z"/>
   <path id="svg_495" d="m88.44445,152.82406c-0.1,0 -0.3,-0.1 -0.3,-0.2c-0.1,-0.2 0,-0.4 0.2,-0.5l7.6,-3.3c0.2,-0.1 0.4,0 0.5,0.2s0,0.4 -0.2,0.5l-7.6,3.3c-0.1,0 -0.2,0 -0.2,0z"/>
   <path id="svg_496" d="m89.64445,153.82406c-0.1,0 -0.3,-0.1 -0.3,-0.2c-0.1,-0.2 0,-0.4 0.2,-0.5l7.4,-3.2c0.2,-0.1 0.4,0 0.5,0.2s0,0.4 -0.2,0.5l-7.4,3.2c-0.1,0 -0.1,0 -0.2,0z"/>
   <path id="svg_497" d="m90.54445,154.92406c-0.1,0 -0.3,-0.1 -0.3,-0.2c-0.1,-0.2 0,-0.4 0.2,-0.5l7.2,-3.1c0.2,-0.1 0.4,0 0.5,0.2s0,0.4 -0.2,0.5l-7.2,3.1c-0.1,0 -0.1,0 -0.2,0z"/>
   <path id="svg_498" d="m91.24445,156.22406c-0.1,0 -0.3,-0.1 -0.3,-0.2c-0.1,-0.2 0,-0.4 0.2,-0.5l7,-3c0.2,-0.1 0.4,0 0.5,0.2s0,0.4 -0.2,0.5l-7,3c-0.1,0 -0.1,0 -0.2,0z"/>
   <path id="svg_499" d="m91.74445,157.52406c-0.1,0 -0.3,-0.1 -0.3,-0.2c-0.1,-0.2 0,-0.4 0.2,-0.5l7,-3c0.2,-0.1 0.4,0 0.5,0.2s0,0.4 -0.2,0.5l-7,3c-0.1,0 -0.2,0 -0.2,0z"/>
   <path id="svg_500" d="m91.84445,159.02406c-0.1,0 -0.3,-0.1 -0.3,-0.2c-0.1,-0.2 0,-0.4 0.2,-0.5l7.1,-3c0.2,-0.1 0.4,0 0.5,0.2s0,0.4 -0.2,0.5l-7.1,3c-0.1,0 -0.1,0 -0.2,0z"/>
   <path id="svg_501" d="m91.84445,160.62406c-0.1,0 -0.3,-0.1 -0.3,-0.2c-0.1,-0.2 0,-0.4 0.2,-0.5l7,-3c0.2,-0.1 0.4,0 0.5,0.2s0,0.4 -0.2,0.5l-7,3c-0.1,0 -0.1,0 -0.2,0z"/>
   <path id="svg_502" d="m91.44445,162.32406c-0.1,0 -0.3,-0.1 -0.3,-0.2c-0.1,-0.2 0,-0.4 0.2,-0.5l6.9,-3c0.2,-0.1 0.4,0 0.5,0.2s0,0.4 -0.2,0.5l-6.9,3c-0.1,0 -0.2,0 -0.2,0z"/>
   <path id="svg_503" d="m90.24445,164.42406c-0.1,0 -0.3,-0.1 -0.3,-0.2c-0.1,-0.2 0,-0.4 0.2,-0.5l7.3,-3.1c0.2,-0.1 0.4,0 0.5,0.2s0,0.4 -0.2,0.5l-7.3,3.1c-0.1,-0.1 -0.2,0 -0.2,0z"/>
   <path id="svg_504" d="m84.04445,156.02406c0,0 -0.1,0 -0.2,0c-0.3,0 -0.5,-0.2 -0.6,-0.4c-0.2,-0.2 -0.2,-0.5 -0.2,-0.8s0.2,-0.5 0.4,-0.6c0.2,-0.2 0.5,-0.2 0.8,-0.2c0.6,0.1 0.9,0.6 0.8,1.1l0,0c-0.1,0.6 -0.5,0.9 -1,0.9zm0,-1.3c-0.1,0 -0.1,0 -0.2,0c-0.1,0 -0.1,0.1 -0.1,0.2s0,0.2 0,0.3s0.1,0.1 0.2,0.1c0.2,0 0.3,-0.1 0.4,-0.3c0.1,-0.1 0,-0.3 -0.3,-0.3l0,0zm0.7,0.4l0,0l0,0z"/>
   <path id="svg_505" d="m88.44445,157.72406c0,0 -0.1,0 -0.2,0c-0.3,0 -0.5,-0.2 -0.6,-0.4c-0.2,-0.2 -0.2,-0.5 -0.2,-0.8s0.2,-0.5 0.4,-0.6c0.2,-0.2 0.5,-0.2 0.8,-0.2s0.5,0.2 0.6,0.4c0.2,0.2 0.2,0.5 0.2,0.8c-0.1,0.5 -0.5,0.8 -1,0.8zm0,-1.3c-0.1,0 -0.1,0 -0.2,0c-0.1,0 -0.1,0.1 -0.1,0.2s0,0.2 0,0.3c0,0.1 0.1,0.1 0.2,0.1c0.2,0 0.3,-0.1 0.4,-0.3c0,-0.1 0,-0.2 0,-0.3c0,0.1 -0.1,0 -0.3,0l0,0z"/>
   <path id="svg_506" d="m88.04445,162.72406c0,0 -0.1,0 -0.2,0c-0.6,-0.1 -0.9,-0.6 -0.8,-1.1c0.1,-0.6 0.6,-0.9 1.1,-0.8c0.6,0.1 0.9,0.6 0.8,1.1c0,0.5 -0.4,0.8 -0.9,0.8zm0,-1.3c-0.2,0 -0.3,0.1 -0.3,0.3c0,0.2 0.1,0.3 0.3,0.4c0.2,0 0.3,-0.1 0.4,-0.3c0,-0.2 -0.2,-0.3 -0.4,-0.4l0,0z"/>
   <path id="svg_507" d="m83.84445,160.62406c-0.1,0 -0.2,0 -0.3,0c-0.3,-0.1 -0.5,-0.3 -0.6,-0.5c-0.1,-0.3 -0.2,-0.5 -0.1,-0.8c0.1,-0.3 0.3,-0.5 0.5,-0.6l0,0c0.5,-0.3 1.1,-0.1 1.4,0.4c0.3,0.5 0.1,1.1 -0.4,1.4c-0.2,0 -0.3,0.1 -0.5,0.1zm-0.1,-1.3c-0.1,0 -0.1,0.1 -0.2,0.2c0,0.1 0,0.2 0,0.3c0,0.1 0.1,0.1 0.2,0.2c0.1,0 0.2,0 0.3,0c0.2,-0.1 0.2,-0.3 0.1,-0.4c-0.1,-0.3 -0.3,-0.4 -0.4,-0.3l0,0z"/>
  </g>
  <g id="svg_508">
   <path id="svg_509" d="m35.34445,68.92406c-0.1,0 -0.2,0 -0.3,-0.2c-0.1,-0.2 -0.1,-0.4 0.1,-0.5c2.5,-1.7 4,-4.5 4,-7.5c0,-5 -4.1,-9.1 -9.2,-9.1c-0.9,0 -1.8,0.1 -2.7,0.4c-0.2,0 -0.4,0 -0.4,-0.2s0,-0.4 0.2,-0.4c0.9,-0.3 1.9,-0.4 2.9,-0.4c5.5,0 9.9,4.4 9.9,9.7c0,3.2 -1.6,6.3 -4.3,8.1c-0.1,0.1 -0.2,0.1 -0.2,0.1z"/>
   <path id="svg_510" d="m27.14445,53.82406c-0.1,0 -0.3,-0.1 -0.3,-0.2c-0.1,-0.2 0,-0.4 0.2,-0.5l4.6,-1.9c0.2,-0.1 0.4,0 0.5,0.2s0,0.4 -0.2,0.5l-4.6,1.9c-0.1,0 -0.1,0 -0.2,0z"/>
   <path id="svg_511" d="m27.44445,55.32406c-0.1,0 -0.3,-0.1 -0.3,-0.2c-0.1,-0.2 0,-0.4 0.2,-0.5l6.3,-2.8c0.2,-0.1 0.4,0 0.5,0.2s0,0.4 -0.2,0.5l-6.3,2.8c-0.1,0 -0.2,0 -0.2,0z"/>
   <path id="svg_512" d="m27.74445,56.72406c-0.1,0 -0.3,-0.1 -0.3,-0.2c-0.1,-0.2 0,-0.4 0.2,-0.5l7.6,-3.3c0.2,-0.1 0.4,0 0.5,0.2s0,0.4 -0.2,0.5l-7.6,3.3c-0.1,0 -0.2,0 -0.2,0z"/>
   <path id="svg_513" d="m28.94445,57.72406c-0.1,0 -0.3,-0.1 -0.3,-0.2c-0.1,-0.2 0,-0.4 0.2,-0.5l7.6,-3.3c0.2,-0.1 0.4,0 0.5,0.2s0,0.4 -0.2,0.5l-7.6,3.3c-0.1,0 -0.1,0 -0.2,0z"/>
   <path id="svg_514" d="m30.24445,58.72406c-0.1,0 -0.3,-0.1 -0.3,-0.2c-0.1,-0.2 0,-0.4 0.2,-0.5l7.4,-3.2c0.2,-0.1 0.4,0 0.5,0.2s0,0.4 -0.2,0.5l-7.4,3.2c-0.1,0 -0.2,0 -0.2,0z"/>
   <path id="svg_515" d="m31.14445,59.92406c-0.1,0 -0.3,-0.1 -0.3,-0.2c-0.1,-0.2 0,-0.4 0.2,-0.5l7.2,-3.1c0.2,-0.1 0.4,0 0.5,0.2s0,0.4 -0.2,0.5l-7.2,3.1c-0.2,-0.1 -0.2,0 -0.2,0z"/>
   <path id="svg_516" d="m31.84445,61.12406c-0.1,0 -0.3,-0.1 -0.3,-0.2c-0.1,-0.2 0,-0.4 0.2,-0.5l7,-3c0.2,-0.1 0.4,0 0.5,0.2s0,0.4 -0.2,0.5l-7,3c-0.1,0 -0.2,0 -0.2,0z"/>
   <path id="svg_517" d="m32.24445,62.52406c-0.1,0 -0.3,-0.1 -0.3,-0.2c-0.1,-0.2 0,-0.4 0.2,-0.5l7,-3c0.2,-0.1 0.4,0 0.5,0.2s0,0.4 -0.2,0.5l-7,3c-0.1,0 -0.2,0 -0.2,0z"/>
   <path id="svg_518" d="m32.44445,63.92406c-0.1,0 -0.3,-0.1 -0.3,-0.2c-0.1,-0.2 0,-0.4 0.2,-0.5l7.1,-3c0.2,-0.1 0.4,0 0.5,0.2s0,0.4 -0.2,0.5l-7.1,3c-0.1,0 -0.2,0 -0.2,0z"/>
   <path id="svg_519" d="m32.44445,65.52406c-0.1,0 -0.3,-0.1 -0.3,-0.2c-0.1,-0.2 0,-0.4 0.2,-0.5l7,-3c0.2,-0.1 0.4,0 0.5,0.2s0,0.4 -0.2,0.5l-7,3c-0.1,0 -0.2,0 -0.2,0z"/>
   <path id="svg_520" d="m32.74445,66.92406c-0.1,0 -0.3,-0.1 -0.3,-0.2c-0.1,-0.2 0,-0.4 0.2,-0.5l6.1,-2.7c0.2,-0.1 0.4,0 0.5,0.2s0,0.4 -0.2,0.5l-6.1,2.7c-0.1,0 -0.1,0 -0.2,0z"/>
   <path id="svg_521" d="m33.84445,67.92406c-0.1,0 -0.3,-0.1 -0.3,-0.2c-0.1,-0.2 0,-0.4 0.2,-0.5l4.2,-1.8c0.2,-0.1 0.4,0 0.5,0.2s0,0.4 -0.2,0.5l-4.2,1.8c-0.1,0 -0.1,0 -0.2,0z"/>
  </g>
  <g id="svg_522">
   <path id="svg_523" d="m99.34445,133.22406c-5.5,0 -9.9,-4.4 -9.9,-9.7c0,-5.4 4.4,-9.7 9.9,-9.7s9.9,4.4 9.9,9.7c0,5.3 -4.4,9.7 -9.9,9.7zm0,-18.8c-5.1,0 -9.2,4.1 -9.2,9.1s4.1,9.1 9.2,9.1s9.2,-4.1 9.2,-9.1s-4.1,-9.1 -9.2,-9.1z"/>
   <path id="svg_524" d="m91.44445,118.72406c-0.1,0 -0.3,-0.1 -0.3,-0.2c-0.1,-0.2 0,-0.4 0.2,-0.5l9.7,-4.2c0.2,-0.1 0.4,0 0.5,0.2s0,0.4 -0.2,0.5l-9.7,4.2c-0.1,0 -0.2,0 -0.2,0z"/>
   <path id="svg_525" d="m94.24445,119.12406c-0.1,0 -0.3,-0.1 -0.3,-0.2c-0.1,-0.2 0,-0.4 0.2,-0.5l8.8,-3.9c0.2,-0.1 0.4,0 0.5,0.2s0,0.4 -0.2,0.5l-8.8,3.9c-0.1,0 -0.1,0 -0.2,0z"/>
   <path id="svg_526" d="m96.74445,119.62406c-0.1,0 -0.3,-0.1 -0.3,-0.2c-0.1,-0.2 0,-0.4 0.2,-0.5l8,-3.5c0.2,-0.1 0.4,0 0.5,0.2s0,0.4 -0.2,0.5l-8,3.5c-0.2,0 -0.2,0 -0.2,0z"/>
   <path id="svg_527" d="m98.44445,120.42406c-0.1,0 -0.3,-0.1 -0.3,-0.2c-0.1,-0.2 0,-0.4 0.2,-0.5l7.6,-3.3c0.2,-0.1 0.4,0 0.5,0.2s0,0.4 -0.2,0.5l-7.6,3.3c-0.2,0 -0.2,0 -0.2,0z"/>
   <path id="svg_528" d="m99.64445,121.42406c-0.1,0 -0.3,-0.1 -0.3,-0.2c-0.1,-0.2 0,-0.4 0.2,-0.5l7.4,-3.2c0.2,-0.1 0.4,0 0.5,0.2s0,0.4 -0.2,0.5l-7.4,3.2c-0.1,0 -0.2,0 -0.2,0z"/>
   <path id="svg_529" d="m100.54445,122.62406c-0.1,0 -0.3,-0.1 -0.3,-0.2c-0.1,-0.2 0,-0.4 0.2,-0.5l7.2,-3.1c0.2,-0.1 0.4,0 0.5,0.2s0,0.4 -0.2,0.5l-7.2,3.1c-0.1,0 -0.2,0 -0.2,0z"/>
   <path id="svg_530" d="m101.24445,123.82406c-0.1,0 -0.3,-0.1 -0.3,-0.2c-0.1,-0.2 0,-0.4 0.2,-0.5l7,-3c0.2,-0.1 0.4,0 0.5,0.2s0,0.4 -0.2,0.5l-7,3c-0.1,0 -0.2,0 -0.2,0z"/>
   <path id="svg_531" d="m101.64445,125.12406c-0.1,0 -0.3,-0.1 -0.3,-0.2c-0.1,-0.2 0,-0.4 0.2,-0.5l7,-3c0.2,-0.1 0.4,0 0.5,0.2s0,0.4 -0.2,0.5l-7,3c-0.1,0 -0.1,0 -0.2,0z"/>
   <path id="svg_532" d="m101.84445,126.62406c-0.1,0 -0.3,-0.1 -0.3,-0.2c-0.1,-0.2 0,-0.4 0.2,-0.5l7.1,-3c0.2,-0.1 0.4,0 0.5,0.2s0,0.4 -0.2,0.5l-7.1,3c-0.1,0 -0.2,0 -0.2,0z"/>
   <path id="svg_533" d="m101.84445,128.22406c-0.1,0 -0.3,-0.1 -0.3,-0.2c-0.1,-0.2 0,-0.4 0.2,-0.5l7,-3c0.2,-0.1 0.4,0 0.5,0.2s0,0.4 -0.2,0.5l-7,3c-0.1,0 -0.2,0 -0.2,0z"/>
   <path id="svg_534" d="m101.34445,129.92406c-0.1,0 -0.3,-0.1 -0.3,-0.2c-0.1,-0.2 0,-0.4 0.2,-0.5l6.9,-3c0.2,-0.1 0.4,0 0.5,0.2s0,0.4 -0.2,0.5l-6.9,3c-0.1,0 -0.1,0 -0.2,0z"/>
   <path id="svg_535" d="m100.14445,132.02406c-0.1,0 -0.3,-0.1 -0.3,-0.2c-0.1,-0.2 0,-0.4 0.2,-0.5l7.3,-3.1c0.2,-0.1 0.4,0 0.5,0.2s0,0.4 -0.2,0.5l-7.3,3.1c-0.1,0 -0.1,0 -0.2,0z"/>
   <path id="svg_536" d="m94.04445,123.62406c0,0 -0.1,0 -0.2,0c-0.3,0 -0.5,-0.2 -0.6,-0.4c-0.2,-0.2 -0.2,-0.5 -0.2,-0.8s0.2,-0.5 0.4,-0.6c0.2,-0.2 0.5,-0.2 0.8,-0.2s0.5,0.2 0.6,0.4c0.2,0.2 0.2,0.5 0.2,0.8s-0.2,0.5 -0.4,0.6c-0.2,0.2 -0.4,0.2 -0.6,0.2zm0,-1.3c-0.1,0 -0.1,0 -0.2,0c-0.1,0 -0.1,0.1 -0.1,0.2s0,0.2 0,0.3s0.1,0.1 0.2,0.1c0.1,0 0.2,0 0.3,0s0.1,-0.1 0.1,-0.2c0,-0.1 0,-0.2 0,-0.3c-0.1,-0.1 -0.1,-0.1 -0.3,-0.1l0,0z"/>
   <path id="svg_537" d="m98.44445,125.42406c0,0 -0.1,0 -0.2,0c-0.3,0 -0.5,-0.2 -0.6,-0.4c-0.2,-0.2 -0.2,-0.5 -0.2,-0.8s0.2,-0.5 0.4,-0.6c0.2,-0.2 0.5,-0.2 0.8,-0.2s0.5,0.2 0.6,0.4c0.2,0.2 0.2,0.5 0.2,0.8s-0.2,0.5 -0.4,0.6c-0.2,0.1 -0.4,0.2 -0.6,0.2zm0,-1.4c-0.1,0 -0.1,0 -0.2,0c-0.1,0 -0.1,0.1 -0.1,0.2c0,0.1 0,0.2 0,0.3s0.1,0.1 0.2,0.1c0.1,0 0.2,0 0.3,0s0.1,-0.1 0.1,-0.2c0,-0.1 0,-0.2 0,-0.3c-0.1,0 -0.2,-0.1 -0.3,-0.1l0,0z"/>
   <path id="svg_538" d="m97.94445,130.32406c0,0 -0.1,0 -0.2,0c-0.3,0 -0.5,-0.2 -0.6,-0.4c-0.2,-0.2 -0.2,-0.5 -0.2,-0.8s0.2,-0.5 0.4,-0.6c0.2,-0.2 0.5,-0.2 0.8,-0.2s0.5,0.2 0.6,0.4c0.2,0.2 0.2,0.5 0.2,0.8l0,0c0,0.3 -0.2,0.5 -0.4,0.6c-0.1,0.2 -0.4,0.2 -0.6,0.2zm0,-1.3c-0.1,0 -0.1,0 -0.2,0c-0.1,0 -0.1,0.1 -0.1,0.2c0,0.1 0,0.2 0,0.3s0.1,0.1 0.2,0.1c0.1,0 0.2,0 0.3,0s0.1,-0.1 0.1,-0.2c0,-0.1 0,-0.2 0,-0.3c0,0 -0.1,-0.1 -0.3,-0.1c0.1,0 0.1,0 0,0zm0.7,0.5l0,0l0,0z"/>
   <path id="svg_539" d="m93.84445,128.22406c-0.1,0 -0.2,0 -0.3,0c-0.3,-0.1 -0.5,-0.3 -0.6,-0.5c-0.1,-0.3 -0.2,-0.5 -0.1,-0.8c0.1,-0.3 0.3,-0.5 0.5,-0.6l0,0c0.5,-0.3 1.1,-0.1 1.4,0.4c0.3,0.5 0.1,1.1 -0.4,1.4c-0.2,0 -0.3,0.1 -0.5,0.1zm-0.2,-1.3c-0.2,0.1 -0.2,0.3 -0.1,0.4c0,0.1 0.1,0.1 0.2,0.2c0.1,0 0.2,0 0.3,0c0.2,-0.1 0.2,-0.3 0.1,-0.4c-0.1,-0.2 -0.3,-0.3 -0.5,-0.2l0,0z"/>
  </g>
  <g id="svg_540">
   <path id="svg_541" d="m134.04445,98.42406c-5.5,0 -9.9,-4.4 -9.9,-9.7c0,-5.4 4.4,-9.7 9.9,-9.7c3.2,0 6.3,1.6 8.1,4.2c0.1,0.2 0.1,0.4 -0.1,0.5c-0.2,0.1 -0.4,0.1 -0.5,-0.1c-1.7,-2.4 -4.5,-3.9 -7.5,-3.9c-5.1,0 -9.2,4.1 -9.2,9.1s4.1,9.1 9.2,9.1c0.2,0 0.3,0.2 0.3,0.3s-0.1,0.2 -0.3,0.2z"/>
   <path id="svg_542" d="m126.04445,83.92406c-0.1,0 -0.3,-0.1 -0.3,-0.2c-0.1,-0.2 0,-0.4 0.2,-0.5l9.7,-4.2c0.2,-0.1 0.4,0 0.5,0.2s0,0.4 -0.2,0.5l-9.7,4.2c-0.1,0 -0.1,0 -0.2,0z"/>
   <path id="svg_543" d="m128.94445,84.22406c-0.1,0 -0.3,-0.1 -0.3,-0.2c-0.1,-0.2 0,-0.4 0.2,-0.5l8.8,-3.9c0.2,-0.1 0.4,0 0.5,0.2s0,0.4 -0.2,0.5l-8.8,3.9c-0.1,0 -0.1,0 -0.2,0z"/>
   <path id="svg_544" d="m131.34445,84.72406c-0.1,0 -0.3,-0.1 -0.3,-0.2c-0.1,-0.2 0,-0.4 0.2,-0.5l8,-3.5c0.2,-0.1 0.4,0 0.5,0.2s0,0.4 -0.2,0.5l-8,3.5c-0.1,0 -0.1,0 -0.2,0z"/>
   <path id="svg_545" d="m133.04445,85.62406c-0.1,0 -0.3,-0.1 -0.3,-0.2c-0.1,-0.2 0,-0.4 0.2,-0.5l7.6,-3.3c0.2,-0.1 0.4,0 0.5,0.2s0,0.4 -0.2,0.5l-7.6,3.3c-0.1,-0.1 -0.1,0 -0.2,0z"/>
   <path id="svg_546" d="m134.24445,86.62406c-0.1,0 -0.3,-0.1 -0.3,-0.2c-0.1,-0.2 0,-0.4 0.2,-0.5l7.4,-3.2c0.2,-0.1 0.4,0 0.5,0.2s0,0.4 -0.2,0.5l-7.4,3.2c-0.1,-0.1 -0.1,0 -0.2,0z"/>
   <path id="svg_547" d="m135.14445,87.72406c-0.1,0 -0.3,-0.1 -0.3,-0.2c-0.1,-0.2 0,-0.4 0.2,-0.5l5.8,-2.5c0.2,-0.1 0.4,0 0.5,0.2s0,0.4 -0.2,0.5l-5.8,2.5c-0.1,0 -0.1,0 -0.2,0z"/>
   <path id="svg_548" d="m135.84445,89.02406c-0.1,0 -0.3,-0.1 -0.3,-0.2c-0.1,-0.2 0,-0.4 0.2,-0.5l4.1,-1.8c0.2,-0.1 0.4,0 0.5,0.2s0,0.4 -0.2,0.5l-4.1,1.7c-0.1,0.1 -0.1,0.1 -0.2,0.1z"/>
   <path id="svg_549" d="m136.34445,90.32406c-0.1,0 -0.3,-0.1 -0.3,-0.2c-0.1,-0.2 0,-0.4 0.2,-0.5l2.8,-1.2c0.2,-0.1 0.4,0 0.5,0.2s0,0.4 -0.2,0.5l-2.8,1.2c-0.1,0 -0.1,0 -0.2,0z"/>
   <path id="svg_550" d="m136.54445,91.82406c-0.1,0 -0.3,-0.1 -0.3,-0.2c-0.1,-0.2 0,-0.4 0.2,-0.5l1.7,-0.7c0.2,-0.1 0.4,0 0.5,0.2s0,0.4 -0.2,0.5l-1.7,0.7c-0.1,-0.1 -0.2,0 -0.2,0z"/>
   <path id="svg_551" d="m136.44445,93.42406c-0.1,0 -0.3,-0.1 -0.3,-0.2c-0.1,-0.2 0,-0.4 0.2,-0.5l0.6,-0.3c0.2,-0.1 0.4,0 0.5,0.2s0,0.4 -0.2,0.5l-0.6,0.3c-0.1,-0.1 -0.1,0 -0.2,0z"/>
   <path id="svg_552" d="m136.04445,94.72406"/>
   <path id="svg_553" d="m142.94445,91.72406"/>
   <path id="svg_554" d="m134.84445,96.82406"/>
   <path id="svg_555" d="m142.14445,93.72406"/>
   <path id="svg_556" d="m128.74445,88.82406c0,0 -0.1,0 -0.2,0c-0.3,0 -0.5,-0.2 -0.6,-0.4c-0.2,-0.2 -0.2,-0.5 -0.2,-0.8s0.2,-0.5 0.4,-0.6c0.2,-0.2 0.5,-0.2 0.8,-0.2c0.6,0.1 0.9,0.6 0.8,1.1c0,0.3 -0.2,0.5 -0.4,0.6c-0.3,0.2 -0.4,0.3 -0.6,0.3zm0,-1.3c-0.1,0 -0.1,0 -0.2,0c-0.1,0 -0.1,0.1 -0.1,0.2c0,0.1 0,0.2 0,0.3s0.1,0.1 0.2,0.1c0.1,0 0.2,0 0.3,0s0.1,-0.1 0.1,-0.2c0,-0.2 -0.1,-0.4 -0.3,-0.4l0,0z"/>
   <path id="svg_557" d="m133.04445,90.52406c0,0 -0.1,0 -0.2,0c-0.3,0 -0.5,-0.2 -0.6,-0.4c-0.2,-0.2 -0.2,-0.5 -0.2,-0.8c0.1,-0.6 0.6,-0.9 1.1,-0.8c0.6,0.1 0.9,0.6 0.8,1.1c0,0.6 -0.4,0.9 -0.9,0.9zm0,-1.3c-0.2,0 -0.3,0.1 -0.3,0.3c0,0.1 0,0.2 0,0.3s0.1,0.1 0.2,0.1c0.2,0 0.3,-0.1 0.4,-0.3c0.1,-0.2 0,-0.3 -0.3,-0.4c0.1,0 0,0 0,0z"/>
   <path id="svg_558" d="m132.64445,95.52406c0,0 -0.1,0 -0.2,0c-0.6,-0.1 -0.9,-0.6 -0.8,-1.1c0,-0.3 0.2,-0.5 0.4,-0.6c0.2,-0.2 0.5,-0.2 0.8,-0.2s0.5,0.2 0.6,0.4c0.2,0.2 0.2,0.5 0.2,0.8s-0.2,0.5 -0.4,0.6c-0.2,0 -0.4,0.1 -0.6,0.1zm0,-1.3c-0.2,0 -0.3,0.1 -0.3,0.3s0.1,0.3 0.3,0.4c0.1,0 0.2,0 0.3,0s0.1,-0.1 0.1,-0.2c0,-0.3 -0.2,-0.5 -0.4,-0.5l0,0z"/>
   <path id="svg_559" d="m128.44445,93.32406c-0.1,0 -0.2,0 -0.3,0c-0.3,-0.1 -0.5,-0.3 -0.6,-0.5c-0.3,-0.5 -0.1,-1.1 0.4,-1.4l0,0c0.3,-0.1 0.5,-0.2 0.8,-0.1s0.5,0.3 0.6,0.5c0.1,0.3 0.2,0.5 0.1,0.8c-0.1,0.3 -0.3,0.5 -0.5,0.6c-0.2,0.1 -0.3,0.1 -0.5,0.1zm-0.1,-1.3c-0.2,0.1 -0.2,0.3 -0.1,0.4c0,0.1 0.1,0.1 0.2,0.2c0.1,0 0.2,0 0.3,0s0.1,-0.1 0.2,-0.2c0,-0.1 0,-0.2 0,-0.3c-0.3,-0.1 -0.5,-0.1 -0.6,-0.1l0,0z"/>
  </g>
  <g id="svg_560">
   <path id="svg_561" d="m77.24445,136.52406c-0.6,0 -1.2,-0.2 -1.6,-0.5c-0.5,-0.3 -0.5,-0.7 -0.4,-0.9l0,0c0,-0.1 0,-0.2 0.1,-0.3c0.3,-0.8 0.5,-1.6 -0.1,-2c-0.3,-0.2 -0.6,-0.3 -0.9,-0.4c-0.8,-0.3 -1.7,-0.5 -1.7,-2.3c0,-1.1 0.3,-1.9 0.8,-2.5c0.8,-0.8 2.2,-1 4.4,-0.7c3.9,0.5 4.5,1.8 4.3,4.2c-0.1,1.2 -1,1.6 -1.7,1.9c-0.9,0.4 -1.7,0.7 -1.6,2.3c0,0.5 -0.2,0.9 -0.6,1.1c-0.4,0.1 -0.7,0.1 -1,0.1zm-1.4,-1.2c0,0 0.1,0.1 0.3,0.3c0.5,0.3 1.2,0.4 1.6,0.2c0.1,0 0.3,-0.2 0.2,-0.5c0,-2.1 1.1,-2.6 2,-3c0.8,-0.3 1.2,-0.6 1.3,-1.3c0.2,-2 -0.1,-3 -3.6,-3.4c-1.9,-0.3 -3.1,-0.1 -3.8,0.6c-0.5,0.4 -0.7,1.1 -0.6,2c0,1.3 0.5,1.4 1.2,1.7c0.3,0.1 0.8,0.2 1.1,0.5c1.1,0.8 0.6,2.2 0.3,2.9c0.1,-0.1 0.1,0 0,0z"/>
   <path id="svg_562" d="m72.94445,130.22406c-0.1,0 -0.2,0 -0.2,-0.1c-0.2,-0.1 -0.2,-0.3 0,-0.5c0,0 0.6,-0.8 1.6,-1.1c0.2,0 0.4,0 0.4,0.2s0,0.4 -0.2,0.4c-0.7,0.2 -1.2,0.8 -1.2,0.9c-0.3,0.1 -0.3,0.2 -0.4,0.2z"/>
   <path id="svg_563" d="m73.04445,131.42406c-0.1,0 -0.2,0 -0.2,-0.1c-0.1,-0.1 -0.2,-0.3 0,-0.5c0,0 1,-1.1 2.3,-1.4c0.2,0 0.4,0.1 0.4,0.3s-0.1,0.4 -0.3,0.4c-1.1,0.2 -1.9,1.1 -1.9,1.1c0,0.2 -0.1,0.2 -0.3,0.2z"/>
   <path id="svg_564" d="m74.14445,132.32406l-0.1,0c-0.2,-0.1 -0.3,-0.3 -0.2,-0.4c0,-0.1 0.4,-1 2,-1.1c0.2,0 0.4,0.1 0.4,0.3s-0.1,0.4 -0.3,0.4c-1.2,0.1 -1.4,0.7 -1.4,0.7c-0.1,0.1 -0.3,0.1 -0.4,0.1z"/>
   <path id="svg_565" d="m77.74445,128.42406c-0.1,0 -0.3,-0.1 -0.3,-0.3s0,-0.4 0.2,-0.4c1.4,-0.5 2.7,-0.3 2.8,-0.3c0.2,0 0.3,0.2 0.3,0.4s-0.2,0.3 -0.4,0.3c0,0 -1.2,-0.2 -2.4,0.2c-0.1,0.1 -0.2,0.1 -0.2,0.1z"/>
   <path id="svg_566" d="m78.24445,129.72406c-0.2,0 -0.3,-0.1 -0.3,-0.3s0,-0.4 0.3,-0.4c2.1,-0.6 3,-0.3 3.3,-0.3c0.2,0 0.3,0.2 0.3,0.4s-0.2,0.3 -0.4,0.3c0,0 0,0 -0.1,0c-0.7,-0.2 -1.7,-0.1 -3.1,0.3l0,0z"/>
   <path id="svg_567" d="m78.24445,130.82406c-0.2,0 -0.3,-0.1 -0.3,-0.3s0.1,-0.4 0.3,-0.4c2.5,-0.6 3.3,-0.3 3.4,-0.2c0.2,0.1 0.3,0.3 0.2,0.5s-0.3,0.3 -0.5,0.2c0,0 -0.7,-0.3 -3.1,0.2c0.1,0 0.1,0 0,0z"/>
   <path id="svg_568" d="m77.34445,134.62406c-0.2,0 -0.3,-0.1 -0.3,-0.3s0.1,-0.3 0.3,-0.4c0.7,0 1.1,-0.3 1.1,-0.3c0.2,-0.1 0.4,0 0.5,0.1c0.1,0.2 0,0.4 -0.1,0.5c-0.2,0.1 -0.6,0.4 -1.5,0.4l0,0z"/>
   <path id="svg_569" d="m77.14445,135.62406c-0.2,0 -0.3,-0.1 -0.3,-0.3s0.1,-0.3 0.3,-0.4c0.7,0 1.1,-0.3 1.1,-0.3c0.2,-0.1 0.4,0 0.5,0.1c0.1,0.2 0,0.4 -0.1,0.5c-0.1,0.1 -0.6,0.4 -1.5,0.4l0,0z"/>
  </g>
  <g id="svg_570">
   <path id="svg_571" d="m91.24445,183.02406c-0.4,0 -0.8,0 -1.3,-0.1c-3.2,-0.4 -4.1,-1.3 -3.9,-3.8c0.1,-1.1 0.8,-1.4 1.5,-1.7c0.8,-0.3 1.4,-0.6 1.4,-2.1c0,-0.5 0.2,-0.8 0.6,-1.1c0.6,-0.3 1.7,-0.1 2.2,0.3c0.4,0.3 0.4,0.6 0.4,0.8l0,0c0,0.1 0,0.2 -0.1,0.3c-0.2,0.7 -0.4,1.4 0.1,1.8c0.3,0.2 0.6,0.3 0.8,0.3c0.7,0.2 1.5,0.5 1.6,2.1c0,1 -0.2,1.8 -0.8,2.3c-0.4,0.7 -1.3,0.9 -2.5,0.9zm-0.9,-8.1c0,0 -0.1,0 -0.2,0c-0.4,0 -0.5,0.3 -0.5,0.5c0,1.9 -1,2.4 -1.8,2.7c-0.7,0.3 -1.1,0.5 -1.1,1.1c-0.2,1.7 0.1,2.6 3.3,3c1.7,0.2 2.8,0 3.4,-0.5c0.4,-0.4 0.6,-0.9 0.6,-1.7c0,-1.1 -0.4,-1.3 -1.1,-1.4c-0.3,-0.1 -0.7,-0.2 -1,-0.5c-1,-0.7 -0.6,-2 -0.4,-2.6c0,-0.1 0,-0.2 0.1,-0.2c-0.2,-0.1 -0.7,-0.4 -1.3,-0.4zm1.2,0.4l0,0l0,0l0,0z"/>
   <path id="svg_572" d="m93.04445,181.52406c-0.1,0 -0.3,-0.1 -0.3,-0.3s0,-0.4 0.2,-0.4c0.6,-0.2 1.1,-0.8 1.1,-0.8c0.1,-0.2 0.3,-0.2 0.5,0c0.2,0.1 0.2,0.3 0,0.5c-0.1,0 -0.6,0.7 -1.5,1c0.1,0 0,0 0,0z"/>
   <path id="svg_573" d="m92.24445,180.62406c-0.2,0 -0.3,-0.1 -0.3,-0.3c0,-0.2 0.1,-0.4 0.3,-0.4c1,-0.2 1.7,-1 1.7,-1c0.1,-0.1 0.3,-0.2 0.5,0c0.1,0.1 0.2,0.3 0,0.5c0,0 -0.8,1 -2,1.2c-0.2,0 -0.2,0 -0.2,0z"/>
   <path id="svg_574" d="m91.64445,179.52406c-0.2,0 -0.3,-0.1 -0.3,-0.3c0,-0.2 0.1,-0.4 0.3,-0.4c1,-0.1 1.3,-0.6 1.3,-0.6c0.1,-0.2 0.3,-0.3 0.5,-0.2c0.2,0.1 0.3,0.3 0.2,0.4c-0.2,0.1 -0.5,0.9 -2,1.1l0,0z"/>
   <path id="svg_575" d="m88.24445,182.42406c-0.4,0 -0.6,0 -0.7,0c-0.2,0 -0.3,-0.2 -0.3,-0.4c0,-0.2 0.2,-0.3 0.4,-0.3c0,0 1.1,0.2 2.2,-0.2c0.2,0 0.4,0 0.4,0.2s0,0.4 -0.2,0.4c-0.6,0.3 -1.3,0.3 -1.8,0.3z"/>
   <path id="svg_576" d="m87.44445,181.42406c-0.5,0 -0.7,-0.1 -0.8,-0.1c-0.2,0 -0.3,-0.2 -0.3,-0.4c0,-0.2 0.2,-0.3 0.4,-0.3c0,0 0,0 0.1,0c0.6,0.2 1.5,0.1 2.6,-0.3c0.2,0 0.4,0 0.4,0.3c0,0.2 0,0.4 -0.3,0.4c-0.9,0.3 -1.6,0.4 -2.1,0.4z"/>
   <path id="svg_577" d="m87.24445,180.32406c-0.5,0 -0.7,-0.1 -0.8,-0.1c-0.2,-0.1 -0.3,-0.3 -0.2,-0.5s0.3,-0.3 0.5,-0.2c0,0 0.7,0.2 2.7,-0.3c0.2,0 0.4,0.1 0.4,0.3s-0.1,0.4 -0.3,0.4c-1.1,0.4 -1.9,0.4 -2.3,0.4z"/>
   <path id="svg_578" d="m89.24445,176.92406c-0.1,0 -0.3,0 -0.3,-0.2c-0.1,-0.2 0,-0.4 0.1,-0.5c0,0 0.5,-0.3 1.2,-0.3c0.2,0 0.3,0.1 0.4,0.3c0,0.2 -0.1,0.3 -0.3,0.4c-0.6,0 -0.9,0.3 -0.9,0.3c-0.1,0 -0.2,0 -0.2,0z"/>
   <path id="svg_579" d="m89.34445,176.02406c-0.1,0 -0.3,0 -0.3,-0.2c-0.1,-0.2 0,-0.4 0.1,-0.5c0,0 0.5,-0.3 1.2,-0.3c0.2,0 0.3,0.1 0.4,0.3c0,0.2 -0.1,0.3 -0.3,0.4c-0.6,0 -0.9,0.3 -0.9,0.3c-0.1,0 -0.1,0 -0.2,0z"/>
  </g>
  <g id="svg_580">
   <path id="svg_581" d="m116.04445,107.12406c-0.1,0 -0.3,0 -0.4,0c-1.1,-0.1 -1.9,-0.5 -2.4,-1.1c-0.6,-0.9 -0.7,-2.3 -0.2,-4.4c1,-3.8 2.3,-4.2 4.7,-3.7c1.2,0.3 1.4,1.1 1.6,1.9c0.3,0.9 0.5,1.7 2.1,1.9c0.5,0 0.9,0.3 1.1,0.8c0.3,0.8 -0.1,1.8 -0.6,2.4c-0.4,0.4 -0.8,0.3 -0.9,0.3l0,0c-0.1,0 -0.2,-0.1 -0.3,-0.1c-0.7,-0.3 -1.5,-0.7 -2,-0.1c-0.3,0.3 -0.4,0.6 -0.5,0.9c-0.4,0.4 -0.8,1.2 -2.2,1.2zm0.3,-8.8c-1.2,0 -1.9,0.7 -2.6,3.4c-0.5,1.9 -0.5,3.1 0,3.9c0.3,0.5 1,0.8 1.9,0.8c1.3,0.1 1.5,-0.3 1.8,-1c0.2,-0.3 0.3,-0.7 0.6,-1.1c0.9,-1 2.3,-0.3 2.8,0c0.1,0 0.2,0.1 0.2,0.1s0.2,0 0.3,-0.3c0.3,-0.4 0.5,-1.1 0.3,-1.6c0,-0.1 -0.1,-0.3 -0.5,-0.3c-2.1,-0.2 -2.5,-1.4 -2.7,-2.4c-0.2,-0.8 -0.4,-1.3 -1.1,-1.4c-0.2,0 -0.6,-0.1 -1,-0.1z" fill="#FFFFFF"/>
   <path id="svg_582" d="m115.44445,107.02406c-0.1,0 -0.2,0 -0.3,-0.1c0,0 -0.7,-0.8 -0.9,-1.7c0,-0.2 0.1,-0.4 0.3,-0.4s0.4,0.1 0.4,0.3c0.1,0.7 0.7,1.3 0.7,1.3c0.1,0.1 0.1,0.3 0,0.5c-0.1,0.1 -0.1,0.1 -0.2,0.1z" fill="#FFFFFF"/>
   <path id="svg_583" d="m116.64445,107.02406c-0.1,0 -0.2,0 -0.3,-0.1c0,0 -0.9,-1.1 -1.1,-2.4c0,-0.2 0.1,-0.3 0.3,-0.4c0.2,0 0.3,0.1 0.4,0.3c0.1,1.1 0.9,2 0.9,2c0.1,0.1 0.1,0.4 0,0.5c0,0 -0.1,0.1 -0.2,0.1z" fill="#FFFFFF"/>
   <path id="svg_584" d="m117.74445,106.12406c0,0 -0.1,0 -0.2,0c-0.1,0 -0.9,-0.5 -0.9,-2.1c0,-0.2 0.2,-0.3 0.3,-0.3l0,0c0.2,0 0.3,0.2 0.3,0.3c0,1.2 0.5,1.5 0.6,1.5c0.2,0.1 0.2,0.3 0.1,0.5c0,0 -0.1,0.1 -0.2,0.1z" fill="#FFFFFF"/>
   <path id="svg_585" d="m114.24445,102.02406c-0.2,0 -0.3,-0.1 -0.3,-0.3c-0.3,-1.4 0.1,-2.7 0.1,-2.8c0,-0.2 0.3,-0.3 0.4,-0.3c0.2,0 0.3,0.3 0.3,0.4c0,0 -0.3,1.2 -0.1,2.4c0,0.3 -0.1,0.5 -0.4,0.6c0.1,0 0.1,0 0,0z" fill="#FFFFFF"/>
   <path id="svg_586" d="m115.54445,101.72406c-0.2,0 -0.3,-0.1 -0.3,-0.3c-0.3,-2.1 0,-3 0.2,-3.3c0,-0.2 0.3,-0.3 0.4,-0.3c0.2,0 0.3,0.2 0.3,0.4c0,0 0,0 0,0.1c-0.3,0.7 -0.3,1.7 -0.1,3c-0.1,0.1 -0.3,0.4 -0.5,0.4c0.1,0 0.1,0 0,0z" fill="#FFFFFF"/>
   <path id="svg_587" d="m116.74445,101.72406c-0.2,0 -0.3,-0.1 -0.3,-0.3c-0.2,-2.6 0.2,-3.3 0.3,-3.4c0.1,-0.2 0.3,-0.2 0.5,-0.1c0.2,0.1 0.2,0.3 0.1,0.5c0,0 -0.3,0.7 -0.1,3c-0.1,0.2 -0.3,0.3 -0.5,0.3l0,0z" fill="#FFFFFF"/>
   <path id="svg_588" d="m120.44445,103.22406l0,0c-0.2,0 -0.3,-0.2 -0.3,-0.3c0,-0.7 -0.1,-1.1 -0.1,-1.1c-0.1,-0.2 0,-0.4 0.2,-0.5s0.4,0 0.5,0.2c0,0 0.2,0.6 0.2,1.4c-0.2,0.1 -0.4,0.3 -0.5,0.3z" fill="#FFFFFF"/>
   <path id="svg_589" d="m121.34445,103.52406l0,0c-0.2,0 -0.3,-0.2 -0.3,-0.3c0,-0.7 -0.1,-1.1 -0.1,-1.1c-0.1,-0.2 0,-0.4 0.2,-0.5s0.4,0 0.5,0.2c0,0 0.2,0.6 0.2,1.4c-0.1,0.2 -0.3,0.3 -0.5,0.3z" fill="#FFFFFF"/>
  </g>
  <g id="svg_590">
   <path id="svg_591" d="m133.64445,57.62406c-0.8,0 -1.3,-0.5 -1.7,-0.9c-0.7,-0.6 -1.3,-1.2 -2.8,-0.5c-0.5,0.2 -0.9,0.2 -1.3,-0.1c-0.6,-0.5 -0.8,-1.7 -0.7,-2.3s0.5,-0.7 0.6,-0.7s0.2,0 0.3,0c0.8,-0.1 1.7,-0.2 1.8,-1c0.1,-0.3 0,-0.7 0,-1c-0.1,-0.8 -0.2,-1.7 1.4,-2.5c1,-0.5 1.9,-0.6 2.6,-0.3c1,0.4 1.8,1.7 2.5,3.7c1.1,3.8 0.2,4.8 -2.1,5.6c-0.2,0 -0.4,0 -0.6,0zm-3.3,-2.4c0.9,0 1.5,0.6 2,1c0.6,0.6 1,0.9 1.7,0.6c1.9,-0.6 2.7,-1.3 1.6,-4.7c-0.6,-1.8 -1.2,-2.9 -2,-3.2c-0.6,-0.3 -1.2,-0.2 -2.1,0.3c-1.2,0.6 -1.1,1.1 -1,1.8c0,0.4 0.1,0.8 0,1.2c-0.3,1.4 -1.8,1.5 -2.4,1.5c-0.1,0 -0.2,0 -0.3,0c0,0 -0.1,0.1 -0.1,0.4c0,0.5 0.1,1.2 0.5,1.5c0.1,0.1 0.3,0.1 0.6,0c0.6,-0.3 1.1,-0.4 1.5,-0.4zm-2.5,-1.8l0,0l0,0z"/>
   <path id="svg_592" d="m133.14445,49.92406c-0.1,0 -0.2,0 -0.3,-0.1c-0.5,-0.6 -1.3,-0.8 -1.3,-0.8c-0.2,0 -0.3,-0.2 -0.3,-0.4s0.2,-0.3 0.4,-0.3c0,0 1,0.3 1.7,1c0.1,0.1 0.1,0.4 0,0.5c0,0.1 -0.1,0.1 -0.2,0.1z"/>
   <path id="svg_593" d="m132.54445,51.22406c-0.1,0 -0.2,0 -0.3,-0.1c-0.7,-0.9 -1.8,-1.3 -1.8,-1.3c-0.2,0 -0.3,-0.3 -0.2,-0.4c0,-0.2 0.3,-0.3 0.4,-0.2c0,0 1.4,0.4 2.2,1.5c0.1,0.2 0.1,0.4 -0.1,0.5c0,-0.1 -0.1,0 -0.2,0z"/>
   <path id="svg_594" d="m131.74445,52.32406c-0.1,0 -0.2,0 -0.3,-0.2c-0.6,-1 -1.2,-1 -1.3,-1l0,0c-0.2,0 -0.3,-0.1 -0.3,-0.3s0.1,-0.3 0.3,-0.3c0.1,0 1.1,0 1.9,1.4c0.1,0.2 0,0.4 -0.1,0.5c-0.1,-0.1 -0.1,-0.1 -0.2,-0.1z"/>
   <path id="svg_595" d="m136.54445,55.02406c-0.2,0 -0.3,-0.1 -0.3,-0.3c0,0 -0.3,-1.2 -1.2,-2.1c-0.1,-0.1 -0.1,-0.3 0,-0.5c0.1,-0.1 0.3,-0.1 0.5,0c1,1.1 1.4,2.3 1.4,2.4c0,0.2 -0.1,0.4 -0.4,0.5l0,0z"/>
   <path id="svg_596" d="m135.84445,56.52406c-0.1,0 -0.3,-0.1 -0.3,-0.3c0,0 0,0 0,-0.1c-0.1,-0.7 -0.6,-1.6 -1.4,-2.6c-0.1,-0.1 -0.1,-0.4 0,-0.5s0.4,-0.1 0.5,0c1.4,1.7 1.5,2.6 1.6,2.9c-0.1,0.4 -0.2,0.6 -0.4,0.6l0,0z"/>
   <path id="svg_597" d="m134.74445,57.12406l0,0c-0.2,0 -0.3,-0.2 -0.3,-0.3c0,0 -0.1,-0.8 -1.4,-2.6c-0.1,-0.2 -0.1,-0.4 0.1,-0.5c0.2,-0.1 0.4,-0.1 0.5,0.1c1.5,2.1 1.6,2.9 1.6,3c-0.1,0.2 -0.2,0.3 -0.5,0.3z"/>
   <path id="svg_598" d="m130.14445,55.92406c-0.1,0 -0.1,0 -0.2,0c0,0 -0.5,-0.3 -0.9,-1.1c-0.1,-0.2 0,-0.4 0.1,-0.5c0.2,-0.1 0.4,0 0.5,0.1c0.3,0.6 0.7,0.8 0.7,0.8c0.2,0.1 0.2,0.3 0.1,0.5c-0.1,0.2 -0.1,0.2 -0.3,0.2z"/>
   <path id="svg_599" d="m129.24445,56.22406c-0.1,0 -0.1,0 -0.2,0c0,0 -0.5,-0.3 -0.9,-1.1c-0.1,-0.2 0,-0.4 0.1,-0.5c0.2,-0.1 0.4,0 0.5,0.1c0.3,0.6 0.7,0.8 0.7,0.8c0.2,0.1 0.2,0.3 0.1,0.5c-0.1,0.1 -0.2,0.2 -0.3,0.2z"/>
  </g>
  <g id="svg_600">
   <path id="svg_601" d="m49.64445,59.22406c-0.3,0 -0.5,-0.1 -0.6,-0.3l0,0c0,0 -0.1,-0.2 -0.2,-0.3c-0.4,-0.7 -1,-1.4 -1.7,-1.1c-0.3,0.1 -0.6,0.3 -0.9,0.5c-0.6,0.5 -1.4,1 -2.9,0c-0.9,-0.6 -1.4,-1.4 -1.5,-2.2c-0.1,-1.1 0.6,-2.4 2,-3.9c2.8,-2.8 4.1,-2.5 5.9,-0.9c0.9,0.8 0.7,1.7 0.5,2.5c-0.3,0.9 -0.4,1.7 0.9,2.7c0.4,0.3 0.6,0.7 0.6,1.2c-0.1,0.8 -1,1.5 -1.7,1.7c-0.1,0.1 -0.2,0.1 -0.4,0.1zm0,-0.7c0,0 0.2,0 0.4,-0.1c0.5,-0.2 1,-0.7 1.1,-1.2c0,-0.1 0,-0.3 -0.3,-0.5c-1.7,-1.2 -1.4,-2.5 -1.2,-3.4c0.2,-0.8 0.3,-1.3 -0.3,-1.8c-1.5,-1.4 -2.5,-1.7 -4.9,0.9c-1.3,1.4 -1.9,2.5 -1.8,3.4c0,0.6 0.5,1.1 1.2,1.7c1.1,0.8 1.4,0.5 2.1,0c0.3,-0.2 0.6,-0.5 1.1,-0.6c1.3,-0.4 2.2,0.8 2.5,1.4c0,0.1 0.1,0.2 0.1,0.2z"/>
   <path id="svg_602" d="m43.44445,58.02406c-0.2,0 -0.3,-0.1 -0.3,-0.3c0,0 -0.3,-1 0,-1.9c0.1,-0.2 0.3,-0.3 0.4,-0.2c0.2,0.1 0.3,0.3 0.2,0.4c-0.3,0.7 0,1.5 0,1.5c0,0.3 -0.1,0.5 -0.3,0.5c0.1,0 0,0 0,0z"/>
   <path id="svg_603" d="m44.54445,58.62406c-0.2,0 -0.3,-0.1 -0.3,-0.3c0,0 -0.3,-1.4 0.3,-2.6c0.1,-0.2 0.3,-0.3 0.5,-0.2s0.3,0.3 0.2,0.5c-0.5,1 -0.2,2.2 -0.2,2.2c-0.1,0.2 -0.2,0.4 -0.5,0.4c0.1,0 0,0 0,0z"/>
   <path id="svg_604" d="m45.94445,58.32406c-0.1,0 -0.2,0 -0.3,-0.2c0,-0.1 -0.5,-0.9 0.3,-2.3c0.1,-0.2 0.3,-0.2 0.5,-0.1c0.2,0.1 0.2,0.3 0.1,0.5c-0.6,1 -0.3,1.6 -0.3,1.6c0.1,0.2 0,0.4 -0.1,0.5c-0.1,0 -0.1,0 -0.2,0z"/>
   <path id="svg_605" d="m44.94445,53.12406c0,0 -0.1,0 0,0c-0.3,0 -0.4,-0.3 -0.3,-0.4c0.4,-1.4 1.4,-2.3 1.4,-2.4c0.1,-0.1 0.3,-0.1 0.5,0c0.1,0.1 0.1,0.3 0,0.5c0,0 -0.9,0.9 -1.3,2.1c0,0.1 -0.2,0.2 -0.3,0.2z"/>
   <path id="svg_606" d="m46.24445,53.42406l0,0c-0.3,-0.1 -0.4,-0.3 -0.3,-0.5c0.8,-2 1.5,-2.6 1.8,-2.8c0.1,-0.1 0.4,-0.1 0.5,0s0.1,0.3 0,0.5c0,0 0,0 -0.1,0.1c-0.6,0.5 -1.1,1.3 -1.6,2.5c0,0.2 -0.2,0.2 -0.3,0.2z"/>
   <path id="svg_607" d="m47.14445,54.12406l0,0c-0.3,-0.1 -0.4,-0.3 -0.3,-0.5c1.1,-2.4 1.8,-2.8 1.9,-2.9c0.2,-0.1 0.4,0 0.5,0.1c0.1,0.2 0,0.4 -0.1,0.5c0,0 -0.6,0.5 -1.6,2.5c-0.1,0.2 -0.2,0.3 -0.4,0.3z"/>
   <path id="svg_608" d="m49.64445,57.22406c0,0 -0.1,0 -0.2,0c-0.2,-0.1 -0.2,-0.3 -0.1,-0.5c0.4,-0.6 0.4,-1 0.4,-1c0,-0.2 0.2,-0.3 0.4,-0.3c0.2,0 0.3,0.2 0.3,0.4c0,0 -0.1,0.6 -0.5,1.3c0,0 -0.2,0.1 -0.3,0.1z"/>
   <path id="svg_609" d="m50.34445,57.92406c0,0 -0.1,0 -0.2,0c-0.2,-0.1 -0.2,-0.3 -0.1,-0.5c0.4,-0.6 0.4,-1 0.4,-1c0,-0.2 0.2,-0.3 0.4,-0.3c0.2,0 0.3,0.2 0.3,0.4c0,0 -0.1,0.6 -0.5,1.3c0,0 -0.2,0.1 -0.3,0.1z"/>
  </g>
  <path id="svg_610" d="m111.94445,143.32406c-0.1,0 -0.2,0 -0.2,-0.1c-0.2,-0.1 -0.2,-0.3 0,-0.5c0.5,-0.6 0.8,-1.7 1.1,-2.9c0.4,-1.4 0.8,-3 1.7,-4.7c1.2,-2.3 6.1,-6.1 6.3,-6.2c0.2,-0.1 0.4,-0.1 0.5,0.1c0.1,0.2 0.1,0.4 -0.1,0.5c0,0 -5,3.8 -6.1,6c-0.8,1.6 -1.3,3.2 -1.7,4.6s-0.7,2.5 -1.2,3.1c-0.1,0 -0.1,0.1 -0.3,0.1z"/>
  <path id="svg_611" d="m112.84445,145.42406c-0.1,0 -0.1,0 -0.2,0c-0.2,-0.1 -0.2,-0.3 -0.1,-0.5c0.7,-1 1.3,-2.9 1.9,-5c0.3,-0.9 0.6,-1.9 0.9,-2.8c1.2,-3.5 4.3,-5.7 4.4,-5.8c0.2,-0.1 0.4,-0.1 0.5,0.1c0.1,0.2 0.1,0.4 -0.1,0.5c0,0 -3.1,2.2 -4.2,5.4c-0.3,0.9 -0.6,1.9 -0.9,2.8c-0.7,2.2 -1.2,4.1 -2,5.2c0,0.1 -0.1,0.1 -0.2,0.1z"/>
  <path id="svg_612" d="m113.84445,147.52406c0,0 -0.1,0 -0.2,0c-0.2,-0.1 -0.2,-0.3 -0.1,-0.5c0.8,-1.3 1.6,-3.5 2.3,-6.6c1.1,-4.8 2.9,-6 3,-6.1c0.2,-0.1 0.4,-0.1 0.5,0.1c0.1,0.2 0.1,0.4 -0.1,0.5c0,0 -1.6,1.2 -2.7,5.6c-0.8,3.2 -1.6,5.5 -2.4,6.8c0,0.1 -0.1,0.2 -0.3,0.2z"/>
  <path id="svg_613" d="m71.14445,155.12406c-0.2,0 -0.3,-0.1 -0.3,-0.3c-0.3,-2.8 -1.5,-4 -3.2,-5.8c-0.2,-0.2 -0.4,-0.4 -0.6,-0.6c-2.1,-2.2 -3.3,-4.9 -3.3,-5c-0.1,-0.2 0,-0.4 0.2,-0.5s0.4,0 0.5,0.2c0,0 1.2,2.8 3.2,4.8c0.2,0.2 0.4,0.4 0.6,0.6c1.7,1.8 3.1,3.2 3.4,6.2c-0.2,0.2 -0.3,0.4 -0.5,0.4l0,0z"/>
  <path id="svg_614" d="m69.74445,155.22406c-0.2,0 -0.3,-0.1 -0.3,-0.3c-0.3,-2 -0.6,-2.5 -2,-4.2c-1.8,-2 -3.2,-4.1 -3.2,-4.1c-0.1,-0.2 0,-0.4 0.1,-0.5c0.2,-0.1 0.4,0 0.5,0.1c0,0 1.3,2 3.1,4c1.5,1.7 1.9,2.4 2.2,4.5c-0.1,0.3 -0.2,0.5 -0.4,0.5l0,0z"/>
  <path id="svg_615" d="m68.24445,155.12406c-0.2,0 -0.3,-0.1 -0.3,-0.3c-0.3,-1.9 -1.8,-3.8 -2.6,-4.8c-0.5,-0.6 -0.6,-0.8 -0.6,-1s0.2,-0.3 0.3,-0.3c0.2,0 0.3,0.1 0.3,0.3c0,0.1 0.3,0.4 0.5,0.6c0.8,1.1 2.4,3.1 2.8,5.1c0,0.2 -0.2,0.4 -0.4,0.4l0,0zm-2.9,-6.1l0,0l0,0z"/>
  <path id="svg_616" d="m121.44445,114.62406c-0.2,0 -0.3,-0.2 -0.3,-0.3c0,-0.2 0.2,-0.3 0.3,-0.3c0,0 3.4,0 5.8,-2.2c2.4,-2.2 3.9,-7.8 3.9,-7.8c0,-0.2 0.3,-0.3 0.4,-0.3c0.2,0 0.3,0.3 0.3,0.4c0,0.3 -1.6,5.8 -4.1,8.2c-2.6,2.2 -6.1,2.3 -6.3,2.3z" fill="#FFFFFF"/>
  <path id="svg_617" d="m121.94445,116.32406c-0.2,0 -0.3,-0.2 -0.3,-0.3c0,-0.2 0.2,-0.3 0.3,-0.3c0,0 3.4,0 5.8,-2.2c0.8,-0.8 1.7,-2.1 2.5,-3.9c0.1,-0.2 0.3,-0.3 0.5,-0.2s0.3,0.3 0.2,0.5c-0.8,1.9 -1.7,3.3 -2.6,4.2c-2.7,2.1 -6.2,2.2 -6.4,2.2z" fill="#FFFFFF"/>
  <path id="svg_618" d="m122.44445,117.92406c-0.2,0 -0.3,-0.2 -0.3,-0.3c0,-0.2 0.2,-0.3 0.3,-0.3c0,0 3.4,0 5.8,-2.2c0.5,-0.4 0.9,-1 1.4,-1.8c0.1,-0.2 0.3,-0.2 0.5,-0.1c0.2,0.1 0.2,0.3 0.1,0.5c-0.5,0.8 -1,1.4 -1.5,1.9c-2.6,2.3 -6.2,2.3 -6.3,2.3z" fill="#FFFFFF"/>
  <path id="svg_619" d="m122.94445,119.62406c-0.2,0 -0.3,-0.2 -0.3,-0.3c0,-0.2 0.2,-0.3 0.3,-0.3c0,0 3.3,0 5.6,-2l0.1,-0.1c0.1,-0.1 0.3,-0.1 0.5,0c0.1,0.1 0.1,0.3 0,0.5c0,0 -0.1,0 -0.1,0.1l0,0c-2.6,2.1 -6,2.1 -6.1,2.1z" fill="#FFFFFF"/>
  <path id="svg_620" d="m123.24445,121.42406c-0.2,0 -0.3,-0.2 -0.3,-0.3c0,-0.2 0.2,-0.3 0.3,-0.3c0,0 2.2,0 4.2,-1.1c0.2,-0.1 0.4,0 0.5,0.1c0.1,0.2 0,0.4 -0.1,0.5c-2.3,1.1 -4.5,1.1 -4.6,1.1z" fill="#FFFFFF"/>
  <path id="svg_621" d="m123.74445,123.12406c-0.2,0 -0.3,-0.2 -0.3,-0.3c0,-0.2 0.2,-0.3 0.3,-0.3c0,0 1.1,0 2.5,-0.4c0.2,0 0.4,0 0.4,0.3s0,0.4 -0.3,0.4c-1.4,0.3 -2.6,0.3 -2.6,0.3z" fill="#FFFFFF"/>
  <path id="svg_622" d="m105.14445,169.42406c-0.1,0 -0.1,0 -0.2,-0.1c-0.2,-0.1 -0.2,-0.3 -0.1,-0.5c0.4,-0.6 1.6,-2.3 1.7,-3.3c0.2,-1.4 0.5,-2.8 2.2,-5.5c1.7,-2.8 2.8,-3.6 2.8,-3.6c0.2,-0.1 0.4,-0.1 0.5,0.1s0.1,0.4 -0.1,0.5c0,0 -1,0.7 -2.6,3.4c-1.6,2.6 -1.9,4 -2.1,5.2c-0.2,1.3 -1.7,3.5 -1.8,3.6c-0.1,0.1 -0.2,0.2 -0.3,0.2z"/>
  <path id="svg_623" d="m89.94445,192.52406c-0.4,0 -1,0 -1.9,-0.2c-1.1,-0.2 -2.3,-1 -3.1,-1.7c-0.1,-0.1 -0.2,-0.3 0,-0.5c0.1,-0.1 0.3,-0.2 0.5,0c0.7,0.6 1.8,1.4 2.8,1.5c1.7,0.3 2.4,0.1 2.4,0.1c0.2,0 0.4,0 0.4,0.3c0,0.2 0,0.4 -0.2,0.4c-0.2,0.1 -0.4,0.1 -0.9,0.1z"/>
  <path id="svg_624" d="m89.84445,193.72406c-0.4,0 -1,0 -1.9,-0.2c-0.5,-0.1 -1,-0.3 -1.5,-0.6c-0.2,-0.1 -0.2,-0.3 -0.1,-0.5c0.1,-0.2 0.3,-0.2 0.5,-0.1c0.5,0.3 0.9,0.4 1.3,0.5c1.7,0.3 2.4,0.1 2.4,0.1c0.2,0 0.4,0 0.4,0.3c0,0.2 0,0.4 -0.2,0.4c-0.2,0 -0.4,0.1 -0.9,0.1z"/>
  <path id="svg_625" d="m89.54445,194.82406c-0.4,0 -1,0 -1.7,-0.1l0,0l0,0l0,0l0,0l0,0l0,0c-0.1,0 -0.2,-0.1 -0.2,-0.1c0,-0.1 -0.1,-0.2 -0.1,-0.3c0,-0.2 0.2,-0.3 0.4,-0.3l0,0l0,0l0,0c1.7,0.2 2.2,0.1 2.2,0.1c0.2,0 0.4,0 0.4,0.3c0,0.2 0,0.4 -0.2,0.4c0.1,-0.1 -0.2,0 -0.8,0z"/>
  <path id="svg_626" d="m83.34445,31.52406" stroke-miterlimit="10" stroke-linejoin="round" stroke-linecap="round" stroke-width="1.6px" stroke="#000000" fill="none"/>
  <path id="svg_627" d="m76.04445,34.82406c-0.1,0 -0.3,-0.1 -0.3,-0.2c-0.1,-0.2 0,-0.4 0.2,-0.5l7.4,-3.2c0.2,-0.1 0.4,0 0.5,0.2s0,0.4 -0.2,0.5l-7.4,3.2c-0.1,0 -0.2,0 -0.2,0z"/>
  <path id="svg_628" d="m79.24445,34.82406c-0.1,0 -0.3,-0.1 -0.3,-0.2c-0.1,-0.2 0,-0.4 0.2,-0.5l7.4,-3.2c0.2,-0.1 0.4,0 0.5,0.2s0,0.4 -0.2,0.5l-7.4,3.2c-0.1,0 -0.2,0 -0.2,0z"/>
  <path id="svg_629" d="m81.94445,35.02406c-0.1,0 -0.3,-0.1 -0.3,-0.2c-0.1,-0.2 0,-0.4 0.2,-0.5l7.4,-3.2c0.2,-0.1 0.4,0 0.5,0.2s0,0.4 -0.2,0.5l-7.4,3.2c-0.1,0 -0.1,0 -0.2,0z"/>
  <path id="svg_630" d="m84.14445,35.52406c-0.1,0 -0.3,-0.1 -0.3,-0.2c-0.1,-0.2 0,-0.4 0.2,-0.5l7.4,-3.2c0.2,-0.1 0.4,0 0.5,0.2s0,0.4 -0.2,0.5l-7.4,3.2c-0.1,0 -0.2,0 -0.2,0z"/>
  <path id="svg_631" d="m85.84445,36.12406c-0.1,0 -0.3,-0.1 -0.3,-0.2c-0.1,-0.2 0,-0.4 0.2,-0.5l7.4,-3.2c0.2,-0.1 0.4,0 0.5,0.2s0,0.4 -0.2,0.5l-7.4,3.2c-0.1,0 -0.1,0 -0.2,0z"/>
  <path id="svg_632" d="m63.14445,69.82406c0,0 -0.1,0 -0.2,0l-3.2,-1.8c-0.2,-0.1 -0.2,-0.3 -0.1,-0.5s0.3,-0.2 0.5,-0.1l3.2,1.8c0.2,0.1 0.2,0.3 0.1,0.5c0,0 -0.2,0.1 -0.3,0.1z"/>
  <path id="svg_633" d="m59.94445,71.62406c-0.1,0 -0.3,0 -0.3,-0.2c-0.1,-0.2 0,-0.4 0.1,-0.5l2.1,-1.2l-3.3,0c-0.2,0 -0.3,-0.2 -0.3,-0.3c0,-0.2 0.2,-0.3 0.3,-0.3l4.6,0c0.2,0 0.3,0.1 0.3,0.3s0,0.3 -0.2,0.4l-3.3,1.8c0.1,0 0.1,0 0,0z"/>
  <path id="svg_634" d="m115.94445,69.82406c-0.1,0 -0.3,0 -0.3,-0.2c-0.1,-0.2 0,-0.4 0.1,-0.5l3.2,-1.8c0.2,-0.1 0.4,0 0.5,0.1c0.1,0.2 0,0.4 -0.1,0.5l-3.2,1.8c-0.1,0.1 -0.2,0.1 -0.2,0.1z"/>
  <path id="svg_635" d="m119.04445,71.62406c0,0 -0.1,0 -0.2,0l-3.2,-1.8c-0.1,-0.1 -0.2,-0.3 -0.2,-0.4c0,-0.2 0.2,-0.3 0.3,-0.3l4.6,0c0.2,0 0.3,0.2 0.3,0.3c0,0.2 -0.2,0.3 -0.3,0.3l-3.3,0l2.1,1.2c0.2,0.1 0.2,0.3 0.1,0.5c0.1,0.2 0,0.2 -0.2,0.2z"/>
  <path id="svg_636" d="m160.94445,115.62406c1.1,-2 2.5,-6.7 -0.3,-15.5c-1.9,-6.2 -3.3,-13.2 -3.3,-13.2c-16.3,13.3 -53.3,5.1 -86.6,8.7c-20.8,2.2 -34.2,9 -42.9,15.2c0,0 -6.9,5.3 0.1,15.1c6.6,9.1 4,19.5 4,19.5l2.8,-2.2c9.3,-7.1 16.6,-11 35.1,-13.9c24,-3.8 37.2,3.3 66.7,-1.3c13.9,-2.2 20.5,-7.3 23.6,-11.1l0,0c-0.1,-0.1 0.3,-0.4 0.8,-1.3c-0.1,0.1 -0.1,0.1 0,0z"/>
  <path id="svg_649" d="m156.24445,88.42406c-0.1,0 -0.2,0 -0.3,-0.1s-0.1,-0.3 0,-0.5c0,0 1,-0.9 0.6,-1.8c-0.4,-1 -3,-2.5 -15,-1.7c-0.2,0 -0.3,-0.1 -0.4,-0.3c0,-0.2 0.1,-0.3 0.3,-0.4c9.5,-0.7 14.8,0 15.7,2.1c0.6,1.3 -0.8,2.5 -0.8,2.6c0.1,0 0,0.1 -0.1,0.1z"/>
  <path id="svg_650" d="m29.84445,149.82406c-0.1,0 -0.2,0 -0.2,-0.1c-0.1,-0.1 -0.2,-0.3 0,-0.5c7.4,-8.6 18.9,-13.3 19,-13.4c0.2,-0.1 0.4,0 0.5,0.2s0,0.4 -0.2,0.5c-0.1,0 -11.5,4.7 -18.7,13.2c-0.2,0.1 -0.3,0.1 -0.4,0.1z"/>
  <path id="svg_651" d="m29.84445,152.02406c-0.1,0 -0.2,0 -0.2,-0.1c-0.1,-0.1 -0.2,-0.3 0,-0.5c7.4,-8.6 19.3,-13 19.5,-13.1s0.4,0 0.4,0.2s0,0.4 -0.2,0.4c-0.1,0 -11.9,4.4 -19.2,12.9c-0.1,0.1 -0.2,0.2 -0.3,0.2z"/>
  <path id="svg_652" d="m30.74445,153.42406c-0.1,0 -0.2,0 -0.3,-0.1c-0.1,-0.1 -0.1,-0.3 0,-0.5c7.9,-8.2 19.1,-12.4 19.2,-12.4c0.2,-0.1 0.4,0 0.4,0.2c0.1,0.2 0,0.4 -0.2,0.4c-0.1,0 -11.2,4.1 -18.9,12.2c-0.1,0.2 -0.1,0.2 -0.2,0.2z"/>
  <path id="svg_653" d="m157.04445,87.02406l0,0c-0.2,0 -7.9,-1.6 -16.4,-0.8c-0.2,0 -0.3,-0.1 -0.4,-0.3c0,-0.2 0.1,-0.3 0.3,-0.4c8.5,-0.8 16.4,0.8 16.5,0.9c0.2,0 0.3,0.2 0.3,0.4c0,0.1 -0.1,0.2 -0.3,0.2z"/>
  <path id="svg_654" d="m155.44445,88.92406l0,0c-0.2,0 -7.5,-1.6 -15.7,-0.8c-0.2,0 -0.3,-0.1 -0.4,-0.3c0,-0.2 0.1,-0.3 0.3,-0.4c8.3,-0.8 15.8,0.8 15.9,0.8c0.2,0 0.3,0.2 0.3,0.4c-0.1,0.1 -0.2,0.3 -0.4,0.3z"/>
  <path id="svg_655" d="m154.74445,90.82406l0,0c-0.2,0 -7.6,-1.5 -16.1,-0.6c-0.2,0 -0.3,-0.1 -0.4,-0.3c0,-0.2 0.1,-0.3 0.3,-0.4c8.6,-0.9 16.1,0.6 16.2,0.6c0.2,0 0.3,0.2 0.3,0.4c0,0.1 -0.1,0.3 -0.3,0.3z"/>
  <path id="svg_656" d="m152.94445,92.82406l0,0c-0.2,0 -7.2,-1.4 -15.4,-0.6c-0.2,0 -0.3,-0.1 -0.4,-0.3c0,-0.2 0.1,-0.3 0.3,-0.4c8.3,-0.8 15.4,0.6 15.5,0.7c0.2,0 0.3,0.2 0.3,0.4c0,0.1 -0.1,0.2 -0.3,0.2z"/>
  <path id="svg_657" d="m32.54445,154.32406c-0.1,0 -0.2,0 -0.3,-0.1c-0.1,-0.1 -0.1,-0.3 0,-0.5c8.5,-7.9 17.6,-10.8 17.7,-10.9c0.2,0 0.4,0 0.4,0.2s0,0.4 -0.2,0.4c-0.1,0 -9,3 -17.4,10.7c0,0.1 -0.1,0.2 -0.2,0.2z"/>
  <path id="svg_658" d="m35.04445,154.92406c-0.1,0 -0.2,0 -0.3,-0.1c-0.1,-0.1 -0.1,-0.4 0,-0.5c8,-6.7 15.8,-9.2 15.9,-9.3c0.2,0 0.4,0 0.4,0.2s0,0.4 -0.2,0.4c-0.1,0 -7.8,2.5 -15.7,9.1c0,0.1 -0.1,0.2 -0.1,0.2z"/>
  <path id="svg_659" d="m38.34445,154.82406c-0.1,0 -0.2,0 -0.3,-0.1c-0.1,-0.2 -0.1,-0.4 0.1,-0.5c6.8,-4.9 12.7,-6.9 12.8,-6.9c0.2,0 0.4,0 0.4,0.2s0,0.4 -0.2,0.4c0,0 -5.9,1.9 -12.6,6.8c-0.1,0.1 -0.2,0.1 -0.2,0.1z"/>
  <path id="svg_660" d="m42.94445,154.32406c-0.1,0 -0.2,0 -0.3,-0.2c-0.1,-0.2 0,-0.4 0.1,-0.5c4.8,-2.9 8.5,-4.1 8.6,-4.1c0.2,0 0.4,0 0.4,0.2s0,0.4 -0.2,0.4c0,0 -3.7,1.2 -8.4,4c-0.1,0.2 -0.1,0.2 -0.2,0.2z"/>
  <text x="-356.76821" y="224.02607" id="svg_662" fill="#ffffff" stroke-width="0" font-size="24" font-family="'Harlow Solid Italic'" text-anchor="start" xml:space="preserve" font-weight="normal" font-style="normal" stroke="null" transform="rotate(-4.44094 93.4688 114.628) matrix(0.789111 0 0 0.92733 313.229 -87.733)">The Pizza party</text>
 </g>

</svg>